<?xml version="1.0" encoding="UTF-8"?> <svg xmlns="http://www.w3.org/2000/svg" version="1.1" viewBox="0 0 1060.08 435.05"><defs><style> .cls-1 { fill: #da2128; } .cls-2 { fill: #f3a916; } </style></defs><g><g id="Layer_1"><g><path class="cls-2" d="M786.64,150.83c-1.59,1.59-4.19,1.59-5.78,0l-6.37-6.36c-1.59-1.59-1.59-4.19,0-5.78l6.13-6.12c1.59-1.59,4.19-1.59,5.77,0l6.36,6.36c1.59,1.59,1.59,4.19,0,5.78l-6.11,6.11Z"></path><path class="cls-2" d="M845.65,203.58c-1.58,1.59-4.18,1.59-5.77,0l-6.37-6.36c-1.59-1.59-1.59-4.19,0-5.78l6.12-6.12c1.59-1.59,4.19-1.59,5.78,0l6.35,6.36c1.59,1.59,1.59,4.19,0,5.78l-6.11,6.11Z"></path><path class="cls-2" d="M867.98,203.58c-1.58,1.59-4.18,1.59-5.77,0l-6.37-6.36c-1.59-1.59-1.59-4.19,0-5.78l6.12-6.12c1.59-1.59,4.19-1.59,5.78,0l6.35,6.36c1.59,1.59,1.59,4.19,0,5.78l-6.11,6.11Z"></path><g><path class="cls-1" d="M152.87,329.9c-7.41-12.44-15.71-25.8-24.88-40.1-9.17-14.29-18.65-28.69-28.48-43.2-9.82-14.52-19.8-28.59-29.95-42.23-10.15-13.64-19.8-25.91-28.96-36.82v162.35H0V103.06h33.72c8.74,9.17,18.12,20.03,28.15,32.57,10.04,12.55,20.14,25.59,30.29,39.12,10.14,13.53,19.96,27.11,29.46,40.75,9.48,13.64,17.95,26.35,25.36,38.13V103.06h40.92v226.84h-35.02Z"></path><path class="cls-1" d="M302.45,332.51c-12,0-24.11-.38-36.32-1.14-12.24-.77-22.92-2.34-32.08-4.75V106.33c4.8-.87,9.93-1.68,15.38-2.45,5.46-.76,11.02-1.36,16.71-1.8,5.67-.44,11.29-.76,16.85-.98,5.56-.21,10.84-.33,15.87-.33,13.74,0,26.51,1.04,38.29,3.11,11.79,2.07,21.99,5.51,30.61,10.31,8.63,4.8,15.33,11.13,20.14,18.99,4.79,7.86,7.2,17.57,7.2,29.14,0,10.69-2.57,19.85-7.69,27.49-5.13,7.64-12.27,13.75-21.44,18.33,13.73,4.58,23.88,11.35,30.43,20.3,6.55,8.95,9.82,20.29,9.82,34.04,0,23.35-8.5,40.87-25.52,52.54-17.03,11.67-43.1,17.51-78.24,17.51M274.63,195.37h29.13c15.71,0,28.04-2.24,37-6.71,8.95-4.47,13.42-12.49,13.42-24.05,0-10.91-4.65-18.66-13.91-23.25-9.29-4.58-21.34-6.87-36.17-6.87-6.32,0-11.94.12-16.86.33-4.91.22-9.11.55-12.6.98v59.57ZM274.63,227.77v69.06c4.59.44,9.5.77,14.73.98,5.23.22,10.03.33,14.4.33,8.51,0,16.42-.54,23.73-1.63,7.31-1.09,13.65-3,19-5.73,5.34-2.73,9.6-6.38,12.76-10.96,3.15-4.59,4.74-10.48,4.74-17.68,0-12.87-4.69-21.82-14.07-26.84-9.39-5.02-22.38-7.53-38.96-7.53h-36.33Z"></path><path class="cls-1" d="M509.32,332.51c-12,0-24.11-.38-36.32-1.14-12.24-.77-22.92-2.34-32.08-4.75V106.33c4.8-.87,9.92-1.68,15.37-2.45,5.46-.76,11.02-1.36,16.71-1.8,5.67-.44,11.29-.76,16.85-.98,5.56-.21,10.85-.33,15.87-.33,13.74,0,26.51,1.04,38.29,3.11,11.79,2.07,21.99,5.51,30.61,10.31,8.63,4.8,15.34,11.13,20.14,18.99,4.79,7.86,7.2,17.57,7.2,29.14,0,10.69-2.57,19.85-7.69,27.49-5.13,7.64-12.27,13.75-21.45,18.33,13.74,4.58,23.89,11.35,30.44,20.3,6.56,8.95,9.82,20.29,9.82,34.04,0,23.35-8.51,40.87-25.53,52.54-17.03,11.67-43.1,17.51-78.24,17.51M481.5,195.37h29.13c15.71,0,28.04-2.24,36.98-6.71,8.96-4.47,13.43-12.49,13.43-24.05,0-10.91-4.64-18.66-13.91-23.25-9.29-4.58-21.34-6.87-36.17-6.87-6.32,0-11.94.12-16.85.33-4.92.22-9.12.55-12.61.98v59.57ZM481.5,227.77v69.06c4.59.44,9.5.77,14.73.98,5.23.22,10.03.33,14.4.33,8.5,0,16.42-.54,23.73-1.63,7.32-1.09,13.65-3,18.99-5.73,5.35-2.73,9.6-6.38,12.77-10.96,3.15-4.59,4.73-10.48,4.73-17.68,0-12.87-4.68-21.82-14.07-26.84-9.38-5.02-22.38-7.53-38.96-7.53h-36.33Z"></path><path class="cls-1" d="M875.77,429.56c96.35-31.11,128.38-115.96,136.15-142.11,0,0,2.01-7.42,7.98-10.71l6.78-3.39s9.27-4.79,6.48,2.9c-4.24,12.92-14.68,41.02-32.62,68.13-21.59,32.6-60.4,69.96-124.52,90.02,0,0-5.04,1.89-5.33-.75-.29-2.64,5.08-4.09,5.08-4.09"></path><path class="cls-1" d="M968.44,30.96c-1.59,1.59-4.18,1.59-5.77,0l-6.37-6.36c-1.59-1.59-1.59-4.19,0-5.78l6.13-6.12c1.59-1.59,4.19-1.59,5.77,0l6.36,6.36c1.59,1.59,1.59,4.19,0,5.78l-6.11,6.11Z"></path><path class="cls-1" d="M793.02,242.74c-1.58,1.59-4.18,1.59-5.77,0l-6.37-6.36c-1.59-1.59-1.59-4.19,0-5.78l6.12-6.12c1.59-1.59,4.19-1.59,5.78,0l6.35,6.36c1.59,1.59,1.59,4.19,0,5.78l-6.11,6.11Z"></path><path class="cls-1" d="M827.84,416.15c-1.59,1.59-4.19,1.59-5.77,0l-6.37-6.36c-1.59-1.59-1.59-4.19,0-5.78l6.13-6.12c1.59-1.59,4.19-1.59,5.77,0l6.36,6.36c1.59,1.59,1.59,4.19,0,5.78l-6.11,6.11Z"></path><path class="cls-1" d="M850.17,416.15c-1.59,1.59-4.18,1.59-5.77,0l-6.37-6.36c-1.59-1.59-1.59-4.19,0-5.78l6.13-6.12c1.59-1.59,4.19-1.59,5.77,0l6.36,6.36c1.59,1.59,1.59,4.19,0,5.78l-6.11,6.11Z"></path><path class="cls-1" d="M1032.77,136.05c-1.59,1.59-4.18,1.59-5.77,0l-6.37-6.36c-1.59-1.59-1.59-4.19,0-5.78l6.13-6.12c1.59-1.59,4.19-1.59,5.78,0l6.35,6.36c1.59,1.59,1.59,4.19,0,5.78l-6.11,6.11Z"></path><path class="cls-1" d="M1060.07,107.08V36.6c0-.12-.01-.21-.01-.33-.07-8.93-5.95-5.15-8.07-3.46l-.37.31c-.19.15-.32.28-.37.33v-.02s-5.45,4.44-5.45,4.44c-2.63,2.12-2.54,6.06-2.54,6.06v43.82c-.02,6.53-6.89,4.57-6.89,4.57-6.58-1.67-13.12-3.22-19.63-4.66-6.4-1.56-6.04-8.2-6.04-8.2V22.38c0-.11,0-.21,0-.33-.06-8.93-5.94-5.15-8.06-3.46l-.39.31c-.17.15-.32.28-.37.33v-.02s-5.43,4.44-5.43,4.44c-2.63,2.12-2.56,6.06-2.56,6.06v47.26s.35,6.28-6.22,4.87c-6.83-1.21-13.58-2.32-20.28-3.3-6.66-.92-11.02-5.62-11.02-5.62l-30.46-29.63s-2-2.25-5.25-2.96c-90.66-14.14-188.96,7.29-225.38,16.65-.03,0-.04,0-.08,0-3.69.66-3.56-2.56-3.56-2.56h0v-12.56c.05-.96.57-3.55,4.5-4.62,123.7-30.84,209.96-19.87,228.93-16.78.87.06,4.27.15,6.24-2.07l5.52-6.71c2.34-3.92-1.58-5.58-3.55-6.15-26.77-4.43-122.04-15.92-250.1,17.65h.07s-8.46,2.2-8.42,8.66v42.42h0s-.18,6.06,6.31,4.1c.38-.12.71-.19,1.01-.26l3.49-1.05c1.22-.37,119.41-35.34,225.38-21.13,5.53,1.13,7.5,3.64,7.5,3.64l10.98,10.68s4.28,4.22-.71,3.69c-126.99-11.7-225.92,12.98-249.44,19.59,0,0-5.32,1.79-5.32,6.35l.02,8.22s-.36,5.13,6.1,3.38c32.61-9.19,191.71-48.53,369.23,1.75,11.31,3.44,10.71-6.14,10.71-6.14"></path><path class="cls-1" d="M960.46,341.02c26.04-.36,27.11-21.58,27.57-30.88.51-10.3.03-61.37,0-65.8h-.01s-.05-9.81-.05-9.81c0-.12-.01-.21-.01-.33-.06-8.93-5.93-5.14-8.05-3.46l-.39.31c-.17.15-.32.28-.37.32v-.02s-5.43,4.44-5.43,4.44c-2.63,2.12-2.56,6.06-2.56,6.06l.06,7.49c.17,25.81.41,52.12,0,60.16-.54,10.76-1.18,14.44-10.35,14.69,0,0-3.87.57-3.87-4.09v-29.99c0-5.2-4.96-6.12-7.22-6.12h-17.48c-16.65,0-22.23,9.86-25.78,20.51-3.56,10.64-8.16,25.47-8.21,25.62l-1.67,5.42s-2.32,5.57,4.47,5.48h39.07v9.04c-.87,9.66-4.19,15.85-17.7,16.91-14.81,1.17-53.02.48-68.51.14-6.92-.14-7.82,4.11-7.82,4.11l-1.89,6.94s-1.54,5.64,7.19,5.79c10.25.21,27.75.49,42.85.49,11.73,0,22.78-.17,29.5-.7,13.99-1.1,31.09-7.66,33.16-32.63l.02-6.8s-.4-3.06,3.48-3.3M940.17,304.3v15.58s.49,4.39-3.73,4.33h-13.59s-5.14.39-3.51-4.79c1.04-3.24,2.12-6.59,3.12-9.59,2.88-8.62,4.54-9.01,9.83-9.01h3.51s4.5-.15,4.37,3.47"></path><path class="cls-1" d="M762.78,239.37l6.07-8.02c4.85-6.2-3.1-5.4-3.1-5.4l-68.64,4.14s-10.65.12-8.43,9.89c.58,3.15,14.62,76.65,81.51,140.29,5.35,5.31,14.29,5.04,14.29,5.04h30.59c6.73.1,8.02-6.04,8.02-6.04l4.63-17.52.07-.26c1.96-8.52-.34-22.56-14.73-26.32-.72-.19-1.53-.39-2.43-.61-20.19-4.99-38.41-13.23-35.14-39.4,1.55-9.1,8.26-16.16,14.45-20.61,0,0,1.95-1.63,1.9.58v42.99c0,2.25,1.84,4.09,4.09,4.09h87.97s8.45.76,11.09-6.19c2.9-6.73,11.39-28.56,5.93-42.14-1.94-4.79-5.4-8.29-10.01-10.13-10.3-4.13-24.22-2.45-38.16,4.63-6.59,3.35-12.33,7.79-17.51,13.09-1.88,2.15-1.64-1.1-1.64-1.1v-50.61c0-.12-.01-.21-.01-.33-.06-8.93-5.94-5.14-8.07-3.46l-.37.31c-.17.15-.32.28-.37.32v-.02s-5.43,4.44-5.43,4.44c-2.65,2.12-2.56,6.06-2.56,6.06v66s.12,2.23-2.32,2.3h-4.12c-1.79.01-1.68-2.5-1.68-2.5v-46.84c0-2.01-1.46-3.68-3.39-4.01l-4.1.09c-9.5-.09-38.03,14.27-42.3,40.48l-.04.28c-5.76,44.79,34.53,54.74,47.76,58.01.82.21,1.56.39,2.22.56,3.01.78,3.06,3.83,2.6,6.19l-1.78,6.76s-1.19,4.12-5.58,4.1h-16.75s-4.87.15-8.18-2.98c-41.5-40.61-60.78-85.68-68.84-110.19-3.98-9.6,4.98-9.69,4.98-9.69l41.03-3.03c3.89-.33,6.48-3.22,6.48-3.22M877.58,305.37h-38.71s-4.39.42-1.28-3.15c13.75-17.05,30.43-23.82,40.92-23.87,2.42,0,7.97.53,7.44,6.78-.42,4.89-1.81,11.54-3.82,17.43,0,0-.89,2.88-4.55,2.82"></path></g><path class="cls-2" d="M1051.22,133.62l-5.45,4.51s-3.17,2.22-4.22,9.43c-1.25,15.54-5.44,57.35-15.39,97.25-2.26,9.79,3.58,5.65,3.58,5.65l8.81-4.87c4.89-2.26,6.06-8.09,6.06-8.09,10.18-40.34,13.76-82.4,14.82-101.11,1.14-11.56-8.21-2.77-8.21-2.77"></path><path class="cls-2" d="M843.33,173.24s10.21.59,16.63-6.29c5.55-5.97,5.2-20.2,5.2-20.2v-7.37h0v-23.83c0-.11-.01-.21-.01-.33-.06-8.93-5.94-5.15-8.05-3.46l-.39.31c-.17.15-.31.28-.37.32v-.02s-5.43,4.44-5.43,4.44c-2.63,2.12-2.56,6.06-2.56,6.06v5.78h0v12.16s1.28,11.02-4.2,13.33c-6.4,2.7-14.35,2.38-14.35,2.38l-9.4.13v-39.46c0-.12-.01-.21-.01-.33-.08-8.93-5.95-5.15-8.07-3.46l-.39.31c-.17.15-.3.28-.35.33v-.02s-5.45,4.44-5.45,4.44c-2.63,2.11-2.54,6.06-2.54,6.06v37.45s.8,14.47-4.14,19.53c-5.52,5.67-25.22,5.9-25.22,5.9l-68.48,3.62c-9.26.58-10.07-7.24-10.07-7.24-2.15-15.09-3-27.74-3.33-35.92-.07-4.48,3.87-5.59,3.87-5.59,17.89-5.07,49.63-10.54,67.86-13.5,0,0,4.41-.15,6.57-3.94l6.28-10.47c3.02-4.74-4.46-3.09-4.46-3.09-20.77,3.15-77.8,12.02-92.28,18.81,0,0-4.86,2.07-4.84,7.45-.02,1.14-.46,28.24,6.24,64.3,0,0,1.05,7.61,10.75,6.74l87.36-4.82s25.22-.68,33.16-9.54c5.18-5.76,6.91-14.34,7.44-20.72l23.07-.26Z"></path><path class="cls-2" d="M1004.16,119.56l-.39.31c-.18.15-.31.28-.35.32v-.02s-5.46,4.44-5.46,4.44c-2.62,2.12-2.54,6.06-2.54,6.06v48.41c0,7.23-6.31,6.63-6.31,6.63h-10.81c-2.08-.19-3.71-1.93-3.71-4.05h0v-27.65c0-.12-.01-.22-.01-.34-.07-8.93-5.95-5.14-8.07-3.46l-.39.31c-.17.15-.32.28-.36.33v-.02l-5.44,4.44c-2.63,2.11-2.56,6.06-2.56,6.06v19.78c-.02,2.22-1.75,4-3.97,4.03-2.75-.06-5.5-.12-8.27-.18-2.22-.04-4.01-1.85-4.02-4.07v-24.29c0-15.14-6.61-31.31-25.2-31.31h-22.94s-6.24-.31-2.87,3.31l10.33,11.02s2.27,2.45,6.16,2.49h9.31c4.1,0,8.79,4.34,8.38,16.6v21.68h0c0,2.24-1.74,4.04-3.96,4.07-6.88-.12-13.03-.21-17.89-.26h0c-2.18,0-3.98-1.74-4.07-3.9v-5.77l.04-16.42c0-.12-.01-.21-.01-.33-.07-8.93-5.95-5.14-8.07-3.46l-.39.31c-.17.15-.32.28-.35.32v-.02s-5.45,4.44-5.45,4.44c-2.63,2.12-2.55,6.06-2.55,6.06v3.04h-.04v36.4s1.45,17.85-3,21.59c-4.55,3.83-11.27,3.08-11.27,3.08h-7.29v.02h-3.88c-3.91.03-6.16,2.48-6.16,2.48l-10.35,11.03c-3.36,3.62,2.88,3.31,2.88,3.31h19.89v-.03h5.14s15.13.74,23.27-5.26c8.67-6.37,7.59-22.31,7.59-22.31v-17.81c15.17.03,55.91.96,90.75,1.82,0,0,9.17-.28,15.94-5.7,6.79-5.42,6.79-17.32,6.79-17.32v-56.43c0-.12-.01-.21-.01-.33-.08-8.93-5.95-5.15-8.07-3.46"></path><path class="cls-2" d="M943.15,231.05c-1.58,1.59-4.18,1.59-5.77,0l-6.37-6.36c-1.59-1.59-1.59-4.19,0-5.78l6.12-6.12c1.59-1.59,4.19-1.59,5.78,0l6.35,6.36c1.59,1.59,1.59,4.19,0,5.78l-6.11,6.11Z"></path></g></g></g></svg> 