<?xml version="1.0" encoding="UTF-8"?>
<svg xmlns="http://www.w3.org/2000/svg" xmlns:xlink="http://www.w3.org/1999/xlink" width="200px" height="43px" viewBox="0 0 251 43" version="1.1">
<g id="surface1">
<path style=" stroke:none;fill-rule:nonzero;fill:rgb(0.392157%,43.137255%,68.627453%);fill-opacity:1;" d="M 64.386719 25.765625 L 64.386719 26.851562 C 64.386719 27.210938 64.363281 27.574219 64.320312 27.933594 L 38.753906 27.933594 C 38.800781 29.285156 39.105469 30.554688 39.667969 31.746094 C 40.230469 32.9375 40.988281 33.96875 41.941406 34.84375 C 42.886719 35.71875 43.988281 36.40625 45.230469 36.898438 C 46.46875 37.394531 47.792969 37.636719 49.195312 37.636719 C 51.363281 37.636719 53.238281 37.164062 54.820312 36.214844 C 56.402344 35.265625 57.648438 34.109375 58.550781 32.753906 L 63.027344 36.351562 C 61.308594 38.632812 59.289062 40.308594 56.960938 41.386719 C 54.628906 42.464844 52.042969 43 49.195312 43 C 46.75 43 44.488281 42.59375 42.414062 41.78125 C 40.332031 40.96875 38.550781 39.820312 37.058594 38.355469 C 35.5625 36.886719 34.390625 35.109375 33.53125 33.027344 C 32.675781 30.941406 32.246094 28.640625 32.246094 26.105469 C 32.246094 23.570312 32.664062 21.320312 33.503906 19.21875 C 34.34375 17.113281 35.503906 15.320312 37 13.824219 C 38.496094 12.328125 40.261719 11.164062 42.300781 10.328125 C 44.335938 9.492188 46.539062 9.078125 48.894531 9.078125 C 51.253906 9.078125 53.390625 9.460938 55.320312 10.226562 C 57.242188 10.996094 58.871094 12.109375 60.214844 13.550781 C 61.550781 15.003906 62.582031 16.753906 63.304688 18.8125 C 64.027344 20.875 64.394531 23.191406 64.394531 25.765625 Z M 57.878906 23.1875 C 57.832031 21.921875 57.621094 20.730469 57.234375 19.625 C 56.851562 18.519531 56.289062 17.554688 55.539062 16.742188 C 54.792969 15.929688 53.863281 15.285156 52.757812 14.804688 C 51.648438 14.332031 50.351562 14.09375 48.859375 14.09375 C 47.5 14.09375 46.226562 14.332031 45.03125 14.804688 C 43.835938 15.28125 42.792969 15.921875 41.914062 16.742188 C 41.023438 17.566406 40.289062 18.542969 39.742188 19.625 C 39.175781 20.738281 38.851562 21.921875 38.761719 23.1875 L 57.882812 23.1875 Z M 128.75 9.953125 L 121.429688 34.730469 L 113.554688 9.953125 L 106.84375 9.953125 L 99.117188 34.730469 L 91.789062 9.953125 L 84.875 9.953125 L 95.585938 42.121094 L 102.234375 42.121094 L 110.097656 17.960938 L 110.234375 17.960938 L 118.167969 42.121094 L 124.8125 42.121094 L 135.460938 9.953125 Z M 169.496094 25.96875 C 169.496094 28.460938 169.054688 30.746094 168.175781 32.824219 C 167.296875 34.90625 166.074219 36.699219 164.515625 38.21875 C 162.953125 39.738281 161.117188 40.910156 158.988281 41.746094 C 156.863281 42.582031 154.585938 43 152.140625 43 C 149.699219 43 147.417969 42.582031 145.296875 41.746094 C 143.167969 40.910156 141.34375 39.730469 139.800781 38.21875 C 138.261719 36.707031 137.054688 34.90625 136.175781 32.824219 C 135.296875 30.738281 134.855469 28.460938 134.855469 25.96875 C 134.855469 23.480469 135.296875 21.210938 136.175781 19.152344 C 137.054688 17.089844 138.269531 15.320312 139.800781 13.824219 C 141.335938 12.328125 143.167969 11.164062 145.296875 10.328125 C 147.421875 9.492188 149.699219 9.078125 152.140625 9.078125 C 154.585938 9.078125 156.863281 9.492188 158.988281 10.328125 C 161.117188 11.164062 162.953125 12.332031 164.515625 13.824219 C 166.074219 15.320312 167.296875 17.089844 168.175781 19.152344 C 169.054688 21.210938 169.496094 23.488281 169.496094 25.96875 Z M 162.847656 26.003906 C 162.847656 24.46875 162.609375 23.007812 162.128906 21.605469 C 161.652344 20.207031 160.964844 18.984375 160.054688 17.921875 C 159.148438 16.859375 158.023438 16.011719 156.6875 15.382812 C 155.351562 14.75 153.816406 14.433594 152.097656 14.433594 C 150.378906 14.433594 148.84375 14.75 147.507812 15.382812 C 146.167969 16.011719 145.046875 16.859375 144.140625 17.921875 C 143.230469 18.984375 142.542969 20.214844 142.0625 21.605469 C 141.589844 23.007812 141.347656 24.476562 141.347656 26.003906 C 141.347656 27.535156 141.585938 29.007812 142.0625 30.402344 C 142.539062 31.800781 143.230469 33.042969 144.140625 34.121094 C 145.046875 35.203125 146.167969 36.0625 147.507812 36.695312 C 148.84375 37.328125 150.378906 37.644531 152.097656 37.644531 C 153.816406 37.644531 155.351562 37.328125 156.6875 36.695312 C 158.023438 36.0625 159.148438 35.203125 160.054688 34.121094 C 160.964844 33.039062 161.652344 31.796875 162.128906 30.402344 C 162.605469 29 162.847656 27.539062 162.847656 26.003906 Z M 194.007812 0 L 200.378906 0 L 200.378906 42.121094 L 194.007812 42.121094 Z M 82.328125 14.824219 L 82.328125 9.953125 L 74.308594 9.953125 L 74.308594 0 L 68.003906 0 L 68.003906 32.621094 C 68.003906 35.96875 68.804688 38.480469 70.410156 40.15625 C 72.011719 41.832031 74.332031 42.667969 77.359375 42.667969 C 78.351562 42.667969 79.316406 42.589844 80.242188 42.429688 C 80.992188 42.300781 81.679688 42.125 82.328125 41.921875 L 82.328125 36.65625 C 81.847656 36.851562 81.328125 37.011719 80.75 37.117188 C 80.070312 37.242188 79.433594 37.304688 78.847656 37.304688 C 77.261719 37.304688 76.113281 36.886719 75.390625 36.050781 C 74.667969 35.214844 74.308594 33.828125 74.308594 31.890625 L 74.308594 14.828125 L 82.328125 14.828125 Z M 188.605469 9.070312 C 186.433594 9.070312 184.476562 9.648438 182.738281 10.804688 C 180.996094 11.957031 179.472656 13.484375 178.570312 15.386719 L 178.570312 9.960938 L 172.535156 9.960938 L 172.535156 42.125 L 178.910156 42.125 L 178.910156 25.226562 C 178.910156 23.871094 179.089844 22.566406 179.449219 21.324219 C 179.8125 20.082031 180.363281 18.984375 181.113281 18.035156 C 181.859375 17.085938 182.792969 16.328125 183.929688 15.757812 C 185.054688 15.195312 186.394531 14.914062 187.925781 14.914062 C 188.957031 14.914062 189.921875 15.027344 190.824219 15.246094 L 190.824219 9.28125 C 190.199219 9.144531 189.464844 9.070312 188.605469 9.070312 Z M 28.195312 17.082031 C 27.722656 15.5 26.984375 14.117188 25.992188 12.941406 C 25 11.769531 23.753906 10.828125 22.261719 10.125 C 20.769531 9.425781 18.988281 9.078125 16.90625 9.078125 C 15.726562 9.078125 14.597656 9.234375 13.515625 9.550781 C 12.433594 9.867188 11.433594 10.308594 10.53125 10.871094 C 9.628906 11.4375 8.824219 12.089844 8.125 12.839844 C 7.425781 13.585938 6.667969 14.394531 6.257812 15.25 C 5.847656 16.109375 6.257812 9.960938 6.257812 9.960938 L 0.222656 9.960938 L 0.222656 42.125 L 6.601562 42.125 L 6.601562 25.023438 C 6.601562 21.808594 7.402344 19.242188 9.011719 17.316406 C 10.613281 15.394531 12.679688 14.433594 15.214844 14.433594 C 16.707031 14.433594 17.925781 14.703125 18.875 15.246094 C 19.820312 15.789062 20.570312 16.515625 21.113281 17.417969 C 21.65625 18.320312 22.027344 19.367188 22.230469 20.539062 C 22.433594 21.714844 22.535156 22.960938 22.535156 24.269531 L 22.535156 42.121094 L 28.90625 42.121094 L 28.90625 22.167969 C 28.90625 20.359375 28.671875 18.660156 28.195312 17.074219 Z M 28.195312 17.082031 "/>
<path style=" stroke:none;fill-rule:nonzero;fill:rgb(0.392157%,43.137255%,68.627453%);fill-opacity:1;" d="M 213.941406 9.957031 L 221.820312 9.957031 L 208.257812 26.140625 L 221.660156 42.125 L 213.78125 42.125 L 200.378906 26.140625 Z M 213.941406 9.957031 "/>
<path style=" stroke:none;fill-rule:nonzero;fill:rgb(89.803922%,26.274511%,37.64706%);fill-opacity:1;" d="M 237.214844 9.957031 L 229.335938 9.957031 L 242.898438 26.140625 L 229.496094 42.125 L 237.375 42.125 L 250.777344 26.140625 Z M 237.214844 9.957031 "/>
</g>
</svg>
