<svg xmlns="http://www.w3.org/2000/svg" width="86" height="28" viewBox="0 0 86 28" fill="none">
    <path fill-rule="evenodd" clip-rule="evenodd"
        d="M33.5356 2.07274L42.8116 24.146C42.9708 24.54 43.0724 24.8205 43.1232 25.0084C43.1795 25.2227 43.2083 25.4479 43.2083 25.6828C43.2083 26.0477 43.0683 26.4167 42.7951 26.7747C42.5824 27.0552 42.1816 27.3911 41.4857 27.3911C40.7637 27.3911 40.3848 27.0331 40.194 26.7317C40.0129 26.4457 39.8235 26.0519 39.6148 25.528L31.2311 5.34808L22.7717 25.5475C22.5877 26.0699 22.4121 26.4637 22.2377 26.7443C22.0539 27.04 21.6791 27.3911 20.9269 27.3911C20.4629 27.3911 20.0512 27.2127 19.7355 26.8728C19.4267 26.5397 19.2688 26.1637 19.2688 25.752C19.2688 25.5115 19.2991 25.2863 19.3567 25.0844C19.3889 24.9728 23.4329 15.3071 26.2909 8.47596L26.2929 8.47104L26.2937 8.46909C27.8209 4.81908 29.0087 1.98 29.0637 1.84333L29.0788 1.8143C29.47 1.00307 30.2963 0.443359 31.2516 0.443359C32.2769 0.443359 33.1527 1.08599 33.5027 1.99534L33.5356 2.07274ZM84.1647 24.146C84.3239 24.54 84.4255 24.8205 84.4763 25.0084C84.5326 25.2227 84.5614 25.4479 84.5614 25.6828C84.5614 26.0477 84.4228 26.4167 84.1483 26.7747C83.9355 27.0552 83.5347 27.3911 82.8388 27.3911C82.1168 27.3911 81.738 27.0331 81.5472 26.7317C81.366 26.4457 81.1766 26.0519 80.9679 25.528L72.5841 5.34808L64.1261 25.5475C63.9409 26.0699 63.7652 26.4637 63.5923 26.7443C63.4083 27.04 63.0323 27.3911 62.2815 27.3911C61.8175 27.3911 61.4043 27.2127 61.0887 26.8728C60.7797 26.5397 60.6233 26.1637 60.6233 25.752C60.6233 25.5115 60.6521 25.2863 60.7112 25.0844C60.7447 24.9649 65.3732 13.9032 68.2267 7.0838L68.2335 7.06775L68.2355 7.06282L68.2383 7.05624C69.4712 4.10946 70.3701 1.96136 70.4181 1.84333L70.4319 1.8143C70.8231 1.00307 71.6494 0.443359 72.6061 0.443359C73.6313 0.443359 74.5071 1.08599 74.8571 1.99534L74.8887 2.07274L84.1647 24.146ZM56.5867 23.9883C56.5824 23.9883 56.5784 23.9889 56.5747 23.9897C56.5713 23.9904 56.568 23.9909 56.5648 23.9909V23.9883H48.9537L48.9345 14.9804L48.9579 11.5765V2.14292H48.9564C48.9523 1.20869 48.1988 0.45135 47.2681 0.45135C46.3348 0.45135 45.5785 1.21421 45.5785 2.1526C45.5785 2.1595 45.5799 2.16641 45.5812 2.1747H45.5785V25.6895C45.5785 26.6292 46.3348 27.3907 47.2681 27.3907C47.2923 27.3907 47.3184 27.3917 47.3451 27.3928C47.4005 27.3949 47.4588 27.3972 47.5069 27.3907H50.6503H56.5949C57.5241 27.3865 58.2749 26.6251 58.2749 25.6895C58.2749 24.7511 57.52 23.9883 56.5867 23.9883ZM4.19183 25.6949L4.16849 15.5787H16.1623C16.4313 15.5787 16.5932 15.8288 16.4835 16.0748L12.9902 25.0053L12.9915 25.0067C12.8529 25.3301 12.809 25.7032 12.9023 26.0944C13.0519 26.7149 13.5543 27.2083 14.1733 27.3409C15.0052 27.5192 15.7545 27.0769 16.0716 26.3928L16.0757 26.3943L16.0936 26.35C16.0949 26.3475 16.0961 26.3445 16.0975 26.3416C16.0989 26.3384 16.1004 26.3351 16.1019 26.332L20.7192 14.7453L20.7207 14.744C20.9403 14.2036 20.9403 13.5969 20.7192 13.0565L16.1307 1.55554L16.1252 1.53896C16.1231 1.53412 16.1207 1.52928 16.1183 1.52445C16.1159 1.51961 16.1135 1.51477 16.1115 1.50993C16.1059 1.49542 16.0988 1.48138 16.0919 1.46728C16.0868 1.45718 16.0817 1.44705 16.0772 1.43669C16.0456 1.37036 16.0112 1.3054 15.9728 1.24321C15.9639 1.22939 15.9549 1.21591 15.946 1.20244C15.9372 1.18897 15.9283 1.17549 15.9193 1.16167C15.8753 1.10224 15.8301 1.04558 15.7793 0.993066C15.7725 0.985762 15.7663 0.978261 15.7599 0.970786C15.7495 0.958461 15.7391 0.946206 15.7271 0.935022C15.6571 0.865922 15.5816 0.803733 15.502 0.748453C15.4937 0.742925 15.4852 0.738089 15.4767 0.733251C15.468 0.728414 15.4595 0.723577 15.4512 0.718049C15.3853 0.675206 15.3153 0.63651 15.2425 0.603342C15.2124 0.589522 15.1836 0.578466 15.1533 0.56741C15.0875 0.541153 15.0175 0.520422 14.9475 0.503838C14.9445 0.503034 14.9416 0.502229 14.9388 0.501426C14.9117 0.493963 14.8855 0.486718 14.8569 0.481726C14.7567 0.462378 14.6551 0.451322 14.5495 0.449941H14.548C13.9565 0.449941 13.4363 0.758126 13.1357 1.22248C12.9613 1.49058 12.8598 1.80845 12.8598 2.15118C12.8598 2.26312 12.8708 2.3723 12.8913 2.47872C12.892 2.48217 12.8924 2.48562 12.8927 2.48908C12.8931 2.49253 12.8934 2.49598 12.8941 2.49945C12.9161 2.59757 12.9463 2.6943 12.9833 2.78552C12.9861 2.79174 12.9881 2.7983 12.9902 2.80488C12.9922 2.81144 12.9943 2.818 12.997 2.82421L16.4916 11.7409L16.5027 11.7699C16.5095 11.7989 16.5149 11.8279 16.5149 11.8584C16.5149 12.0325 16.3749 12.1735 16.202 12.1735H4.19183V2.14842H4.19045C4.18497 1.2128 3.43141 0.45685 2.50216 0.45685C1.5688 0.45685 0.8125 1.21833 0.8125 2.15809C0.8125 2.16154 0.813187 2.16534 0.813872 2.16914C0.814559 2.17294 0.815245 2.17674 0.815245 2.1802H0.8125V25.6245C0.8125 26.5545 1.52488 27.3672 2.45001 27.3961C3.40671 27.4239 4.19183 26.6527 4.19183 25.6949Z"
        fill="#009877" />
</svg>