<svg width="366" height="57" viewBox="0 0 366 57" fill="none" xmlns="http://www.w3.org/2000/svg">
<path d="M182.563 18.4287H183.753C184.427 18.4287 184.947 18.2943 185.312 18.0254C185.681 17.7565 185.865 17.3828 185.865 16.9043C185.865 16.4486 185.701 16.0954 185.373 15.8447C185.045 15.5895 184.555 15.4619 183.903 15.4619H182.563V18.4287ZM181.162 14.2246H183.555C183.801 14.2246 184.04 14.2314 184.272 14.2451C184.509 14.2542 184.74 14.277 184.963 14.3135C185.186 14.3454 185.398 14.391 185.599 14.4502C185.804 14.5049 185.995 14.5801 186.173 14.6758C186.351 14.7715 186.51 14.8854 186.651 15.0176C186.797 15.1452 186.92 15.2979 187.021 15.4756C187.125 15.6533 187.205 15.8584 187.26 16.0908C187.319 16.3232 187.349 16.5853 187.349 16.877C187.349 17.1732 187.296 17.4489 187.191 17.7041C187.087 17.9548 186.943 18.1758 186.761 18.3672C186.583 18.5586 186.371 18.7181 186.125 18.8457C185.879 18.9688 185.615 19.0531 185.332 19.0986V19.126C185.437 19.1715 185.533 19.2217 185.619 19.2764C185.71 19.3311 185.788 19.3926 185.852 19.4609C185.988 19.5977 186.134 19.8141 186.289 20.1104L188.135 24H186.535L185.038 20.6094C184.929 20.377 184.817 20.1969 184.703 20.0693C184.589 19.9372 184.466 19.8415 184.334 19.7822C184.206 19.723 184.067 19.6888 183.917 19.6797C183.767 19.666 183.596 19.6592 183.404 19.6592H182.563V24H181.162V14.2246ZM194.301 19.7412C194.301 19.4678 194.26 19.2126 194.178 18.9756C194.1 18.734 193.986 18.5244 193.836 18.3467C193.686 18.1644 193.499 18.0208 193.275 17.916C193.057 17.8112 192.806 17.7588 192.523 17.7588C192.195 17.7588 191.915 17.8203 191.683 17.9434C191.455 18.0618 191.266 18.2168 191.115 18.4082C190.965 18.5996 190.849 18.8138 190.767 19.0508C190.685 19.2832 190.63 19.5133 190.603 19.7412H194.301ZM195.155 23.7061C195.023 23.7516 194.886 23.8018 194.745 23.8564C194.608 23.9066 194.451 23.9544 194.273 24C194.096 24.0501 193.895 24.0911 193.672 24.123C193.449 24.1549 193.191 24.1709 192.899 24.1709C192.271 24.1709 191.724 24.0775 191.259 23.8906C190.794 23.7038 190.409 23.4417 190.104 23.1045C189.798 22.7673 189.57 22.3617 189.42 21.8877C189.274 21.4092 189.201 20.8805 189.201 20.3018C189.201 19.7777 189.281 19.2946 189.44 18.8525C189.6 18.4105 189.826 18.0299 190.117 17.7109C190.413 17.3874 190.767 17.1367 191.177 16.959C191.587 16.7812 192.045 16.6924 192.551 16.6924C193.143 16.6924 193.64 16.7949 194.041 17C194.447 17.2051 194.77 17.4899 195.012 17.8545C195.258 18.2145 195.433 18.6406 195.538 19.1328C195.643 19.6204 195.695 20.1514 195.695 20.7256H190.603C190.603 21.0765 190.666 21.3978 190.794 21.6895C190.922 21.9811 191.092 22.2318 191.307 22.4414C191.525 22.651 191.776 22.8151 192.059 22.9336C192.346 23.0475 192.644 23.1045 192.954 23.1045C193.177 23.1045 193.401 23.0794 193.624 23.0293C193.852 22.9792 194.064 22.9176 194.26 22.8447C194.46 22.7718 194.638 22.6943 194.793 22.6123C194.952 22.5303 195.073 22.4551 195.155 22.3867V23.7061ZM200.385 22.9336C200.69 22.9336 200.97 22.8721 201.226 22.749C201.485 22.6214 201.706 22.4482 201.889 22.2295C202.071 22.0107 202.212 21.7555 202.312 21.4639C202.417 21.1676 202.47 20.8509 202.47 20.5137C202.47 20.1445 202.426 19.7936 202.34 19.4609C202.253 19.1237 202.121 18.8298 201.943 18.5791C201.77 18.3285 201.554 18.1302 201.294 17.9844C201.034 17.834 200.731 17.7588 200.385 17.7588C200.052 17.7588 199.76 17.8408 199.51 18.0049C199.264 18.1644 199.056 18.374 198.888 18.6338C198.724 18.889 198.601 19.1738 198.519 19.4883C198.437 19.8027 198.396 20.1126 198.396 20.418C198.396 20.7552 198.441 21.0765 198.532 21.3818C198.623 21.6826 198.753 21.9492 198.922 22.1816C199.095 22.4095 199.305 22.5918 199.551 22.7285C199.797 22.8652 200.075 22.9336 200.385 22.9336ZM203.782 23.6924C203.782 24.7816 203.488 25.6224 202.9 26.2148C202.312 26.8118 201.381 27.1104 200.104 27.1104C199.918 27.1104 199.733 27.1035 199.551 27.0898C199.368 27.0762 199.175 27.0511 198.97 27.0146C198.769 26.9827 198.55 26.9349 198.313 26.8711C198.081 26.8073 197.824 26.723 197.541 26.6182L197.685 25.4014C197.94 25.5107 198.17 25.6064 198.375 25.6885C198.585 25.7705 198.787 25.8366 198.983 25.8867C199.179 25.9414 199.378 25.9801 199.578 26.0029C199.783 26.0303 200.009 26.0439 200.255 26.0439C200.957 26.0439 201.501 25.8229 201.889 25.3809C202.276 24.9479 202.47 24.3532 202.47 23.5967V22.8926H202.442C202.169 23.2617 201.813 23.5397 201.376 23.7266C200.952 23.9089 200.51 24 200.05 24C199.535 24 199.086 23.9043 198.703 23.7129C198.32 23.5215 198.001 23.264 197.746 22.9404C197.495 22.6169 197.306 22.2432 197.179 21.8193C197.056 21.3955 196.994 20.9512 196.994 20.4863C196.994 20.181 197.024 19.8757 197.083 19.5703C197.142 19.265 197.229 18.971 197.343 18.6885C197.461 18.4059 197.607 18.1439 197.78 17.9023C197.958 17.6608 198.165 17.4512 198.402 17.2734C198.639 17.0911 198.906 16.9499 199.202 16.8496C199.498 16.7448 199.826 16.6924 200.187 16.6924C200.501 16.6924 200.781 16.7197 201.027 16.7744C201.278 16.8291 201.499 16.9089 201.69 17.0137C201.882 17.1185 202.046 17.2484 202.183 17.4033C202.324 17.5537 202.442 17.7269 202.538 17.9229H202.565V16.8633H203.782V23.6924ZM212.341 24H211.069V22.8652H211.042C210.841 23.2799 210.529 23.6012 210.105 23.8291C209.673 24.057 209.205 24.1709 208.704 24.1709C207.784 24.1709 207.107 23.8997 206.674 23.3574C206.245 22.8197 206.031 22.0677 206.031 21.1016V16.8633H207.344V20.5547C207.344 21.3932 207.451 22.0199 207.665 22.4346C207.884 22.8493 208.283 23.0726 208.861 23.1045C209.235 23.1045 209.559 23.0339 209.832 22.8926C210.105 22.7467 210.331 22.5439 210.509 22.2842C210.687 22.0244 210.816 21.7145 210.898 21.3545C210.985 20.9945 211.028 20.598 211.028 20.165V16.8633H212.341V24ZM214.754 13.5H216.073V24H214.754V13.5ZM222.725 20.5957C222.588 20.5957 222.449 20.5911 222.308 20.582C222.166 20.5729 222.027 20.5684 221.891 20.5684C221.799 20.5684 221.697 20.5729 221.583 20.582C221.469 20.5866 221.341 20.5934 221.2 20.6025C220.927 20.6208 220.653 20.68 220.38 20.7803C220.116 20.8669 219.888 21.0036 219.696 21.1904C219.505 21.3773 219.409 21.6279 219.409 21.9424C219.409 22.1292 219.45 22.2956 219.532 22.4414C219.614 22.5827 219.719 22.7035 219.847 22.8037C219.979 22.8994 220.122 22.9746 220.277 23.0293C220.437 23.0794 220.592 23.1045 220.742 23.1045C221.394 23.1045 221.886 22.9245 222.219 22.5645C222.556 22.1999 222.725 21.7533 222.725 21.2246V20.5957ZM218.821 17.3623C219.149 17.1663 219.509 17.0068 219.901 16.8838C220.293 16.7562 220.717 16.6924 221.173 16.6924C222.198 16.6924 222.932 16.9408 223.374 17.4375C223.821 17.9342 224.044 18.6702 224.044 19.6455V22.5986C224.044 23.0088 224.049 23.3187 224.058 23.5283C224.067 23.738 224.08 23.8952 224.099 24H222.868V23.0771H222.841C222.763 23.1865 222.661 23.305 222.533 23.4326C222.406 23.5602 222.248 23.6787 222.062 23.7881C221.879 23.8975 221.667 23.9886 221.426 24.0615C221.189 24.1344 220.922 24.1709 220.626 24.1709C220.243 24.1709 219.89 24.1276 219.566 24.041C219.247 23.959 218.972 23.8268 218.739 23.6445C218.507 23.4622 218.327 23.2321 218.199 22.9541C218.072 22.6715 218.008 22.3343 218.008 21.9424C218.008 21.7191 218.035 21.514 218.09 21.3271C218.149 21.1403 218.229 20.9717 218.329 20.8213C218.434 20.6709 218.557 20.5365 218.698 20.418C218.84 20.2995 218.992 20.1947 219.156 20.1035C219.484 19.9212 219.844 19.7913 220.236 19.7139C220.624 19.6318 220.988 19.5908 221.33 19.5908H222.027C222.132 19.5908 222.242 19.5931 222.355 19.5977C222.469 19.6022 222.592 19.609 222.725 19.6182C222.725 19.0029 222.597 18.5404 222.342 18.2305C222.087 17.916 221.626 17.7588 220.961 17.7588C220.587 17.7588 220.216 17.8249 219.847 17.957C219.482 18.0846 219.163 18.2601 218.89 18.4834L218.821 17.3623ZM230.073 17.9229H228.18V21.833C228.18 22.2568 228.289 22.5736 228.508 22.7832C228.736 22.9974 228.995 23.1045 229.287 23.1045C229.492 23.1045 229.668 23.0794 229.813 23.0293C229.959 22.9746 230.082 22.9154 230.183 22.8516V23.9727C230.032 24.0182 229.861 24.0615 229.67 24.1025C229.483 24.1481 229.28 24.1709 229.062 24.1709C228.378 24.1709 227.842 24.0046 227.455 23.6719C227.063 23.3346 226.867 22.8083 226.867 22.0928V17.9229H225.254V16.8633H226.867V15.209L228.18 14.7852V16.8633H230.073V17.9229ZM236.355 19.7412C236.355 19.4678 236.314 19.2126 236.232 18.9756C236.155 18.734 236.041 18.5244 235.891 18.3467C235.74 18.1644 235.553 18.0208 235.33 17.916C235.111 17.8112 234.861 17.7588 234.578 17.7588C234.25 17.7588 233.97 17.8203 233.737 17.9434C233.509 18.0618 233.32 18.2168 233.17 18.4082C233.02 18.5996 232.903 18.8138 232.821 19.0508C232.739 19.2832 232.685 19.5133 232.657 19.7412H236.355ZM237.21 23.7061C237.078 23.7516 236.941 23.8018 236.8 23.8564C236.663 23.9066 236.506 23.9544 236.328 24C236.15 24.0501 235.95 24.0911 235.727 24.123C235.503 24.1549 235.246 24.1709 234.954 24.1709C234.325 24.1709 233.778 24.0775 233.313 23.8906C232.849 23.7038 232.464 23.4417 232.158 23.1045C231.853 22.7673 231.625 22.3617 231.475 21.8877C231.329 21.4092 231.256 20.8805 231.256 20.3018C231.256 19.7777 231.336 19.2946 231.495 18.8525C231.655 18.4105 231.88 18.0299 232.172 17.7109C232.468 17.3874 232.821 17.1367 233.231 16.959C233.642 16.7812 234.1 16.6924 234.605 16.6924C235.198 16.6924 235.695 16.7949 236.096 17C236.501 17.2051 236.825 17.4899 237.066 17.8545C237.312 18.2145 237.488 18.6406 237.593 19.1328C237.698 19.6204 237.75 20.1514 237.75 20.7256H232.657C232.657 21.0765 232.721 21.3978 232.849 21.6895C232.976 21.9811 233.147 22.2318 233.361 22.4414C233.58 22.651 233.831 22.8151 234.113 22.9336C234.4 23.0475 234.699 23.1045 235.009 23.1045C235.232 23.1045 235.455 23.0794 235.679 23.0293C235.907 22.9792 236.118 22.9176 236.314 22.8447C236.515 22.7718 236.693 22.6943 236.848 22.6123C237.007 22.5303 237.128 22.4551 237.21 22.3867V23.7061ZM240.45 20.4043C240.446 20.5911 240.457 20.7871 240.484 20.9922C240.516 21.1973 240.566 21.4001 240.635 21.6006C240.703 21.8011 240.79 21.9925 240.895 22.1748C241.004 22.3571 241.132 22.5166 241.277 22.6533C241.428 22.79 241.596 22.8994 241.783 22.9814C241.975 23.0635 242.189 23.1045 242.426 23.1045C242.799 23.1045 243.118 23.0225 243.383 22.8584C243.647 22.6898 243.864 22.4779 244.032 22.2227C244.201 21.9629 244.324 21.6758 244.401 21.3613C244.483 21.0469 244.524 20.7415 244.524 20.4453C244.524 20.1081 244.481 19.7799 244.395 19.4609C244.308 19.1374 244.176 18.8503 243.998 18.5996C243.825 18.3444 243.606 18.1416 243.342 17.9912C243.077 17.8363 242.768 17.7588 242.412 17.7588C242.057 17.7588 241.751 17.8363 241.496 17.9912C241.245 18.1416 241.04 18.3421 240.881 18.5928C240.726 18.8389 240.612 19.1214 240.539 19.4404C240.471 19.7549 240.441 20.0762 240.45 20.4043ZM244.579 22.9951H244.552C244.47 23.1273 244.354 23.2617 244.203 23.3984C244.057 23.5352 243.882 23.6628 243.677 23.7812C243.472 23.8952 243.239 23.9886 242.979 24.0615C242.72 24.1344 242.433 24.1709 242.118 24.1709C241.576 24.1709 241.111 24.0615 240.724 23.8428C240.336 23.6195 240.017 23.3278 239.767 22.9678C239.521 22.6032 239.338 22.1908 239.22 21.7305C239.106 21.2656 239.049 20.7894 239.049 20.3018C239.049 19.8232 239.11 19.3675 239.233 18.9346C239.361 18.4971 239.552 18.112 239.808 17.7793C240.067 17.4466 240.389 17.1823 240.771 16.9863C241.159 16.7904 241.612 16.6924 242.132 16.6924C242.752 16.6924 243.251 16.8018 243.629 17.0205C244.003 17.2393 244.292 17.5127 244.497 17.8408H244.524V13.5H245.837V24H244.579V22.9951ZM257.369 20.4043C257.378 20.0853 257.346 19.7686 257.273 19.4541C257.205 19.1351 257.091 18.8503 256.932 18.5996C256.777 18.349 256.574 18.1462 256.323 17.9912C256.073 17.8363 255.77 17.7588 255.414 17.7588C255.054 17.7588 254.742 17.8363 254.478 17.9912C254.213 18.1416 253.992 18.3444 253.814 18.5996C253.641 18.8503 253.511 19.1374 253.425 19.4609C253.338 19.7799 253.295 20.1081 253.295 20.4453C253.295 20.7415 253.334 21.0469 253.411 21.3613C253.493 21.6758 253.618 21.9629 253.787 22.2227C253.956 22.4779 254.172 22.6898 254.437 22.8584C254.705 23.0225 255.027 23.1045 255.4 23.1045C255.751 23.1045 256.052 23.0179 256.303 22.8447C256.553 22.667 256.758 22.4437 256.918 22.1748C257.082 21.9059 257.198 21.6143 257.267 21.2998C257.34 20.9854 257.374 20.6868 257.369 20.4043ZM251.982 13.5H253.295V17.8408H253.322C253.532 17.5173 253.821 17.2438 254.19 17.0205C254.564 16.8018 255.065 16.6924 255.694 16.6924C256.209 16.6924 256.658 16.7904 257.041 16.9863C257.428 17.1823 257.75 17.4466 258.005 17.7793C258.26 18.112 258.451 18.4971 258.579 18.9346C258.707 19.3675 258.771 19.8232 258.771 20.3018C258.771 20.7985 258.711 21.2793 258.593 21.7441C258.479 22.2044 258.297 22.6146 258.046 22.9746C257.8 23.3346 257.483 23.624 257.096 23.8428C256.708 24.057 256.246 24.1663 255.708 24.1709C255.384 24.1709 255.093 24.1322 254.833 24.0547C254.573 23.9818 254.341 23.8883 254.136 23.7744C253.935 23.6605 253.762 23.5352 253.616 23.3984C253.47 23.2572 253.354 23.1227 253.268 22.9951H253.24V24H251.982V13.5ZM260.008 25.9346C260.09 25.9619 260.186 25.987 260.295 26.0098C260.404 26.0326 260.514 26.0439 260.623 26.0439C260.915 26.0439 261.161 25.9574 261.361 25.7842C261.566 25.611 261.728 25.4196 261.847 25.21C261.974 25.0003 262.063 24.8021 262.113 24.6152C262.168 24.4329 262.195 24.3213 262.195 24.2803C262.195 24.2165 262.163 24.1025 262.1 23.9385L261.942 23.5215L259.516 16.8633H260.958L262.879 22.7695H262.906L264.868 16.8633H266.194L263.562 24.1572C263.444 24.499 263.314 24.8454 263.173 25.1963C263.036 25.5472 262.865 25.8639 262.66 26.1465C262.455 26.4336 262.204 26.666 261.908 26.8438C261.612 27.0215 261.25 27.1104 260.821 27.1104C260.607 27.1104 260.434 27.0967 260.302 27.0693C260.17 27.0465 260.044 27.026 259.926 27.0078L260.008 25.9346ZM185.681 36.7012C185.507 36.6328 185.348 36.5736 185.202 36.5234C185.056 36.4733 184.913 36.4323 184.771 36.4004C184.635 36.3639 184.491 36.3366 184.341 36.3184C184.195 36.3001 184.031 36.291 183.849 36.291C183.653 36.291 183.452 36.3115 183.247 36.3525C183.047 36.3936 182.864 36.4642 182.7 36.5645C182.536 36.6647 182.402 36.7992 182.297 36.9678C182.192 37.1364 182.14 37.346 182.14 37.5967C182.14 37.9157 182.242 38.1732 182.447 38.3691C182.652 38.5742 182.912 38.7611 183.227 38.9297C183.541 39.0938 183.878 39.2578 184.238 39.4219C184.503 39.5495 184.76 39.6953 185.011 39.8594C185.266 40.0189 185.492 40.2103 185.688 40.4336C185.888 40.6569 186.048 40.9167 186.166 41.2129C186.285 41.5091 186.344 41.8577 186.344 42.2588C186.344 42.7783 186.248 43.2227 186.057 43.5918C185.87 43.9609 185.612 44.2617 185.284 44.4941C184.961 44.7266 184.582 44.8975 184.149 45.0068C183.716 45.1162 183.258 45.1709 182.775 45.1709C182.429 45.1709 182.09 45.1276 181.757 45.041C181.429 44.959 181.101 44.8656 180.772 44.7607L180.909 43.4619C181.032 43.5075 181.171 43.5576 181.326 43.6123C181.486 43.667 181.654 43.7194 181.832 43.7695C182.01 43.8151 182.192 43.8538 182.379 43.8857C182.57 43.9176 182.757 43.9336 182.939 43.9336C183.135 43.9336 183.345 43.904 183.568 43.8447C183.796 43.7855 184.006 43.6921 184.197 43.5645C184.389 43.4368 184.546 43.2728 184.669 43.0723C184.797 42.8717 184.86 42.6279 184.86 42.3408C184.86 42.0674 184.801 41.835 184.683 41.6436C184.564 41.4476 184.405 41.2767 184.204 41.1309C184.008 40.9805 183.783 40.846 183.527 40.7275C183.277 40.6045 183.019 40.4814 182.755 40.3584C182.495 40.2308 182.238 40.0941 181.982 39.9482C181.732 39.7979 181.506 39.6224 181.306 39.4219C181.11 39.2168 180.952 38.9775 180.834 38.7041C180.715 38.4261 180.656 38.098 180.656 37.7197C180.656 37.2913 180.736 36.9108 180.896 36.5781C181.06 36.2454 181.283 35.9674 181.565 35.7441C181.853 35.5208 182.185 35.3522 182.563 35.2383C182.946 35.1198 183.356 35.0605 183.794 35.0605C184.122 35.0605 184.466 35.0879 184.826 35.1426C185.186 35.1973 185.537 35.2861 185.879 35.4092L185.681 36.7012ZM192.359 41.5957C192.223 41.5957 192.084 41.5911 191.942 41.582C191.801 41.5729 191.662 41.5684 191.525 41.5684C191.434 41.5684 191.332 41.5729 191.218 41.582C191.104 41.5866 190.976 41.5934 190.835 41.6025C190.562 41.6208 190.288 41.68 190.015 41.7803C189.75 41.8669 189.522 42.0036 189.331 42.1904C189.14 42.3773 189.044 42.6279 189.044 42.9424C189.044 43.1292 189.085 43.2956 189.167 43.4414C189.249 43.5827 189.354 43.7035 189.481 43.8037C189.614 43.8994 189.757 43.9746 189.912 44.0293C190.072 44.0794 190.227 44.1045 190.377 44.1045C191.029 44.1045 191.521 43.9245 191.854 43.5645C192.191 43.1999 192.359 42.7533 192.359 42.2246V41.5957ZM188.456 38.3623C188.784 38.1663 189.144 38.0068 189.536 37.8838C189.928 37.7562 190.352 37.6924 190.808 37.6924C191.833 37.6924 192.567 37.9408 193.009 38.4375C193.455 38.9342 193.679 39.6702 193.679 40.6455V43.5986C193.679 44.0088 193.683 44.3187 193.692 44.5283C193.701 44.738 193.715 44.8952 193.733 45H192.503V44.0771H192.476C192.398 44.1865 192.296 44.305 192.168 44.4326C192.04 44.5602 191.883 44.6787 191.696 44.7881C191.514 44.8975 191.302 44.9886 191.061 45.0615C190.824 45.1344 190.557 45.1709 190.261 45.1709C189.878 45.1709 189.525 45.1276 189.201 45.041C188.882 44.959 188.606 44.8268 188.374 44.6445C188.142 44.4622 187.962 44.2321 187.834 43.9541C187.706 43.6715 187.643 43.3343 187.643 42.9424C187.643 42.7191 187.67 42.514 187.725 42.3271C187.784 42.1403 187.864 41.9717 187.964 41.8213C188.069 41.6709 188.192 41.5365 188.333 41.418C188.474 41.2995 188.627 41.1947 188.791 41.1035C189.119 40.9212 189.479 40.7913 189.871 40.7139C190.258 40.6318 190.623 40.5908 190.965 40.5908H191.662C191.767 40.5908 191.876 40.5931 191.99 40.5977C192.104 40.6022 192.227 40.609 192.359 40.6182C192.359 40.0029 192.232 39.5404 191.977 39.2305C191.721 38.916 191.261 38.7588 190.596 38.7588C190.222 38.7588 189.851 38.8249 189.481 38.957C189.117 39.0846 188.798 39.2601 188.524 39.4834L188.456 38.3623ZM202.224 45H200.952V43.8652H200.925C200.724 44.2799 200.412 44.6012 199.988 44.8291C199.555 45.057 199.088 45.1709 198.587 45.1709C197.666 45.1709 196.99 44.8997 196.557 44.3574C196.128 43.8197 195.914 43.0677 195.914 42.1016V37.8633H197.227V41.5547C197.227 42.3932 197.334 43.0199 197.548 43.4346C197.767 43.8493 198.165 44.0726 198.744 44.1045C199.118 44.1045 199.441 44.0339 199.715 43.8926C199.988 43.7467 200.214 43.5439 200.392 43.2842C200.569 43.0244 200.699 42.7145 200.781 42.3545C200.868 41.9945 200.911 41.598 200.911 41.165V37.8633H202.224V45ZM205.396 41.4043C205.391 41.5911 205.402 41.7871 205.43 41.9922C205.462 42.1973 205.512 42.4001 205.58 42.6006C205.648 42.8011 205.735 42.9925 205.84 43.1748C205.949 43.3571 206.077 43.5166 206.223 43.6533C206.373 43.79 206.542 43.8994 206.729 43.9814C206.92 44.0635 207.134 44.1045 207.371 44.1045C207.745 44.1045 208.064 44.0225 208.328 43.8584C208.592 43.6898 208.809 43.4779 208.978 43.2227C209.146 42.9629 209.269 42.6758 209.347 42.3613C209.429 42.0469 209.47 41.7415 209.47 41.4453C209.47 41.1081 209.426 40.7799 209.34 40.4609C209.253 40.1374 209.121 39.8503 208.943 39.5996C208.77 39.3444 208.551 39.1416 208.287 38.9912C208.023 38.8363 207.713 38.7588 207.357 38.7588C207.002 38.7588 206.697 38.8363 206.441 38.9912C206.191 39.1416 205.986 39.3421 205.826 39.5928C205.671 39.8389 205.557 40.1214 205.484 40.4404C205.416 40.7549 205.386 41.0762 205.396 41.4043ZM209.524 43.9951H209.497C209.415 44.1273 209.299 44.2617 209.148 44.3984C209.003 44.5352 208.827 44.6628 208.622 44.7812C208.417 44.8952 208.185 44.9886 207.925 45.0615C207.665 45.1344 207.378 45.1709 207.063 45.1709C206.521 45.1709 206.056 45.0615 205.669 44.8428C205.282 44.6195 204.963 44.3278 204.712 43.9678C204.466 43.6032 204.284 43.1908 204.165 42.7305C204.051 42.2656 203.994 41.7894 203.994 41.3018C203.994 40.8232 204.056 40.3675 204.179 39.9346C204.306 39.4971 204.498 39.112 204.753 38.7793C205.013 38.4466 205.334 38.1823 205.717 37.9863C206.104 37.7904 206.558 37.6924 207.077 37.6924C207.697 37.6924 208.196 37.8018 208.574 38.0205C208.948 38.2393 209.237 38.5127 209.442 38.8408H209.47V34.5H210.782V45H209.524V43.9951ZM214.597 36.2637H213.113V34.7803H214.597V36.2637ZM213.195 37.8633H214.515V45H213.195V37.8633ZM227.694 36.8379C227.075 36.4733 226.402 36.291 225.678 36.291C225.117 36.291 224.607 36.3867 224.146 36.5781C223.686 36.7695 223.292 37.0361 222.964 37.3779C222.636 37.7152 222.381 38.1185 222.198 38.5879C222.021 39.0527 221.932 39.5609 221.932 40.1123C221.932 40.6865 222.027 41.2106 222.219 41.6846C222.415 42.154 222.679 42.555 223.012 42.8877C223.344 43.2204 223.734 43.4779 224.181 43.6602C224.627 43.8424 225.104 43.9336 225.609 43.9336C225.783 43.9336 225.967 43.9245 226.163 43.9062C226.364 43.8835 226.56 43.8516 226.751 43.8105C226.942 43.7695 227.125 43.7194 227.298 43.6602C227.471 43.6009 227.619 43.5348 227.742 43.4619L227.824 44.8154C227.633 44.8929 227.439 44.9567 227.243 45.0068C227.052 45.057 226.854 45.0911 226.648 45.1094C226.238 45.1504 225.887 45.1709 225.596 45.1709C224.821 45.1709 224.117 45.0524 223.483 44.8154C222.85 44.5739 222.308 44.2321 221.856 43.79C221.41 43.3434 221.063 42.8079 220.817 42.1836C220.571 41.5547 220.448 40.8506 220.448 40.0713C220.448 39.3148 220.576 38.6289 220.831 38.0137C221.091 37.3984 221.449 36.8721 221.904 36.4346C222.365 35.9971 222.909 35.6598 223.538 35.4229C224.172 35.1813 224.862 35.0605 225.609 35.0605C225.997 35.0605 226.37 35.0924 226.73 35.1562C227.095 35.2155 227.455 35.3226 227.811 35.4775L227.694 36.8379ZM234.004 40.7412C234.004 40.4678 233.963 40.2126 233.881 39.9756C233.803 39.734 233.689 39.5244 233.539 39.3467C233.389 39.1644 233.202 39.0208 232.979 38.916C232.76 38.8112 232.509 38.7588 232.227 38.7588C231.898 38.7588 231.618 38.8203 231.386 38.9434C231.158 39.0618 230.969 39.2168 230.818 39.4082C230.668 39.5996 230.552 39.8138 230.47 40.0508C230.388 40.2832 230.333 40.5133 230.306 40.7412H234.004ZM234.858 44.7061C234.726 44.7516 234.59 44.8018 234.448 44.8564C234.312 44.9066 234.154 44.9544 233.977 45C233.799 45.0501 233.598 45.0911 233.375 45.123C233.152 45.1549 232.894 45.1709 232.603 45.1709C231.974 45.1709 231.427 45.0775 230.962 44.8906C230.497 44.7038 230.112 44.4417 229.807 44.1045C229.501 43.7673 229.273 43.3617 229.123 42.8877C228.977 42.4092 228.904 41.8805 228.904 41.3018C228.904 40.7777 228.984 40.2946 229.144 39.8525C229.303 39.4105 229.529 39.0299 229.82 38.7109C230.117 38.3874 230.47 38.1367 230.88 37.959C231.29 37.7812 231.748 37.6924 232.254 37.6924C232.846 37.6924 233.343 37.7949 233.744 38C234.15 38.2051 234.473 38.4899 234.715 38.8545C234.961 39.2145 235.136 39.6406 235.241 40.1328C235.346 40.6204 235.398 41.1514 235.398 41.7256H230.306C230.306 42.0765 230.369 42.3978 230.497 42.6895C230.625 42.9811 230.796 43.2318 231.01 43.4414C231.229 43.651 231.479 43.8151 231.762 43.9336C232.049 44.0475 232.347 44.1045 232.657 44.1045C232.881 44.1045 233.104 44.0794 233.327 44.0293C233.555 43.9792 233.767 43.9176 233.963 43.8447C234.163 43.7718 234.341 43.6943 234.496 43.6123C234.656 43.5303 234.776 43.4551 234.858 43.3867V44.7061ZM237.176 37.8633H238.447V38.9912H238.475C238.675 38.5765 238.987 38.2575 239.411 38.0342C239.844 37.8063 240.311 37.6924 240.812 37.6924C241.733 37.6924 242.41 37.9635 242.843 38.5059C243.271 39.0436 243.485 39.7933 243.485 40.7549V45H242.173V41.3018C242.173 40.4678 242.066 39.8434 241.852 39.4287C241.637 39.014 241.241 38.7907 240.662 38.7588C240.284 38.7588 239.958 38.8317 239.685 38.9775C239.411 39.1188 239.186 39.3193 239.008 39.5791C238.83 39.8389 238.698 40.1488 238.611 40.5088C238.529 40.8688 238.488 41.2653 238.488 41.6982V45H237.176V37.8633ZM249.528 38.9229H247.635V42.833C247.635 43.2568 247.744 43.5736 247.963 43.7832C248.191 43.9974 248.451 44.1045 248.742 44.1045C248.947 44.1045 249.123 44.0794 249.269 44.0293C249.414 43.9746 249.537 43.9154 249.638 43.8516V44.9727C249.487 45.0182 249.316 45.0615 249.125 45.1025C248.938 45.1481 248.735 45.1709 248.517 45.1709C247.833 45.1709 247.298 45.0046 246.91 44.6719C246.518 44.3346 246.322 43.8083 246.322 43.0928V38.9229H244.709V37.8633H246.322V36.209L247.635 35.7852V37.8633H249.528V38.9229ZM251.189 37.8633H252.42V38.9639H252.447C252.62 38.5947 252.88 38.2894 253.227 38.0479C253.564 37.8109 253.926 37.6924 254.313 37.6924C254.509 37.6924 254.667 37.7015 254.785 37.7197C254.908 37.738 255.04 37.7607 255.182 37.7881V38.9639C255.059 38.9183 254.933 38.8864 254.806 38.8682C254.683 38.8499 254.564 38.8408 254.45 38.8408C253.862 38.8408 253.391 39.1029 253.035 39.627C252.68 40.1465 252.502 40.8551 252.502 41.7529V45H251.189V37.8633ZM260.883 41.5957C260.746 41.5957 260.607 41.5911 260.466 41.582C260.325 41.5729 260.186 41.5684 260.049 41.5684C259.958 41.5684 259.855 41.5729 259.741 41.582C259.627 41.5866 259.5 41.5934 259.358 41.6025C259.085 41.6208 258.812 41.68 258.538 41.7803C258.274 41.8669 258.046 42.0036 257.854 42.1904C257.663 42.3773 257.567 42.6279 257.567 42.9424C257.567 43.1292 257.608 43.2956 257.69 43.4414C257.772 43.5827 257.877 43.7035 258.005 43.8037C258.137 43.8994 258.281 43.9746 258.436 44.0293C258.595 44.0794 258.75 44.1045 258.9 44.1045C259.552 44.1045 260.044 43.9245 260.377 43.5645C260.714 43.1999 260.883 42.7533 260.883 42.2246V41.5957ZM256.979 38.3623C257.308 38.1663 257.668 38.0068 258.06 37.8838C258.451 37.7562 258.875 37.6924 259.331 37.6924C260.356 37.6924 261.09 37.9408 261.532 38.4375C261.979 38.9342 262.202 39.6702 262.202 40.6455V43.5986C262.202 44.0088 262.207 44.3187 262.216 44.5283C262.225 44.738 262.239 44.8952 262.257 45H261.026V44.0771H260.999C260.922 44.1865 260.819 44.305 260.691 44.4326C260.564 44.5602 260.407 44.6787 260.22 44.7881C260.037 44.8975 259.826 44.9886 259.584 45.0615C259.347 45.1344 259.08 45.1709 258.784 45.1709C258.401 45.1709 258.048 45.1276 257.725 45.041C257.406 44.959 257.13 44.8268 256.897 44.6445C256.665 44.4622 256.485 44.2321 256.357 43.9541C256.23 43.6715 256.166 43.3343 256.166 42.9424C256.166 42.7191 256.193 42.514 256.248 42.3271C256.307 42.1403 256.387 41.9717 256.487 41.8213C256.592 41.6709 256.715 41.5365 256.856 41.418C256.998 41.2995 257.15 41.1947 257.314 41.1035C257.643 40.9212 258.003 40.7913 258.395 40.7139C258.782 40.6318 259.146 40.5908 259.488 40.5908H260.186C260.29 40.5908 260.4 40.5931 260.514 40.5977C260.628 40.6022 260.751 40.609 260.883 40.6182C260.883 40.0029 260.755 39.5404 260.5 39.2305C260.245 38.916 259.785 38.7588 259.119 38.7588C258.745 38.7588 258.374 38.8249 258.005 38.957C257.64 39.0846 257.321 39.2601 257.048 39.4834L256.979 38.3623ZM264.602 34.5H265.921V45H264.602V34.5ZM273.673 39.4014H274.438C274.776 39.4014 275.095 39.3877 275.396 39.3604C275.701 39.3285 275.967 39.2601 276.195 39.1553C276.428 39.0505 276.61 38.8932 276.742 38.6836C276.879 38.474 276.947 38.1891 276.947 37.8291C276.947 37.542 276.89 37.305 276.776 37.1182C276.667 36.9313 276.523 36.7832 276.346 36.6738C276.173 36.5599 275.979 36.4824 275.765 36.4414C275.55 36.3958 275.343 36.373 275.143 36.373H273.673V39.4014ZM273.673 43.8516H274.719C275.038 43.8516 275.341 43.8311 275.628 43.79C275.92 43.7445 276.175 43.6647 276.394 43.5508C276.617 43.4323 276.792 43.2705 276.92 43.0654C277.052 42.8604 277.118 42.596 277.118 42.2725C277.118 41.8942 277.043 41.5911 276.893 41.3633C276.742 41.1354 276.544 40.9622 276.298 40.8438C276.056 40.7207 275.785 40.641 275.484 40.6045C275.184 40.568 274.883 40.5498 274.582 40.5498H273.673V43.8516ZM272.271 35.2246H274.917C275.423 35.2246 275.885 35.2702 276.305 35.3613C276.729 35.4479 277.091 35.5892 277.392 35.7852C277.697 35.9811 277.932 36.2363 278.096 36.5508C278.264 36.8652 278.349 37.2458 278.349 37.6924C278.349 38.3577 278.166 38.8727 277.802 39.2373C277.442 39.5973 276.952 39.8571 276.332 40.0166V40.0439C276.665 40.0713 276.97 40.1442 277.248 40.2627C277.526 40.3812 277.765 40.543 277.966 40.748C278.166 40.9486 278.321 41.1878 278.431 41.4658C278.545 41.7438 278.602 42.0537 278.602 42.3955C278.602 42.9196 278.501 43.3503 278.301 43.6875C278.1 44.0247 277.829 44.2913 277.487 44.4873C277.146 44.6787 276.749 44.8132 276.298 44.8906C275.847 44.9635 275.373 45 274.876 45H272.271V35.2246ZM285.027 41.5957C284.891 41.5957 284.752 41.5911 284.61 41.582C284.469 41.5729 284.33 41.5684 284.193 41.5684C284.102 41.5684 284 41.5729 283.886 41.582C283.772 41.5866 283.644 41.5934 283.503 41.6025C283.229 41.6208 282.956 41.68 282.683 41.7803C282.418 41.8669 282.19 42.0036 281.999 42.1904C281.808 42.3773 281.712 42.6279 281.712 42.9424C281.712 43.1292 281.753 43.2956 281.835 43.4414C281.917 43.5827 282.022 43.7035 282.149 43.8037C282.282 43.8994 282.425 43.9746 282.58 44.0293C282.74 44.0794 282.895 44.1045 283.045 44.1045C283.697 44.1045 284.189 43.9245 284.521 43.5645C284.859 43.1999 285.027 42.7533 285.027 42.2246V41.5957ZM281.124 38.3623C281.452 38.1663 281.812 38.0068 282.204 37.8838C282.596 37.7562 283.02 37.6924 283.476 37.6924C284.501 37.6924 285.235 37.9408 285.677 38.4375C286.123 38.9342 286.347 39.6702 286.347 40.6455V43.5986C286.347 44.0088 286.351 44.3187 286.36 44.5283C286.369 44.738 286.383 44.8952 286.401 45H285.171V44.0771H285.144C285.066 44.1865 284.964 44.305 284.836 44.4326C284.708 44.5602 284.551 44.6787 284.364 44.7881C284.182 44.8975 283.97 44.9886 283.729 45.0615C283.492 45.1344 283.225 45.1709 282.929 45.1709C282.546 45.1709 282.193 45.1276 281.869 45.041C281.55 44.959 281.274 44.8268 281.042 44.6445C280.81 44.4622 280.63 44.2321 280.502 43.9541C280.374 43.6715 280.311 43.3343 280.311 42.9424C280.311 42.7191 280.338 42.514 280.393 42.3271C280.452 42.1403 280.532 41.9717 280.632 41.8213C280.737 41.6709 280.86 41.5365 281.001 41.418C281.142 41.2995 281.295 41.1947 281.459 41.1035C281.787 40.9212 282.147 40.7913 282.539 40.7139C282.926 40.6318 283.291 40.5908 283.633 40.5908H284.33C284.435 40.5908 284.544 40.5931 284.658 40.5977C284.772 40.6022 284.895 40.609 285.027 40.6182C285.027 40.0029 284.9 39.5404 284.645 39.2305C284.389 38.916 283.929 38.7588 283.264 38.7588C282.89 38.7588 282.519 38.8249 282.149 38.957C281.785 39.0846 281.466 39.2601 281.192 39.4834L281.124 38.3623ZM288.582 37.8633H289.854V38.9912H289.881C290.081 38.5765 290.394 38.2575 290.817 38.0342C291.25 37.8063 291.717 37.6924 292.219 37.6924C293.139 37.6924 293.816 37.9635 294.249 38.5059C294.677 39.0436 294.892 39.7933 294.892 40.7549V45H293.579V41.3018C293.579 40.4678 293.472 39.8434 293.258 39.4287C293.044 39.014 292.647 38.7907 292.068 38.7588C291.69 38.7588 291.364 38.8317 291.091 38.9775C290.817 39.1188 290.592 39.3193 290.414 39.5791C290.236 39.8389 290.104 40.1488 290.018 40.5088C289.936 40.8688 289.895 41.2653 289.895 41.6982V45H288.582V37.8633ZM297.141 34.5H298.453V40.7549L301.324 37.8633H303.115L299.8 41.0215L303.539 45H301.646L298.453 41.3291V45H297.141V34.5Z" fill="#A0A0A0"/>
<g clip-path="url(#clip0_5974_15436)">
<path d="M134.032 26.9578L122.988 37.461L122.973 49.9156L134.017 39.5452L134.032 26.9578Z" fill="#63BB47"/>
<path d="M145.098 4L134.049 14.5032L134.033 26.9579L145.077 16.5824L145.098 4Z" fill="#63BB47"/>
<path d="M160.649 6.12012H163.001V22.6361L133.986 52.0205V39.5607L160.405 12.7153C161.26 11.8086 161.735 10.6171 161.737 9.37938C161.825 7.14183 161.296 6.75358 160.649 6.14055" fill="#63BB47"/>
<path d="M5.09731 12.4547H0V9.0166H14.5149V12.4547H9.36061V27.1213H5.09731V12.4547Z" fill="#8C9197"/>
<path d="M19.7208 22.4776L18.3791 27.1213H13.9863L19.7208 9.0166H25.3258L31.2105 27.1213H26.5846L25.1341 22.4776H19.7208ZM24.5125 19.4125L23.3366 15.576C22.9999 14.4981 22.6683 13.1596 22.3886 12.0868H22.3316C22.0467 13.1596 21.767 14.5287 21.4613 15.576L20.3372 19.4125H24.5125Z" fill="#8C9197"/>
<path d="M34.4074 22.9018C35.88 23.623 37.498 24.0089 39.1421 24.0308C41.1002 24.0308 42.1414 23.2543 42.1414 22.0742C42.1414 20.8941 41.2452 20.2964 38.9763 19.5199C35.8319 18.4522 33.7599 16.7817 33.7599 14.1508C33.7599 11.0601 36.4743 8.72041 40.9085 8.72041C42.5629 8.67355 44.2075 8.98572 45.7261 9.63485L44.773 12.9401C43.5482 12.3659 42.2076 12.0725 40.8515 12.0818C39.0022 12.0818 38.106 12.9094 38.106 13.8239C38.106 14.9784 39.1421 15.4944 41.6079 16.3781C44.9439 17.5633 46.4824 19.2338 46.4824 21.783C46.4824 24.8175 44.0736 27.4024 38.8883 27.4024C37.0424 27.4153 35.216 27.0299 33.5371 26.2734L34.4074 22.9018Z" fill="#8C9197"/>
<path d="M54.1071 8.53638C53.2843 11.0731 52.1629 13.5061 50.7659 15.7854L48.1758 16.0255C49.0405 13.6701 49.6939 11.2445 50.1287 8.77648L54.1071 8.53638Z" fill="#8C9197"/>
<path d="M61.137 9.0166V15.9745H68.1665V9.0166H72.4299V27.1213H68.1665V19.5453H61.137V27.1213H56.8789V9.0166H61.137Z" fill="#8C9197"/>
<path d="M87.9489 19.4636H81.0023V23.765H88.7622V27.1213H76.7441V9.0166H88.3685V12.3729H81.0023V16.1328H87.9489V19.4636Z" fill="#8C9197"/>
<path d="M103.474 19.4636H96.5225V23.765H104.288V27.1213H92.2695V9.0166H103.889V12.3729H96.5225V16.1328H103.474V19.4636Z" fill="#8C9197"/>
<path d="M107.789 9.0166H112.047V23.6833H119.553V27.1213H107.789V9.0166Z" fill="#8C9197"/>
<path d="M51.9054 39.2797V49.4968H49.0719V39.2797H47.6836V37.5479H49.0719V36.1022C49.0357 35.5213 49.1328 34.9399 49.3562 34.4012C49.5795 33.8625 49.9232 33.3805 50.3618 32.991C51.2217 32.2656 52.4338 31.9693 53.9464 32.0817V33.8135C53.4207 33.8042 52.9055 33.9598 52.4753 34.258C52.0919 34.5389 51.9054 35.0651 51.9054 35.8365V37.5479H53.9464V39.2797H51.9054Z" fill="#63BB47"/>
<path d="M59.1161 34.1404C59.1181 34.3195 59.0797 34.4968 59.0035 34.6594C58.9273 34.822 58.8154 34.9658 58.6758 35.0804C58.3634 35.3314 57.9728 35.4685 57.5698 35.4685C57.1669 35.4685 56.7763 35.3314 56.4639 35.0804C56.3206 34.9681 56.2051 34.8251 56.1261 34.6622C56.0471 34.4994 56.0067 34.321 56.008 34.1404C56.0047 33.9552 56.044 33.7716 56.1229 33.6035C56.2019 33.4354 56.3185 33.2871 56.4639 33.1698C56.7763 32.9188 57.1669 32.7817 57.5698 32.7817C57.9728 32.7817 58.3634 32.9188 58.6758 33.1698C58.8172 33.2896 58.9301 33.4387 59.0062 33.6065C59.0823 33.7743 59.1198 33.9566 59.1161 34.1404ZM56.1479 49.5172V37.5478H58.9763V49.5172H56.1479Z" fill="#63BB47"/>
<path d="M69.1142 49.5174V41.0525C69.1154 40.8087 69.0805 40.566 69.0106 40.3322C68.9461 40.0922 68.8234 39.8713 68.6531 39.6885C68.4615 39.4897 68.2281 39.3345 67.9694 39.2338C67.6168 39.1044 67.242 39.0436 66.866 39.055C66.4891 39.0473 66.1123 39.0781 65.7419 39.147C65.4607 39.2029 65.1851 39.2833 64.9182 39.3871V49.5174H62.0898V38.1917C62.7516 37.8977 63.4475 37.685 64.1619 37.5582C65.0861 37.3901 66.0247 37.3114 66.9644 37.3232C67.7576 37.3057 68.5489 37.4073 69.311 37.6246C69.8719 37.7857 70.3924 38.0606 70.8392 38.4318C71.2091 38.7494 71.4953 39.1509 71.6732 39.6016C71.8461 40.0432 71.9339 40.5127 71.9322 40.9861V49.5174H69.1142Z" fill="#63BB47"/>
<path d="M82.0809 49.4918C81.2183 49.6639 80.3398 49.7461 79.4597 49.737C77.733 49.737 76.4535 49.4186 75.6212 48.7817C75.2061 48.4678 74.8743 48.0594 74.6541 47.5914C74.434 47.1235 74.3321 46.6099 74.3572 46.0946C74.332 45.3976 74.5275 44.7101 74.9167 44.1278C75.3062 43.5808 75.8232 43.134 76.4241 42.8251C77.1222 42.4705 77.8665 42.2127 78.6361 42.0588C79.5295 41.8779 80.4322 41.7449 81.3402 41.6604V41.032C81.3505 40.7006 81.2868 40.371 81.1537 40.0665C81.0407 39.8195 80.8616 39.6076 80.6356 39.4535C80.4013 39.2987 80.1366 39.1942 79.8586 39.1469C79.5175 39.0809 79.1702 39.0501 78.8226 39.055C78.2375 39.0517 77.6549 39.1309 77.0924 39.29C76.6114 39.4231 76.142 39.5939 75.6886 39.8008L75.041 38.2683C75.5927 38.0261 76.1625 37.8262 76.7453 37.6706C77.5897 37.4482 78.4615 37.3433 79.3354 37.359C79.9445 37.3554 80.5517 37.4257 81.1433 37.5684C81.6831 37.6839 82.1928 37.9083 82.6404 38.2274C83.0697 38.5671 83.4077 39.0057 83.6246 39.5045C83.8822 40.1212 84.0058 40.7842 83.9872 41.4509V48.8736C83.3814 49.1596 82.7406 49.3674 82.0809 49.4918ZM81.3298 42.963C80.725 43.028 80.1248 43.1286 79.5323 43.2644C79.0565 43.367 78.5991 43.5392 78.1751 43.7753C77.8171 43.9866 77.5209 44.2859 77.3151 44.6438C77.1013 45.063 76.998 45.5285 77.0147 45.9975C76.984 46.3154 77.0305 46.636 77.1503 46.9327C77.2701 47.2293 77.4598 47.4937 77.7037 47.7038C78.2745 48.0805 78.9558 48.2601 79.6411 48.2146C79.9524 48.2178 80.2632 48.1887 80.5683 48.1278C80.834 48.0809 81.0919 47.9984 81.335 47.8826L81.3298 42.963Z" fill="#63BB47"/>
<path d="M94.031 49.5173V41.0524C94.0304 40.8084 93.9937 40.5657 93.9222 40.3321C93.8577 40.0922 93.735 39.8713 93.5647 39.6884C93.3715 39.4951 93.1383 39.3453 92.881 39.2491C92.5285 39.1191 92.1537 39.0584 91.7776 39.0703C91.4007 39.0628 91.024 39.0936 90.6535 39.1622C90.3723 39.2182 90.0967 39.2985 89.8298 39.4023V49.5173H87.0273V38.1916C87.6894 37.8983 88.3852 37.6856 89.0994 37.5581C90.0254 37.3901 90.9657 37.3114 91.9071 37.3232C92.6986 37.306 93.4881 37.4076 94.2485 37.6246C94.8186 37.7823 95.3482 38.0574 95.8026 38.4317C96.1739 38.7492 96.4619 39.1506 96.6418 39.6016C96.8017 40.0457 96.8789 40.5147 96.8697 40.986V49.5173H94.031Z" fill="#63BB47"/>
<path d="M106.193 49.4918C105.596 49.6726 104.973 49.7555 104.349 49.737C103.669 49.7458 102.995 49.6007 102.381 49.313C101.775 49.0289 101.243 48.6111 100.827 48.092C100.361 47.5112 100.009 46.8492 99.7907 46.1406C99.5339 45.2835 99.4099 44.3931 99.4229 43.4994C99.4091 42.603 99.5385 41.71 99.8062 40.8532C100.022 40.1497 100.374 39.494 100.842 38.9222C101.272 38.4166 101.809 38.0111 102.417 37.7346C103.024 37.4582 103.686 37.3177 104.354 37.3232C104.984 37.2998 105.612 37.3898 106.209 37.5888C106.582 37.7195 106.932 37.9074 107.245 38.1457L106.644 39.6782C106.441 39.5292 106.218 39.4088 105.981 39.3206C105.656 39.2096 105.314 39.1577 104.971 39.1674C104.538 39.1545 104.11 39.2588 103.733 39.4688C103.378 39.6735 103.084 39.968 102.883 40.3219C102.647 40.744 102.483 41.2013 102.396 41.6757C102.283 42.2616 102.23 42.8571 102.236 43.4535C102.181 44.5482 102.417 45.6381 102.919 46.6157C103.108 46.9768 103.397 47.2781 103.751 47.4851C104.106 47.692 104.512 47.7961 104.924 47.7855C105.26 47.7926 105.595 47.7425 105.914 47.6374C106.169 47.5484 106.407 47.4171 106.618 47.2491L107.266 48.9145C106.947 49.1704 106.584 49.3661 106.193 49.4918Z" fill="#63BB47"/>
<path d="M111.751 44.516C111.979 46.7365 113.116 47.8485 115.16 47.8519C115.789 47.8635 116.416 47.7913 117.025 47.6373C117.468 47.5252 117.9 47.373 118.315 47.1826L118.988 48.894C118.454 49.1596 117.888 49.3603 117.305 49.4917C116.502 49.6688 115.682 49.7511 114.86 49.7369C114.08 49.7763 113.301 49.6544 112.572 49.379C111.843 49.1036 111.181 48.6809 110.627 48.1379C109.591 47.0686 109.073 45.5224 109.073 43.4994C109.059 42.6154 109.185 41.7346 109.446 40.8889C109.666 40.1762 110.029 39.5144 110.513 38.9425C110.963 38.4093 111.535 37.9891 112.181 37.7165C112.883 37.4316 113.635 37.2908 114.393 37.3027C116.067 37.3027 117.331 37.8136 118.201 38.8353C119.071 39.857 119.465 41.3895 119.403 43.433L111.751 44.516ZM116.124 39.7599C115.903 39.4971 115.624 39.289 115.307 39.1523C114.99 39.0157 114.645 38.9543 114.3 38.9732C113.906 38.966 113.517 39.0556 113.167 39.2339C112.817 39.4123 112.517 39.6738 112.295 39.9949C111.791 40.676 111.555 41.7267 111.586 43.1469L116.766 42.3908C116.761 41.175 116.554 40.3014 116.124 39.7599Z" fill="#63BB47"/>
</g>
<path d="M344.999 10C342.57 10 340.213 10.4764 337.993 11.4151C335.849 12.3212 333.925 13.6191 332.272 15.2723C330.62 16.9254 329.321 18.8507 328.414 20.9932C327.476 23.2128 327 25.5701 327 27.9997C327 30.4298 327.476 32.7871 328.414 35.0062C329.321 37.1498 330.62 39.0747 332.272 40.7279C333.925 42.3805 335.849 43.6791 337.993 44.5857C340.213 45.5244 342.57 46 344.999 46C347.429 46 349.786 45.5244 352.006 44.5857C354.15 43.679 356.075 42.3804 357.728 40.7279C359.38 39.0748 360.678 37.1498 361.585 35.0062C362.524 32.787 363 30.4298 363 27.9997C363 25.5701 362.524 23.2128 361.585 20.9932C360.678 18.8506 359.38 16.9255 357.728 15.2723C356.075 13.6192 354.15 12.3214 352.006 11.4151C349.786 10.4764 347.429 10 344.999 10ZM344.999 10.4518C345.59 10.4518 346.173 10.4819 346.749 10.5381C346.635 11.4019 345.894 12.0709 344.999 12.0709C344.105 12.0709 343.364 11.4019 343.251 10.5381C343.826 10.4819 344.409 10.4518 344.999 10.4518ZM342.797 10.5891C342.894 11.3597 343.387 12.0062 344.065 12.3211C343.306 12.6741 342.779 13.4437 342.779 14.3364C342.779 15.2291 343.306 15.9974 344.065 16.3508C343.306 16.7037 342.779 17.4731 342.779 18.3652C342.779 18.3744 342.78 18.382 342.78 18.3912C338.403 19.3984 335.14 23.3177 335.14 27.9999C335.14 33.4454 339.554 37.861 345 37.861C350.445 37.861 354.86 33.4454 354.86 27.9999C354.86 23.318 351.597 19.3986 347.22 18.3912V18.3652C347.22 17.4731 346.694 16.7037 345.934 16.3508C346.694 15.9974 347.22 15.2291 347.22 14.3364C347.22 13.4437 346.694 12.6741 345.934 12.3211C346.613 12.0063 347.105 11.3597 347.202 10.5891C355.854 11.6724 362.548 19.0539 362.548 27.9998C362.548 37.6921 354.692 45.5484 344.999 45.5484C335.308 45.5484 327.451 37.6921 327.451 27.9998C327.451 19.0542 334.144 11.6726 342.797 10.5891ZM344.999 12.5714C345.972 12.5714 346.764 13.3633 346.764 14.3363C346.764 15.3088 345.972 16.1005 344.999 16.1005C344.027 16.1005 343.236 15.3088 343.236 14.3363C343.236 13.3633 344.027 12.5714 344.999 12.5714ZM340.342 13.0687C340.313 13.0778 340.284 13.0865 340.256 13.0962C338.387 13.7329 336.668 14.7257 335.176 16.0191C334.906 16.2525 334.645 16.4956 334.392 16.7478L334.639 17.3275C334.933 17.026 335.24 16.7354 335.558 16.4591C336.705 15.4642 337.996 14.6519 339.391 14.0533C339.443 14.0308 339.496 14.0078 339.549 13.9858L339.675 13.9332L339.669 14.0705C339.656 14.3202 339.487 14.58 339.298 14.753C339.504 14.9215 339.751 15.0672 339.973 15.2064C340.331 15.4313 340.904 15.7785 340.994 16.2246C341.006 16.2856 341.009 16.3471 341.004 16.4082L340.998 16.4709L340.936 16.4866C340.804 16.515 340.543 16.3564 340.434 16.2905C340.19 16.1437 339.953 15.977 339.722 15.8104C339.511 15.6578 339.302 15.5017 339.097 15.3421C338.982 15.2527 338.865 15.1618 338.753 15.0676C338.428 15.2416 338.112 15.4211 337.796 15.6112L338.212 15.9681L338.624 15.7273L339.829 16.558C340.044 16.7139 340.265 16.8614 340.482 17.013C340.709 17.1704 340.942 17.3348 341.155 17.5142L341.156 17.3989L341.157 17.3949C341.17 17.2606 341.239 17.135 341.308 17.0215C341.382 16.8999 341.462 16.7827 341.522 16.6536C341.689 16.2943 341.614 15.983 341.409 15.6558C341.131 15.2145 340.568 14.9855 340.179 14.6572L340.135 14.6204L340.151 14.567C340.208 14.3619 340.3 14.1823 340.369 13.9842C340.485 13.6554 340.453 13.3831 340.342 13.0687ZM349.619 13.0758L348.779 15.7232C348.732 15.8722 348.674 16.0331 348.548 16.1343C348.501 16.1735 348.446 16.2024 348.392 16.2308C348.349 16.2539 348.306 16.2763 348.264 16.2998C348.465 16.6913 348.649 17.0972 348.866 17.4796C349.099 16.8108 349.331 16.1408 349.534 15.4628C349.613 15.1983 349.691 14.934 349.772 14.6705C349.916 14.203 350.066 13.7365 350.218 13.2711L349.619 13.0758ZM351.004 13.5817L350.256 16.1335C350.195 16.3445 350.145 16.5543 350.091 16.7658C350.064 16.8685 350.034 16.9907 349.955 17.0662C349.883 17.1342 349.748 17.1707 349.632 17.198C349.828 17.5547 350.026 17.909 350.226 18.264C350.596 17.0035 350.967 15.7429 351.338 14.4823L351.368 14.3819L351.46 14.4298C351.706 14.5561 351.951 14.6847 352.193 14.8196C352.403 14.9374 352.609 15.0596 352.815 15.1828L352.895 15.2299L351.867 16.7015C352.213 16.7151 352.413 16.7615 352.726 16.9156C352.72 16.8701 352.715 16.8247 352.709 16.7791C352.702 16.709 352.697 16.6383 352.711 16.5681C352.735 16.4503 352.813 16.3416 352.881 16.2457C353.03 16.0385 353.183 15.8351 353.328 15.6252L353.378 15.553L353.45 15.604C353.931 15.9484 354.387 16.3227 354.837 16.7077L354.903 16.765L353.675 18.1636C353.798 18.1773 353.919 18.1999 354.04 18.2374C354.206 18.2888 354.373 18.3646 354.534 18.439C354.531 18.3998 354.527 18.3607 354.524 18.3205C354.518 18.2599 354.514 18.199 354.531 18.1401C354.558 18.0308 354.655 17.9336 354.73 17.8538C354.916 17.6546 355.103 17.4598 355.285 17.2553L355.342 17.1901L355.406 17.2482C355.722 17.5288 356.006 17.8792 356.281 18.2005L356.344 18.275L356.262 18.3299C355.718 18.6844 355.633 19.2314 356.007 19.7513C357.149 21.338 357.934 23.1516 358.304 25.0714L358.378 25.4534L358.203 25.3318C357.842 25.0814 357.427 24.8644 357.007 24.6894C357.299 24.9186 357.588 25.1508 357.872 25.3876C358.125 25.5959 358.374 25.8087 358.618 26.0261C358.752 26.1456 358.887 26.2676 359.017 26.394C358.983 26.1037 358.956 25.8117 358.913 25.5225C358.58 23.3317 357.736 21.2532 356.439 19.4558C356.24 19.1789 356.322 18.9051 356.56 18.6941L356.631 18.6305L357.053 19.2063C358.461 21.2118 359.344 23.5299 359.622 25.965C359.673 26.41 359.686 26.8412 359.415 27.1887L360.283 27.144C360.264 26.744 360.252 26.3438 360.208 25.9454C359.945 23.5849 359.137 21.3265 357.843 19.335C357.68 19.0839 357.51 18.8358 357.331 18.5953C357.026 18.184 356.698 17.7956 356.359 17.4116C356.199 17.2306 356.035 17.0511 355.865 16.8798C355.383 16.3957 354.876 15.9435 354.333 15.5274C353.973 15.2516 353.601 14.994 353.219 14.7492C352.874 14.527 352.521 14.3204 352.157 14.1303C351.78 13.9332 351.393 13.7544 351.004 13.582L351.004 13.5817ZM354.061 13.8837C353.863 13.8883 353.706 14.0525 353.71 14.2501C353.714 14.4477 353.879 14.605 354.076 14.6007C354.274 14.5962 354.431 14.4333 354.427 14.2352C354.422 14.037 354.259 13.88 354.061 13.8837ZM344.999 16.601C345.949 16.601 346.727 17.3561 346.762 18.297C346.191 18.1942 345.601 18.1401 344.999 18.1401C344.398 18.1401 343.809 18.1941 343.238 18.297C343.273 17.3561 344.05 16.601 344.999 16.601ZM333.532 17.5071C332.792 18.3826 332.136 19.2949 331.591 20.3059C331.362 20.73 331.155 21.165 330.965 21.6073C331.251 21.7813 331.581 21.9659 331.896 22.0623C332.088 22.1212 332.311 22.1572 332.501 22.0686C332.688 21.9802 332.807 21.7857 332.889 21.6042C332.95 21.4735 333.014 21.3436 333.08 21.2151C333.257 20.8708 333.453 20.5337 333.663 20.2086C333.822 19.9634 333.995 19.7119 334.182 19.487C334.233 19.4253 334.295 19.3807 334.373 19.3599C334.461 19.3368 334.553 19.3476 334.642 19.3567C334.7 19.3628 334.754 19.3676 334.81 19.3661V19.3643C334.636 19.0495 334.494 18.7282 334.402 18.3822C334.05 18.808 333.709 19.2446 333.396 19.6993C333.123 20.0945 332.875 20.5012 332.65 20.9254C332.564 21.0865 332.482 21.2486 332.402 21.4125C332.278 21.6663 331.94 21.5654 331.755 21.4454L331.691 21.4031L331.724 21.3348C332.318 20.0914 333.048 18.9562 333.947 17.9146C333.809 17.7785 333.67 17.6427 333.532 17.5067L333.532 17.5071ZM344.999 18.5911C346.27 18.5911 347.502 18.8403 348.662 19.3309C349.782 19.8048 350.789 20.4828 351.653 21.3476C352.517 22.2114 353.196 23.2179 353.669 24.3388C354.16 25.4982 354.408 26.7295 354.408 27.9996C354.408 29.2704 354.16 30.5022 353.669 31.6622C353.196 32.7825 352.517 33.789 351.653 34.6533C350.789 35.5177 349.782 36.1954 348.662 36.6693C347.502 37.1599 346.27 37.4091 344.999 37.4091C343.729 37.4091 342.497 37.1599 341.338 36.6693C340.217 36.1954 339.211 35.5177 338.347 34.6533C337.483 33.789 336.804 32.7825 336.331 31.6622C335.84 30.5023 335.592 29.2704 335.592 27.9996C335.592 26.7294 335.84 25.498 336.331 24.3388C336.804 23.218 337.483 22.2115 338.347 21.3476C339.211 20.4828 340.217 19.8048 341.338 19.3309C342.497 18.8403 343.729 18.5911 344.999 18.5911ZM353.443 18.8288C353.246 18.8334 353.088 18.9968 353.092 19.1944C353.097 19.392 353.261 19.5496 353.459 19.5458C353.656 19.5413 353.813 19.3771 353.809 19.1795C353.804 18.9819 353.641 18.8245 353.443 18.8288ZM344.916 20.8817L344.915 25.0046L341.571 25.0078L341.565 22.8703C341.392 23.0406 341.009 23.349 340.679 23.439C340.683 23.4435 340.691 23.4501 340.695 23.4531L340.884 23.6022C341.022 23.7548 340.979 23.8383 340.968 24.0948C340.396 24.134 340.069 24.548 340.069 25.1365C340.069 25.6881 340.021 25.6096 340.307 25.6064C340.945 25.5988 344.979 25.6368 345.494 25.6032L345.495 25.6023C345.535 25.3656 345.504 23.2724 345.504 22.6647C345.504 22.4001 345.46 22.0958 345.575 21.9234C345.642 21.8228 345.72 21.8229 345.783 21.7336C345.599 21.5558 345.552 21.6666 345.111 21.1193C345.067 21.0658 345.057 21.053 345.026 21.0032L344.916 20.8817ZM346.191 20.8826L346.19 25.6018L346.798 25.6065C346.861 25.2814 346.763 23.1759 346.811 22.2906C346.82 22.1278 346.883 21.9659 347.003 21.8748L347.121 21.7791C346.935 21.7058 346.704 21.5099 346.595 21.3932C346.439 21.2261 346.244 20.9233 346.191 20.8826ZM349.046 20.9438C349.035 21.8846 349.052 22.4369 349.042 23.381C349.043 23.4903 349.046 23.572 349.044 23.6336C349.043 23.7294 348.892 23.8328 348.824 23.9223C348.694 23.7793 348.595 23.6715 348.595 23.6399C348.594 23.5183 348.594 23.4651 348.594 23.199C348.594 21.7703 348.592 22.0506 348.591 20.979C348.28 21.2618 348.179 21.6308 347.717 21.8145C347.746 21.8536 347.725 21.8284 347.758 21.8608C348.066 22.1692 347.983 21.6707 347.983 22.4499L347.982 23.785C347.983 23.9633 348.161 24.1791 348.307 24.2643L348.165 24.4063C348.085 24.4855 347.994 24.5159 347.994 24.669L347.996 25.6959H349.656C349.656 25.4297 349.656 25.1637 349.656 24.8981C349.656 24.4456 349.61 24.4584 349.377 24.2195C349.653 23.9587 349.659 23.973 349.656 23.7065L349.655 22.7793C349.655 22.1779 349.549 22.0649 349.933 21.856L349.857 21.7925C349.315 21.4332 349.359 21.2169 349.046 20.9438ZM329.533 22.4765C329.156 22.8669 328.888 23.3653 329.177 23.9003C329.343 24.2082 329.655 24.4606 329.956 24.6314L330.01 24.662L329.998 24.7239C329.811 25.6889 329.718 26.6706 329.718 27.6538C329.718 31.8366 331.411 35.799 334.429 38.6924L334.472 38.734C334.6 38.856 334.731 38.9762 334.865 39.094L334.866 39.0923L334.929 39.148C335.213 39.4008 335.503 39.6408 335.807 39.8689L337.511 37.212C337.6 37.0685 337.709 36.924 337.878 36.8731C337.943 36.8538 338.013 36.8488 338.083 36.8488C338.031 36.6603 337.988 36.4657 337.944 36.2762C337.908 36.1236 337.873 35.9702 337.835 35.8181C337.823 35.7666 337.808 35.7124 337.794 35.6589C337.096 36.7444 336.393 37.8264 335.695 38.912L335.641 38.9959L335.566 38.9316C335.328 38.7292 335.097 38.5216 334.87 38.308C334.594 38.0488 334.332 37.7764 334.08 37.4953L334.018 37.4278L335.27 36.4057C335.106 36.3227 334.937 36.2163 334.792 36.121C334.718 36.0716 334.644 36.0203 334.571 35.9672C334.572 35.9886 334.574 36.0105 334.577 36.0323C334.583 36.0874 334.587 36.1448 334.568 36.1978C334.543 36.2648 334.487 36.3116 334.433 36.3539C334.333 36.4327 334.23 36.5071 334.131 36.5869C333.988 36.7005 333.849 36.8151 333.707 36.9297L333.64 36.9846L333.585 36.9172C333.254 36.5096 332.944 36.085 332.659 35.6448L332.61 35.5687L334.033 34.7129C333.816 34.5538 333.608 34.3696 333.42 34.1779C333.365 34.3643 333.211 34.5009 333.034 34.6086L332.296 35.0549L332.252 34.9781C332.012 34.562 331.794 34.1333 331.596 33.6947L331.559 33.6147L333.09 32.9534C333.061 32.9244 333.032 32.8965 333.003 32.8687C332.907 32.7793 332.814 32.6912 332.728 32.591C332.661 32.5122 332.599 32.4294 332.542 32.3431C332.539 32.3522 332.537 32.3616 332.533 32.3714C332.487 32.5042 332.37 32.586 332.254 32.6545C332.151 32.7156 332.04 32.7692 331.932 32.8201C331.761 32.8993 331.589 32.9742 331.417 33.0475L331.335 33.0828L331.302 32.9997C330.874 31.9035 330.58 30.76 330.427 29.5936L330.41 29.4657L330.535 29.4987C330.967 29.6112 331.392 29.8447 331.784 30.0541C331.844 30.0852 331.904 30.1171 331.963 30.1482L331.903 29.3692L330.823 29.0492L330.97 28.9456C331.104 28.8514 331.265 28.7749 331.416 28.708C331.555 28.6453 331.698 28.5888 331.837 28.5267L331.776 27.7415C331.611 27.8674 331.448 27.9965 331.281 28.1196C331.048 28.2904 330.718 28.5242 330.44 28.6013L330.339 28.6287L330.315 28.3181V28.3172C330.304 28.0961 330.299 27.8748 330.299 27.6536C330.299 26.7309 330.386 25.81 330.557 24.9034L330.573 24.8202L330.657 24.8336C331.21 24.923 331.658 24.6918 332.053 24.326C332.164 24.2226 332.3 24.1471 332.438 24.0813C332.401 24.0537 332.363 24.03 332.32 24.0177C332.263 24.0016 332.207 24.0076 332.149 24.0091L332.093 24.01L332.068 23.959C331.931 23.6692 331.86 23.3855 331.589 23.1847C331.51 23.1269 331.422 23.0777 331.332 23.0404C331.173 22.9751 330.992 22.9407 330.82 22.9729C330.41 23.049 330.249 23.454 330.193 23.824L330.179 23.9182L330.088 23.8954C329.416 23.7364 329.463 23.0392 329.533 22.4764L329.533 22.4765ZM331.121 23.483C331.148 23.483 331.175 23.4853 331.202 23.4908C331.419 23.5353 331.56 23.748 331.515 23.9654C331.471 24.1823 331.258 24.3228 331.04 24.2784C330.824 24.2339 330.683 24.0212 330.727 23.8038C330.766 23.6136 330.934 23.4827 331.121 23.483ZM348.825 24.56C348.908 24.6602 349.032 24.8068 349.043 24.8518V25.0942H348.594L348.594 24.8526C348.594 24.8071 348.746 24.643 348.825 24.56ZM340.973 24.7036L340.97 25.0079H340.686C340.697 24.8119 340.783 24.7223 340.973 24.7036ZM347.834 26.2136C347.823 27.1545 347.84 27.7067 347.831 28.6508C347.831 28.7601 347.834 28.8413 347.833 28.9034C347.831 28.9992 347.68 29.1027 347.612 29.1921C347.482 29.0491 347.383 28.9424 347.382 28.9097C347.381 28.7887 347.382 28.735 347.382 28.4688C347.382 27.0401 347.38 27.3207 347.378 26.2496C347.068 26.5319 346.967 26.9003 346.504 27.0851C346.533 27.123 346.512 27.0972 346.544 27.1306C346.853 27.4395 346.771 26.9413 346.771 27.7205L346.769 29.0548C346.771 29.2331 346.948 29.4495 347.095 29.5341L346.953 29.6769C346.874 29.7556 346.783 29.7865 346.783 29.9396L346.784 30.9665H348.443V30.1679C348.443 29.7159 348.397 29.7293 348.165 29.4894C348.441 29.2291 348.446 29.2436 348.444 28.9763L348.443 28.0499C348.443 27.448 348.338 27.3345 348.721 27.1251L348.644 27.0623C348.102 26.7035 348.148 26.4867 347.834 26.2136ZM343.686 26.2277L343.684 30.368H342.771L342.767 27.5754C342.767 27.2423 342.912 27.2681 343.046 27.0946C342.951 26.996 342.797 26.9633 342.56 26.7047C342.488 26.6265 342.422 26.5507 342.362 26.4709C342.305 26.3949 342.238 26.2691 342.179 26.2333L342.176 30.3689L341.574 30.3642L341.573 28.2164C341.499 28.2529 341.509 28.2511 341.45 28.3121C341.144 28.6249 340.814 28.6981 340.684 28.8079C340.895 28.9091 340.976 28.9723 340.976 29.2668C340.976 29.3192 340.976 29.3379 340.977 29.35C340.978 29.3316 340.978 29.3804 340.977 29.3617C340.976 29.3736 340.975 29.3927 340.973 29.4449C340.639 29.5199 340.477 29.5571 340.306 29.7665C340.029 30.1065 340.072 30.5302 340.072 30.9667H344.274V27.5756C344.274 27.3721 344.315 27.3034 344.454 27.1803C344.479 27.1578 344.484 27.1557 344.51 27.1332C344.539 27.108 344.534 27.1149 344.553 27.094C344.367 26.9413 344.294 26.958 344.066 26.7112C343.993 26.6319 343.931 26.5608 343.871 26.475C343.809 26.3872 343.756 26.2847 343.686 26.228L343.686 26.2277ZM349.008 26.2387L349.001 30.9666H349.621V27.6773C349.621 27.394 349.761 27.2684 349.933 27.1517C349.831 27.095 349.732 27.0285 349.643 26.9627C349.546 26.8915 349.489 26.8191 349.408 26.7415C349.234 26.5749 349.061 26.288 349.008 26.2387ZM344.96 26.2434L344.968 30.9664L345.569 30.9655C345.612 30.7475 345.58 28.6177 345.58 28.0255C345.58 27.5944 345.487 27.4444 345.788 27.2254L345.892 27.1391C345.703 27.0658 345.462 26.8603 345.354 26.7414L344.96 26.2434ZM356.688 28.0774C356.62 28.139 356.552 28.1994 356.484 28.2594C356.216 28.4977 355.955 28.7413 355.696 28.9881L360.234 29.1419L360.257 28.5324C359.565 28.5172 358.876 28.4816 358.184 28.4547C357.935 28.4456 357.688 28.4445 357.439 28.4429C357.325 28.4418 357.194 28.4409 357.088 28.3959C357.016 28.3654 356.955 28.3174 356.897 28.2664C356.826 28.2048 356.757 28.1401 356.688 28.0774ZM356.329 29.5223C356.047 29.8019 355.757 30.0703 355.467 30.3413C356.754 30.2887 358.052 30.44 359.334 30.5327L359.433 30.5405L359.412 30.6378C359.303 31.1497 359.176 31.655 359.017 32.1541L358.996 32.2153L358.932 32.2144C358.573 32.2083 358.238 32.3859 358.042 32.6874C357.764 33.1121 357.833 33.6753 358.204 34.0202L358.25 34.0641L358.222 34.1214C358.012 34.5514 357.776 34.9647 357.531 35.3749L357.489 35.4455L356.452 34.9176C356.484 35.0713 356.508 35.2399 356.512 35.3781C356.515 35.4825 356.51 35.588 356.507 35.6918C356.506 35.769 356.504 35.8521 356.509 35.9319C356.763 35.8702 357.017 35.9252 357.248 36.0582C357.397 36.1438 357.547 36.2275 357.698 36.3115C357.807 36.3726 357.918 36.4352 358.023 36.5022C358.162 36.5894 358.312 36.6954 358.378 36.8512C358.452 37.0231 358.412 37.2644 358.37 37.4631C358.48 37.4298 358.585 37.3423 358.651 37.2646C358.799 37.0874 358.86 36.8595 358.839 36.6308C358.817 36.3914 358.694 36.2109 358.521 36.0519C358.445 35.9828 358.364 35.921 358.282 35.8589C358.217 35.8097 358.141 35.7517 358.091 35.6879L358.054 35.6416L358.288 35.24C358.456 34.9476 358.614 34.6494 358.761 34.3457L358.787 34.294L358.845 34.2972C359.219 34.3213 359.582 34.1417 359.787 33.8273C360.075 33.3861 359.989 32.7982 359.586 32.4593L359.542 32.4216L359.56 32.3659C359.65 32.0885 359.731 31.8092 359.805 31.5281C359.884 31.225 359.949 30.9216 360.004 30.6142C360.044 30.397 360.081 30.1808 360.114 29.9631L357.908 29.8815C357.631 29.8709 357.357 29.8783 357.081 29.8706C356.912 29.866 356.726 29.8552 356.576 29.7694C356.471 29.7099 356.393 29.6219 356.329 29.5223ZM347.676 29.8298C347.76 29.93 347.883 30.0769 347.894 30.1224V30.3648L347.445 30.3639V30.1223C347.445 30.0768 347.597 29.9123 347.676 29.8298ZM340.944 30.08C340.955 30.0802 340.965 30.0809 340.976 30.0824L340.974 30.3671L340.885 30.375L340.784 30.3758L340.689 30.3703C340.699 30.2107 340.789 30.0775 340.944 30.08ZM341.565 31.4967C341.389 31.7151 340.96 31.9644 340.695 32.0764C340.832 32.1905 340.975 32.2344 340.975 32.5L340.971 32.6883C340.031 32.7569 340.072 33.5632 340.073 34.1999L341.573 34.1982L341.565 31.4967ZM345.765 32.0199C345.624 32.0167 345.511 32.0912 345.42 32.1635C345.421 32.1667 345.425 32.1699 345.426 32.1729C345.819 32.6463 346.213 33.1201 346.606 33.5935H345.267C345.266 33.254 345.123 33.0281 344.921 32.8781C344.68 32.6994 344.355 32.711 344.015 32.711H343.37C342.569 32.711 342.885 32.682 342.61 32.4373C342.573 32.4763 342.393 32.8239 342.341 32.9063C342.217 33.1023 342.066 33.2075 342.032 33.2954C342.648 33.3279 343.404 33.3001 344.117 33.2986C344.425 33.2975 344.655 33.2704 344.68 33.5928L342.065 33.596V34.2L347.111 34.1983L347.242 34.3207C347.429 34.4958 347.993 34.4101 347.817 34.1975L346.275 32.3447L346.274 32.3438C346.075 32.1043 345.906 32.0234 345.765 32.0199ZM349.074 32.6232C348.741 32.612 348.413 32.8704 348.26 33.3174C348.14 33.6704 348.128 34.0714 348.203 34.2266C348.5 34.2056 348.815 34.2254 349.117 34.2164C348.983 34.7439 348.564 34.8086 347.966 34.8086C348.015 34.9088 348.072 34.9213 348.182 34.9765C349.362 35.572 350.313 34.1947 349.782 33.1762C349.596 32.8037 349.333 32.6318 349.074 32.6232ZM358.907 32.7526C359.004 32.7509 359.103 32.7772 359.19 32.8342C359.423 32.9863 359.488 33.2994 359.336 33.5324C359.184 33.7648 358.871 33.8303 358.638 33.6783C358.405 33.5262 358.34 33.2136 358.492 32.9801C358.587 32.8348 358.745 32.7552 358.907 32.7526ZM348.982 33.2429C349.125 33.2348 349.286 33.3653 349.206 33.5535C349.206 33.5547 349.147 33.7588 348.911 33.6586C348.787 33.605 348.773 33.454 348.824 33.348C348.856 33.2792 348.917 33.2466 348.982 33.2429ZM340.975 33.2978L340.971 33.603L340.694 33.5982C340.712 33.414 340.796 33.3214 340.975 33.2978ZM355.764 36.4662C355.48 36.4538 355.198 36.5913 354.956 36.8521C353.628 38.2862 352.008 39.4152 350.2 40.1602L349.84 40.3085L349.924 40.1131C350.097 39.7099 350.228 39.2589 350.316 38.8118C350.15 39.1432 349.979 39.4727 349.804 39.7994C349.649 40.0875 349.49 40.3756 349.326 40.6584C349.235 40.8131 349.142 40.9691 349.044 41.1212C349.323 41.0307 349.603 40.946 349.877 40.8458C351.958 40.0843 353.827 38.8444 355.332 37.2171C355.564 36.9659 355.848 36.992 356.103 37.1826L356.18 37.2406L355.698 37.7678C354.111 39.4439 352.156 40.7196 349.981 41.494C349.354 41.7173 348.704 41.8965 348.056 42.047L347.973 42.0658L347.693 40.9621C347.526 41.2299 347.239 41.4855 346.995 41.6666C347.311 41.9107 347.487 42.4817 347.548 42.8346C347.581 43.0316 347.617 43.2726 347.596 43.4723C347.583 43.5992 347.545 43.7119 347.449 43.8002C347.405 43.8394 347.356 43.8689 347.304 43.8951C347.567 43.9028 347.86 43.8705 348.022 43.7061C348.255 43.4694 348.177 43.0037 348.111 42.7177L348.092 42.6345L348.174 42.6142C348.812 42.4589 349.446 42.2992 350.066 42.0839C352.192 41.3454 354.123 40.1451 355.73 38.5679C355.944 38.358 356.152 38.1427 356.352 37.92C356.544 37.7063 356.728 37.4891 356.907 37.2642L356.407 36.7818C356.205 36.577 355.984 36.4759 355.764 36.4662ZM339.037 36.7525C338.659 37.3212 338.284 37.8919 337.93 38.4767C337.774 38.7364 337.62 38.9964 337.464 39.2557C337.218 39.6659 336.967 40.0742 336.715 40.4802L337.251 40.8128L338.715 38.4618C338.802 38.322 338.904 38.17 339.061 38.101C339.114 38.0774 339.172 38.0635 339.229 38.0507C339.271 38.0416 339.312 38.0329 339.352 38.0233L339.037 36.7525ZM341.47 37.8993L341.395 37.9864L341.392 37.9896C341.294 38.0822 341.161 38.1322 341.034 38.1724C340.899 38.2158 340.761 38.2512 340.632 38.3097C340.27 38.4719 340.121 38.756 340.062 39.1388C339.984 39.6535 340.258 40.1946 340.338 40.6991L340.347 40.754L340.3 40.7854C340.122 40.9027 339.936 40.9785 339.753 41.0819C339.45 41.2549 339.296 41.4817 339.174 41.7918C339.202 41.8039 339.229 41.8173 339.257 41.8278C341.086 42.5711 343.036 42.9472 345.01 42.9472C345.367 42.9472 345.724 42.935 346.08 42.9096L346.273 42.3095C345.853 42.3459 345.431 42.3644 345.01 42.3644C343.492 42.3644 341.984 42.132 340.538 41.671C340.483 41.6538 340.429 41.6366 340.375 41.6184L340.244 41.5753L340.339 41.4764C340.512 41.2949 340.811 41.2104 341.068 41.2034L341.067 41.2026C341.021 40.9402 340.929 40.6674 340.853 40.4173C340.729 40.013 340.524 39.3752 340.749 38.9795C340.78 38.9259 340.817 38.8772 340.861 38.8343L340.907 38.7896L340.963 38.821C341.081 38.8848 341.174 39.1759 341.214 39.2964C341.302 39.5673 341.373 39.8494 341.437 40.1263C341.497 40.3796 341.552 40.6341 341.603 40.8895C341.631 41.0325 341.66 41.178 341.683 41.3225C342.043 41.4035 342.399 41.4745 342.762 41.5383L342.682 40.9962L342.212 40.9084L341.846 39.4909C341.786 39.2322 341.716 38.9766 341.651 38.719C341.583 38.4512 341.514 38.1751 341.47 37.8993ZM346.966 39.5898C346.767 39.5944 346.61 39.7585 346.614 39.9562C346.619 40.1543 346.782 40.3111 346.98 40.3068C347.178 40.3036 347.335 40.1389 347.331 39.9413C347.327 39.7426 347.163 39.5855 346.966 39.5898Z" fill="#005740"/>
<defs>
<clipPath id="clip0_5974_15436">
<rect width="163" height="48" fill="white" transform="translate(0 4)"/>
</clipPath>
</defs>
</svg>
