<svg xmlns="http://www.w3.org/2000/svg" width="300.33" height="59.481" viewBox="0 0 300.33 59.481"><defs><style>.a{fill:#575957;}.b{fill:#4d9645;}.c{fill:#0087b0;}.d{fill:#965926;}</style></defs><g transform="translate(-1221.508 -1245.895)"><path class="a" d="M1230.149,1313.185h-2.776l-5.7-16.835h2.812l4.326,13.591,4.326-13.591h2.7Z" transform="translate(-0.043 -12.748)"/><path class="a" d="M1346.037,1267.248l-2.788,1.544v-21.577h2.788Z" transform="translate(-30.759 -0.333)"/><path class="a" d="M1414.294,1267.248h-15.657V1264.5h4.976l-4.5-11.5h2.959l4.462,11.5h3.3v-17.287h2.746V1264.5h1.715Z" transform="translate(-44.753 -0.333)"/><path class="b" d="M1557.873,1281.247a39.633,39.633,0,0,1,2.38-5.574c.268-.523.582-1.089.985-1.772s.721-1.232,1.044-1.739a39.851,39.851,0,0,1,3.633-4.836,41.782,41.782,0,0,1,6.081-5.67l.268-.2v-14.365a74.776,74.776,0,0,0-10.984,10.229,72.072,72.072,0,0,0-6.554,8.728c-.66,1.036-1.281,2.088-1.88,3.142-.619,1.048-1.216,2.112-1.782,3.2a70.89,70.89,0,0,0-4.285,10.04,74.231,74.231,0,0,0-3.374,14.614l12.539-7.226.061-.474a41.457,41.457,0,0,1,1.87-8.1" transform="translate(-81.329 -0.301)"/><path class="c" d="M1585.841,1262.419a41.21,41.21,0,0,1,5.121,4.907,39.687,39.687,0,0,1,3.634,4.844c.33.515.661,1.068,1.047,1.739s.7,1.223.98,1.764a39.632,39.632,0,0,1,2.377,5.574,41.767,41.767,0,0,1,1.873,8.1l.049.384,12.695,7.316a74.666,74.666,0,0,0-3.373-14.614,70.826,70.826,0,0,0-4.288-10.04c-.566-1.092-1.167-2.155-1.781-3.2-.6-1.054-1.22-2.106-1.881-3.142a71.4,71.4,0,0,0-6.556-8.728,74.534,74.534,0,0,0-10.982-10.23v14.48l.118.09c.327.252.649.5.968.763" transform="translate(-91.777 -0.301)"/><path class="d" d="M1581.647,1308.55a39.942,39.942,0,0,1-6.009.738c-.548.025-1.106.037-1.705.037h-.792c-.536,0-1.056-.008-1.554-.029a40.444,40.444,0,0,1-6-.712,41.1,41.1,0,0,1-6.751-1.952l-13.427,7.793a74.821,74.821,0,0,0,14.377,4.373,71.56,71.56,0,0,0,10.847,1.286c1.228.05,2.454.064,3.668.053,1.214.008,2.433-.013,3.666-.067a71.07,71.07,0,0,0,10.845-1.335,74.994,74.994,0,0,0,14.347-4.422l-13.981-8.043a41.629,41.629,0,0,1-7.524,2.281" transform="translate(-81.835 -15.254)"/><path class="a" d="M1588.919,1289.65h.757l-.29-.7c-.37-.89-.761-1.732-1.164-2.5-.242-.461-.51-.94-.841-1.514-.35-.608-.615-1.047-.884-1.468-.3-.466-.641-.974-1.056-1.548l-.152-.209h-10.525l-.151.209c-.413.57-.76,1.078-1.061,1.55s-.568.919-.86,1.434l-.04.068c-.33.561-.583,1.015-.793,1.426l-.018.034c-.406.776-.8,1.625-1.173,2.519l-.291.7h18.541Z" transform="translate(-88.145 -9.049)"/><path class="a" d="M1596.1,1298.416c-.2-.969-.452-1.945-.741-2.9l-.109-.359h-4.062l-.125.322-1.255,3.24-.275.708.76-.02a40.332,40.332,0,0,0,5.465-.408l.422-.145Z" transform="translate(-92.985 -12.447)"/><path class="a" d="M1573.237,1295.482l-.125-.323h-4.048l-.108.359c-.3.985-.555,2-.762,3.008l-.09.436.422.144a48.237,48.237,0,0,0,5.486.3l.752.013-.272-.7Z" transform="translate(-87.57 -12.447)"/><path class="a" d="M1243.58,1307.727h5.8a3.34,3.34,0,0,0,.036-.469,2.839,2.839,0,0,0-.775-2.127,2.988,2.988,0,0,0-2.181-.757q-2.7,0-2.885,3.353m7.643,4.542-.469,2.091a11.265,11.265,0,0,1-3.894.577q-3.5,0-4.867-1.983a6.908,6.908,0,0,1-.973-3.966,7.561,7.561,0,0,1,1.189-4.434,4.871,4.871,0,0,1,4.255-1.983,4.765,4.765,0,0,1,4.217,1.874,5.818,5.818,0,0,1,.938,3.425,10.762,10.762,0,0,1-.108,1.514h-7.931a3.6,3.6,0,0,0,1.045,3.028,3.992,3.992,0,0,0,2.524.685,9.041,9.041,0,0,0,4.074-.83" transform="translate(-4.93 -14.32)"/><path class="a" d="M1270.236,1311.6l.288,1.37a4.056,4.056,0,0,1-1.947.4,2.131,2.131,0,0,1-1.442-.468,1.628,1.628,0,0,1-.54-1.3v-6.489a2.519,2.519,0,0,0-.324-1.514,1.476,1.476,0,0,0-1.19-.4,5.1,5.1,0,0,0-1.983.5,6.544,6.544,0,0,0-1.911,1.225v8.256h-2.415v-16.836h2.415v6.452a7.2,7.2,0,0,1,2.055-1.279,5.708,5.708,0,0,1,2.2-.522,3.73,3.73,0,0,1,2.739.793,4.561,4.561,0,0,1,.83,3.1v6.128q0,.649.577.649a2.394,2.394,0,0,0,.649-.073" transform="translate(-9.415 -12.748)"/><path class="a" d="M1280.4,1311.415l.324,1.37a4.141,4.141,0,0,1-1.983.4,2,2,0,0,1-1.424-.488,1.666,1.666,0,0,1-.522-1.279v-10.383h2.415v9.806q0,.649.577.649a2.238,2.238,0,0,0,.613-.073m-.865-14.276a1.528,1.528,0,0,1-.433,1.1,1.435,1.435,0,0,1-1.082.451,1.509,1.509,0,0,1-1.081-.451,1.39,1.39,0,0,1-.469-1.028,1.524,1.524,0,0,1,.469-1.117,1.484,1.484,0,0,1,1.081-.469,1.44,1.44,0,0,1,1.082.451,1.486,1.486,0,0,1,.433,1.063" transform="translate(-13.888 -12.565)"/><path class="a" d="M1293.385,1312.378l-.433,2.019a10.1,10.1,0,0,1-3.533.541,5.045,5.045,0,0,1-3.749-1.587,7.2,7.2,0,0,1-.108-8.976,5.34,5.34,0,0,1,4.218-1.8,10.032,10.032,0,0,1,3.75.613l-.4,2.019a7.922,7.922,0,0,0-3.028-.577q-3.5,0-3.5,4.182,0,4.075,3.858,4.074a9.3,9.3,0,0,0,1.514-.162,8.012,8.012,0,0,0,1.406-.342" transform="translate(-15.801 -14.32)"/><path class="a" d="M1303.415,1311.6l.288,1.37a3.926,3.926,0,0,1-1.947.4,2.072,2.072,0,0,1-1.442-.487,1.638,1.638,0,0,1-.54-1.279v-15.249h2.416v14.673q0,.649.577.649a2.393,2.393,0,0,0,.649-.073" transform="translate(-19.774 -12.748)"/><path class="a" d="M1309.472,1307.727h5.8a3.34,3.34,0,0,0,.036-.469,2.839,2.839,0,0,0-.775-2.127,2.988,2.988,0,0,0-2.181-.757q-2.7,0-2.885,3.353m7.643,4.542-.469,2.091a11.264,11.264,0,0,1-3.893.577q-3.5,0-4.867-1.983a6.909,6.909,0,0,1-.973-3.966,7.561,7.561,0,0,1,1.189-4.434,4.871,4.871,0,0,1,4.255-1.983,4.767,4.767,0,0,1,4.218,1.874,5.825,5.825,0,0,1,.937,3.425,10.78,10.78,0,0,1-.108,1.514h-7.932a3.6,3.6,0,0,0,1.046,3.028,4,4,0,0,0,2.524.685,9.043,9.043,0,0,0,4.074-.83" transform="translate(-21.578 -14.32)"/><path class="a" d="M1323.652,1314.4l.54-2.091a7.822,7.822,0,0,0,1.569.505,7.381,7.381,0,0,0,1.568.216q2.884,0,2.884-1.73a1.151,1.151,0,0,0-.5-.956,8.763,8.763,0,0,0-1.983-.919,9.589,9.589,0,0,1-2.632-1.333,2.7,2.7,0,0,1-1.082-2.2,2.826,2.826,0,0,1,1.226-2.452,6.013,6.013,0,0,1,3.5-.865,8.453,8.453,0,0,1,3.389.613l-.4,1.947a6.882,6.882,0,0,0-2.92-.649q-2.416,0-2.415,1.262a.952.952,0,0,0,.451.793,8.87,8.87,0,0,0,1.785.83,10.637,10.637,0,0,1,2.812,1.406,3.273,3.273,0,0,1-.432,5.3,5.838,5.838,0,0,1-3.245.866,13.634,13.634,0,0,1-4.11-.541" transform="translate(-25.807 -14.32)"/><path class="a" d="M1344.1,1312.438l.4-2.451a10,10,0,0,0,4.4,1.045,4.882,4.882,0,0,0,2.451-.54,2.054,2.054,0,0,0,.325-3.353,13.428,13.428,0,0,0-2.776-1.658,15.178,15.178,0,0,1-3.317-2.019,3.657,3.657,0,0,1-1.3-2.776,4.154,4.154,0,0,1,1.731-3.677,6.947,6.947,0,0,1,4.074-1.045,9.442,9.442,0,0,1,4.146.937l-.4,2.344a9.44,9.44,0,0,0-3.822-1.009q-3.135,0-3.137,2.126a1.64,1.64,0,0,0,.667,1.28,14.29,14.29,0,0,0,2.578,1.5,14.9,14.9,0,0,1,3.425,2.054,3.861,3.861,0,0,1,1.406,2.956,4.684,4.684,0,0,1-1.983,4.074,6.914,6.914,0,0,1-4.074,1.117,11.679,11.679,0,0,1-4.795-.9" transform="translate(-30.975 -12.65)"/><path class="a" d="M1368.271,1310.359v-1.19q-1.191-.109-1.731-.108a4.106,4.106,0,0,0-2.308.5,1.843,1.843,0,0,0-.72,1.622q0,1.767,2.127,1.767a2.581,2.581,0,0,0,1.875-.739,2.486,2.486,0,0,0,.757-1.856m3.6,2.812.288,1.37a4.381,4.381,0,0,1-1.911.4,2.127,2.127,0,0,1-1.442-.469,1.584,1.584,0,0,1-.54-1.262,3.677,3.677,0,0,1-3.462,1.731q-3.822,0-3.821-3.5a3.57,3.57,0,0,1,1.838-3.352,7.047,7.047,0,0,1,3.5-.757,16.254,16.254,0,0,1,1.947.143v-1.117a1.529,1.529,0,0,0-.632-1.407,4.555,4.555,0,0,0-2.253-.4,10,10,0,0,0-3.533.649l.4-1.982a10.41,10.41,0,0,1,3.821-.65,4.871,4.871,0,0,1,3.568,1.045,4.684,4.684,0,0,1,1.01,3.389v5.588q0,.649.613.649a2.012,2.012,0,0,0,.613-.072" transform="translate(-35.241 -14.32)"/><path class="a" d="M1380.859,1312.954h-2.38V1302.9h-1.91l.4-1.91h1.513v-1.695a4.732,4.732,0,0,1,.65-2.848,3.135,3.135,0,0,1,2.667-1.009,7.015,7.015,0,0,1,2.488.4l-.432,1.983a6.985,6.985,0,0,0-1.623-.288,1.528,1.528,0,0,0-1.1.288,1.755,1.755,0,0,0-.271,1.154v2.019h2.6v1.91h-2.6Z" transform="translate(-39.177 -12.516)"/><path class="a" d="M1390.224,1307.727h5.8a3.357,3.357,0,0,0,.036-.469,2.84,2.84,0,0,0-.775-2.127,2.989,2.989,0,0,0-2.181-.757q-2.7,0-2.884,3.353m7.642,4.542-.469,2.091a11.265,11.265,0,0,1-3.893.577q-3.5,0-4.867-1.983a6.91,6.91,0,0,1-.973-3.966,7.562,7.562,0,0,1,1.189-4.434,4.871,4.871,0,0,1,4.255-1.983,4.767,4.767,0,0,1,4.218,1.874,5.826,5.826,0,0,1,.937,3.425,10.618,10.618,0,0,1-.108,1.514h-7.931a3.594,3.594,0,0,0,1.046,3.028,3.991,3.991,0,0,0,2.523.685,9.042,9.042,0,0,0,4.074-.83" transform="translate(-41.981 -14.32)"/><path class="a" d="M1410.625,1311.386l.361,1.8a8.031,8.031,0,0,1-2.668.469,2.338,2.338,0,0,1-1.911-.7,3.756,3.756,0,0,1-.577-2.362v-7.174h-1.91l.4-1.91h1.514V1298.3l2.379-.793v4h2.487v1.91h-2.487v6.886a1.777,1.777,0,0,0,.235,1.1,1.316,1.316,0,0,0,.991.271,2.621,2.621,0,0,0,1.19-.289" transform="translate(-46.088 -13.04)"/><path class="a" d="M1418.916,1314.542l-4.542-11.68h2.56l3.1,8.579,2.6-8.579h2.6l-4.291,12.4a9.209,9.209,0,0,1-1.857,3.533,3.666,3.666,0,0,1-2.686.973,5.714,5.714,0,0,1-2.487-.432l.469-2.019a5.669,5.669,0,0,0,1.983.361,1.784,1.784,0,0,0,1.262-.469,7.181,7.181,0,0,0,1.3-2.667" transform="translate(-48.611 -14.393)"/><path class="a" d="M1449.676,1310.311l-.432,2.488a12.433,12.433,0,0,1-3.786.54,8.111,8.111,0,0,1-6.057-2.234,8.336,8.336,0,0,1-2.2-6.165,9.524,9.524,0,0,1,2.234-6.67,7.464,7.464,0,0,1,5.769-2.307,12.32,12.32,0,0,1,4.47.793l-.432,2.38a8.811,8.811,0,0,0-3.858-.9,4.955,4.955,0,0,0-4.4,2.054,8.2,8.2,0,0,0-1.189,4.759q0,3.857,2.631,5.264a6.651,6.651,0,0,0,3.208.72,12.127,12.127,0,0,0,4.038-.72" transform="translate(-54.497 -12.65)"/><path class="a" d="M1459.2,1307.727h5.8a3.357,3.357,0,0,0,.036-.469,2.839,2.839,0,0,0-.775-2.127,2.991,2.991,0,0,0-2.182-.757q-2.7,0-2.883,3.353m7.642,4.542-.469,2.091a11.267,11.267,0,0,1-3.894.577q-3.5,0-4.867-1.983a6.908,6.908,0,0,1-.973-3.966,7.562,7.562,0,0,1,1.189-4.434,4.871,4.871,0,0,1,4.254-1.983,4.768,4.768,0,0,1,4.219,1.874,5.83,5.83,0,0,1,.937,3.425,10.671,10.671,0,0,1-.108,1.514H1459.2a3.6,3.6,0,0,0,1.045,3.028,4,4,0,0,0,2.524.685,9.042,9.042,0,0,0,4.074-.83" transform="translate(-59.409 -14.32)"/><path class="a" d="M1485.858,1313.171l.288,1.37a4.055,4.055,0,0,1-1.947.4,2.131,2.131,0,0,1-1.442-.469,1.629,1.629,0,0,1-.54-1.3v-6.489a2.511,2.511,0,0,0-.324-1.514,1.477,1.477,0,0,0-1.19-.4,5.116,5.116,0,0,0-1.983.5,6.559,6.559,0,0,0-1.91,1.226v8.256h-2.416v-11.969h2.416v1.586a7.207,7.207,0,0,1,2.054-1.28,5.71,5.71,0,0,1,2.2-.522,3.735,3.735,0,0,1,2.74.793,4.567,4.567,0,0,1,.829,3.1v6.128q0,.649.577.649a2.4,2.4,0,0,0,.649-.072" transform="translate(-63.893 -14.32)"/><path class="a" d="M1497.645,1311.386l.36,1.8a8.023,8.023,0,0,1-2.667.469,2.339,2.339,0,0,1-1.911-.7,3.758,3.758,0,0,1-.577-2.362v-7.174h-1.91l.4-1.91h1.514V1298.3l2.38-.793v4h2.487v1.91h-2.487v6.886a1.778,1.778,0,0,0,.234,1.1,1.315,1.315,0,0,0,.991.271,2.621,2.621,0,0,0,1.19-.289" transform="translate(-68.074 -13.04)"/><path class="a" d="M1504.981,1307.727h5.8a3.322,3.322,0,0,0,.036-.469,2.84,2.84,0,0,0-.775-2.127,2.99,2.99,0,0,0-2.182-.757q-2.7,0-2.883,3.353m7.642,4.542-.469,2.091a11.264,11.264,0,0,1-3.894.577q-3.5,0-4.866-1.983a6.908,6.908,0,0,1-.973-3.966,7.558,7.558,0,0,1,1.19-4.434,4.868,4.868,0,0,1,4.253-1.983,4.767,4.767,0,0,1,4.219,1.874,5.832,5.832,0,0,1,.937,3.425,10.618,10.618,0,0,1-.109,1.514h-7.931a3.6,3.6,0,0,0,1.045,3.028,4,4,0,0,0,2.524.685,9.043,9.043,0,0,0,4.074-.83" transform="translate(-70.975 -14.32)"/><path class="a" d="M1522.587,1314.757h-2.415v-11.969h2.415v1.55a3.015,3.015,0,0,1,.956-1.28,2.084,2.084,0,0,1,1.279-.487,4.551,4.551,0,0,1,2.235.65l-.432,1.983a6.335,6.335,0,0,0-1.983-.361q-1.19,0-2.055,1.587Z" transform="translate(-75.46 -14.32)"/><path class="a" d="M1234.935,1249.284a1.563,1.563,0,0,1-1.137-.493,1.658,1.658,0,0,1,0-2.359,1.562,1.562,0,0,1,1.137-.493,1.682,1.682,0,0,1,1.2.493,1.577,1.577,0,0,1,.515,1.179,1.6,1.6,0,0,1-.515,1.158,1.648,1.648,0,0,1-1.2.515m-4.2,0a1.76,1.76,0,0,1-1.717-1.716,1.578,1.578,0,0,1,.515-1.179,1.684,1.684,0,0,1,1.2-.494,1.686,1.686,0,0,1,1.673,1.674,1.68,1.68,0,0,1-.493,1.2,1.579,1.579,0,0,1-1.179.515m8.364,17.63h-12.612a4.9,4.9,0,0,1-3.818-1.416,5.129,5.129,0,0,1-1.158-3.56v-4.161l2.788-1.8v6.091a2.27,2.27,0,0,0,.472,1.608,2,2,0,0,0,1.5.493h13.04q1.973,0,1.973-1.887v-9.609h2.747v9.48a4.64,4.64,0,0,1-1.33,3.561,5.082,5.082,0,0,1-3.6,1.2" transform="translate(0)"/><path class="a" d="M1261.441,1267.248h-.171a4.1,4.1,0,0,1-3.175-1.372,4.241,4.241,0,0,1-1.115-3v-15.658h2.788v15.529q0,1.759,1.5,1.759h.171Z" transform="translate(-8.962 -0.333)"/><path class="a" d="M1269.5,1276.712a1.7,1.7,0,0,1-1.223-.472,1.587,1.587,0,0,1-.493-1.2,1.606,1.606,0,0,1,.493-1.18,1.657,1.657,0,0,1,1.223-.493,1.562,1.562,0,0,1,1.137.493,1.61,1.61,0,0,1,.492,1.18,1.649,1.649,0,0,1-.471,1.179,1.543,1.543,0,0,1-1.158.493m3.045-7.506h-9.824v-2.746h5.362v-11.5h2.746v11.5h1.716Z" transform="translate(-10.412 -2.291)"/><path class="a" d="M1285.871,1267.248h-10.3V1264.5h10.466q1.973,0,1.974-1.887v-4.847a1.764,1.764,0,0,0-1.974-2.017h-7.163v-3.646q0-4.891,5.1-4.891h4.762V1250h-5.1a1.764,1.764,0,0,0-2.016,1.974v1.029h4.333a4.6,4.6,0,0,1,3.646,1.416,4.959,4.959,0,0,1,1.116,3.432v4.676a4.473,4.473,0,0,1-1.459,3.6,4.985,4.985,0,0,1-3.389,1.116" transform="translate(-13.661 -0.333)"/><path class="a" d="M1301.441,1276.713l-1.93-2.445a5.316,5.316,0,0,0,2.724-1.609,5.249,5.249,0,0,0,.708-3.067v-14.628h2.745v11.5h1.716v2.745h-1.716v1.244a6.343,6.343,0,0,1-4.246,6.263" transform="translate(-19.708 -2.292)"/><path class="a" d="M1320.553,1267.9v-8.364q0-2.1-2.4-2.1t-2.4,2.1v8.364q0,2.1,2.4,2.1t2.4-2.1m4.418,1.244h-1.844a3.934,3.934,0,0,1-1.587,2.638,5.693,5.693,0,0,1-3.388.922,5.478,5.478,0,0,1-3.475-1.073,4,4,0,0,1-1.587-2.488h-3.3V1266.4h3.261v-6.82a4.392,4.392,0,0,1,1.8-3.947,5.758,5.758,0,0,1,3.3-.9,5.238,5.238,0,0,1,3.731,1.288,4.639,4.639,0,0,1,1.373,3.56v6.82h1.716Z" transform="translate(-22.304 -2.233)"/><path class="a" d="M1331.033,1267.248h-1.158V1264.5h1.073a2.421,2.421,0,0,0,1.694-.472,2.2,2.2,0,0,0,.494-1.63v-15.186h2.745v15.4a4.443,4.443,0,0,1-1.33,3.474,4.974,4.974,0,0,1-3.518,1.158" transform="translate(-27.38 -0.333)"/><path class="a" d="M1440.191,1269.206H1419.3v-2.746h8.065v-11.5h2.745v11.5h4.761v-11.5h2.745v11.5h2.746q2.015,0,2.016-1.931v-9.566h2.746v9.438a4.614,4.614,0,0,1-1.373,3.6,5.018,5.018,0,0,1-3.56,1.2" transform="translate(-49.974 -2.291)"/><path class="a" d="M1469.606,1249.3a1.657,1.657,0,0,1-1.223-.494,1.657,1.657,0,0,1,0-2.359,1.66,1.66,0,0,1,1.223-.494,1.564,1.564,0,0,1,1.137.494,1.657,1.657,0,0,1,0,2.359,1.561,1.561,0,0,1-1.137.494m-2.917,25.137-1.93-2.444a5.317,5.317,0,0,0,2.724-1.609,5.248,5.248,0,0,0,.708-3.067v-14.628h2.745v11.5h1.716v2.746h-1.716v1.244a6.343,6.343,0,0,1-4.246,6.263" transform="translate(-61.459 -0.015)"/><path class="a" d="M1485.329,1267.248h-10.3V1264.5H1485.5q1.973,0,1.974-1.887v-4.847a1.765,1.765,0,0,0-1.974-2.017h-7.163v-3.646q0-4.891,5.105-4.891h4.761V1250h-5.1a1.764,1.764,0,0,0-2.017,1.974v1.029h4.333a4.6,4.6,0,0,1,3.646,1.416,4.957,4.957,0,0,1,1.116,3.432v4.676a4.476,4.476,0,0,1-1.458,3.6,4.99,4.99,0,0,1-3.388,1.116" transform="translate(-64.055 -0.333)"/><path class="a" d="M1500.9,1276.713l-1.93-2.445a5.316,5.316,0,0,0,2.724-1.609,5.248,5.248,0,0,0,.708-3.067v-14.628h2.745v11.5h1.716v2.745h-1.716v1.244a6.343,6.343,0,0,1-4.247,6.263" transform="translate(-70.103 -2.292)"/><path class="a" d="M1520.01,1267.9v-8.365q0-2.1-2.4-2.1t-2.4,2.1v8.365q0,2.1,2.4,2.1t2.4-2.1m2.7-8.322v8.322a4.385,4.385,0,0,1-1.759,3.9,5.707,5.707,0,0,1-3.346.9,5.476,5.476,0,0,1-3.475-1.072,4,4,0,0,1-1.587-2.487h-3.3V1266.4h3.26v-6.82a4.392,4.392,0,0,1,1.8-3.947,5.757,5.757,0,0,1,3.3-.9,5.241,5.241,0,0,1,3.731,1.287,4.642,4.642,0,0,1,1.373,3.561" transform="translate(-72.699 -2.233)"/><path class="a" d="M1366.783,1249.284a1.576,1.576,0,0,1-1.179-.515,1.679,1.679,0,0,1-.493-1.2,1.673,1.673,0,0,1,3.345,0,1.681,1.681,0,0,1-.493,1.2,1.58,1.58,0,0,1-1.18.515m.215,14.885v-8.751h-2.745a1.763,1.763,0,0,0-1.973,2.016v4.675a2.131,2.131,0,0,0,.493,1.587,2.346,2.346,0,0,0,1.652.472Zm-4.418-14.885a1.76,1.76,0,0,1-1.716-1.716,1.577,1.577,0,0,1,.515-1.179,1.681,1.681,0,0,1,1.2-.494,1.686,1.686,0,0,1,1.673,1.674,1.683,1.683,0,0,1-.493,1.2,1.581,1.581,0,0,1-1.18.515m8.88,17.63H1367v-1.8l-1.33,1.8h-1.03a5.188,5.188,0,0,1-4.032-1.459,4.885,4.885,0,0,1-1.116-3.388v-4.548a4.7,4.7,0,0,1,1.587-3.817,5.052,5.052,0,0,1,3.261-1.03h5.447v11.5h1.673Z" transform="translate(-34.862)"/><path class="a" d="M1386.043,1267.9v-8.365q0-2.1-2.4-2.1t-2.4,2.1v8.365q0,2.1,2.4,2.1t2.4-2.1m2.7-8.322v8.322a4.385,4.385,0,0,1-1.758,3.9,5.708,5.708,0,0,1-3.346.9,5.475,5.475,0,0,1-3.475-1.072,4,4,0,0,1-1.587-2.487h-3.3V1266.4h3.26v-6.82a4.392,4.392,0,0,1,1.8-3.947,5.759,5.759,0,0,1,3.3-.9,5.242,5.242,0,0,1,3.732,1.287,4.643,4.643,0,0,1,1.373,3.561" transform="translate(-38.851 -2.233)"/></g></svg>