<svg xmlns="http://www.w3.org/2000/svg" width="149.5" height="117.131" viewBox="0 0 149.5 117.131"><defs><style>.a{fill:#4f8c31;}.b{fill:#0086a9;}.c{fill:#7c400e;}.d{fill:#fff;}.e{fill:#464749;}</style></defs><g transform="translate(0 0)"><g transform="translate(42.249 0)"><path class="a" d="M1668.536-291.5a77.027,77.027,0,0,0-7.118,9.476c-.725,1.124-1.4,2.265-2.054,3.411s-1.319,2.292-1.93,3.475a77.33,77.33,0,0,0-4.654,10.909,80.856,80.856,0,0,0-3.666,15.864l20.976-12.085a65.216,65.216,0,0,1,4.327-9.451l.012,0,0-.014a64.926,64.926,0,0,1,6.019-8.45v-24.242a81.062,81.062,0,0,0-11.914,11.109" transform="translate(-1649.115 302.612)"/><path class="b" d="M1734.9-278.375a64.462,64.462,0,0,1,6.034,8.452l0,.014,0,0a65.121,65.121,0,0,1,4.325,9.451l20.979,12.085a80.939,80.939,0,0,0-3.666-15.864,77,77,0,0,0-4.655-10.909c-.618-1.184-1.27-2.341-1.93-3.475s-1.33-2.287-2.051-3.411a77.141,77.141,0,0,0-7.116-9.476,81.064,81.064,0,0,0-11.929-11.113Z" transform="translate(-1701.326 302.618)"/><path class="c" d="M1673.136-190.129a65.255,65.255,0,0,0,10.348.973l.016,0h.009a64.673,64.673,0,0,0,10.341-1l20.987,12.08a81.121,81.121,0,0,1-15.576,4.8,77.75,77.75,0,0,1-11.766,1.447c-1.332.062-2.656.082-3.977.072-1.313.016-2.646,0-3.978-.058a78.631,78.631,0,0,1-11.763-1.388,81.527,81.527,0,0,1-15.605-4.747Z" transform="translate(-1650.975 234.174)"/><path class="d" d="M1693.827-169.343a4.222,4.222,0,0,1-2.7-1.452l.994-1.1a3.707,3.707,0,0,0,1.859,1.019c.827.136,1.429-.182,1.534-.806a.874.874,0,0,0-.14-.639c-.44-.622-1.925-1.076-2.668-2.117a2.214,2.214,0,0,1-.4-1.719c.256-1.528,1.655-2.317,3.363-2.026a3.945,3.945,0,0,1,2.519,1.373l-1.016,1.022a3.3,3.3,0,0,0-1.634-.929c-.749-.124-1.344.143-1.434.681a.643.643,0,0,0,.131.544c.338.471,2.021,1.149,2.754,2.176a2.179,2.179,0,0,1,.383,1.778c-.27,1.6-1.677,2.505-3.537,2.191" transform="translate(-1674.681 226.919)"/><path class="d" d="M1715.784-166.87l-.523-1.834-3.088-.194-.739,1.749-1.835-.109,3.64-8.4,1.825.113,2.607,8.784Zm-1.771-6.784-1.3,3.384,2.167.132Z" transform="translate(-1685.926 225.347)"/><path class="d" d="M1736.028-166.859a4.242,4.242,0,0,1-2.942-.886l.755-1.265a3.744,3.744,0,0,0,2.033.625c.834-.034,1.36-.474,1.335-1.1a.906.906,0,0,0-.266-.594c-.556-.523-2.105-.669-3.041-1.536a2.221,2.221,0,0,1-.744-1.6c-.063-1.541,1.151-2.6,2.88-2.661a3.969,3.969,0,0,1,2.744.833l-.779,1.209a3.314,3.314,0,0,0-1.8-.581c-.761.027-1.289.411-1.261.951a.649.649,0,0,0,.23.512c.431.395,2.211.714,3.133,1.571a2.147,2.147,0,0,1,.74,1.668c.065,1.622-1.128,2.788-3.019,2.861" transform="translate(-1700.221 225.487)"/><path class="d" d="M1756.329-168.828c-2.474.372-4.444-1.213-4.849-3.9a4.107,4.107,0,0,1,3.49-5.017,4.1,4.1,0,0,1,4.809,3.76c.417,2.758-1.028,4.792-3.451,5.16m-1.2-7.439c-1.36.213-2.067,1.6-1.8,3.371.263,1.79,1.459,2.754,2.8,2.547,1.76-.268,2.034-2.01,1.828-3.376-.253-1.684-1.4-2.752-2.829-2.543" transform="translate(-1711.377 226.653)"/><path class="d" d="M1693.827-169.343a4.222,4.222,0,0,1-2.7-1.452l.994-1.1a3.707,3.707,0,0,0,1.859,1.019c.827.136,1.429-.182,1.534-.806a.874.874,0,0,0-.14-.639c-.44-.622-1.925-1.076-2.668-2.117a2.214,2.214,0,0,1-.4-1.719c.256-1.528,1.655-2.317,3.363-2.026a3.945,3.945,0,0,1,2.519,1.373l-1.016,1.022a3.3,3.3,0,0,0-1.634-.929c-.749-.124-1.344.143-1.434.681a.643.643,0,0,0,.131.544c.338.471,2.021,1.149,2.754,2.176a2.179,2.179,0,0,1,.383,1.778c-.27,1.6-1.677,2.505-3.537,2.191" transform="translate(-1674.681 226.919)"/><path class="d" d="M1715.784-166.87l-.523-1.834-3.088-.194-.739,1.749-1.835-.109,3.64-8.4,1.825.113,2.607,8.784Zm-1.771-6.784-1.3,3.384,2.167.132Z" transform="translate(-1685.926 225.347)"/><path class="d" d="M1736.028-166.859a4.242,4.242,0,0,1-2.942-.886l.755-1.265a3.744,3.744,0,0,0,2.033.625c.834-.034,1.36-.474,1.335-1.1a.906.906,0,0,0-.266-.594c-.556-.523-2.105-.669-3.041-1.536a2.221,2.221,0,0,1-.744-1.6c-.063-1.541,1.151-2.6,2.88-2.661a3.969,3.969,0,0,1,2.744.833l-.779,1.209a3.314,3.314,0,0,0-1.8-.581c-.761.027-1.289.411-1.261.951a.649.649,0,0,0,.23.512c.431.395,2.211.714,3.133,1.571a2.147,2.147,0,0,1,.74,1.668c.065,1.622-1.128,2.788-3.019,2.861" transform="translate(-1700.221 225.487)"/><path class="d" d="M1756.329-168.828c-2.474.372-4.444-1.213-4.849-3.9a4.107,4.107,0,0,1,3.49-5.017,4.1,4.1,0,0,1,4.809,3.76c.417,2.758-1.028,4.792-3.451,5.16m-1.2-7.439c-1.36.213-2.067,1.6-1.8,3.371.263,1.79,1.459,2.754,2.8,2.547,1.76-.268,2.034-2.01,1.828-3.376-.253-1.684-1.4-2.752-2.829-2.543" transform="translate(-1711.377 226.653)"/></g><g transform="translate(0 78.801)"><path class="e" d="M1241.713-182.854l.337-2.047a8.615,8.615,0,0,0,3.736.873,4.2,4.2,0,0,0,2.083-.451,1.663,1.663,0,0,0,.888-1.535,1.643,1.643,0,0,0-.613-1.265,11.4,11.4,0,0,0-2.358-1.385,12.967,12.967,0,0,1-2.817-1.686,3.032,3.032,0,0,1-1.1-2.319,3.447,3.447,0,0,1,1.469-3.071,5.983,5.983,0,0,1,3.462-.874,8.134,8.134,0,0,1,3.522.783l-.337,1.957a8.116,8.116,0,0,0-3.246-.843q-2.665,0-2.665,1.776a1.361,1.361,0,0,0,.567,1.069,12.169,12.169,0,0,0,2.19,1.25,12.681,12.681,0,0,1,2.91,1.716,3.2,3.2,0,0,1,1.195,2.469,3.89,3.89,0,0,1-1.685,3.4,5.948,5.948,0,0,1-3.461.933,10.075,10.075,0,0,1-4.074-.753" transform="translate(-1241.713 220.43)"/><path class="e" d="M1278.652-177.317l.245,1.144a3.782,3.782,0,0,1-1.623.331,1.826,1.826,0,0,1-1.225-.391,1.313,1.313,0,0,1-.459-1.054,3.139,3.139,0,0,1-2.941,1.445q-3.247,0-3.246-2.921a2.971,2.971,0,0,1,1.562-2.8,6.076,6.076,0,0,1,2.971-.633,14.149,14.149,0,0,1,1.654.12v-.933a1.27,1.27,0,0,0-.536-1.174,3.927,3.927,0,0,0-1.914-.331,8.618,8.618,0,0,0-3,.542l.338-1.656a9,9,0,0,1,3.247-.542,4.187,4.187,0,0,1,3.031.873,3.867,3.867,0,0,1,.858,2.83v4.667q0,.542.521.542a1.745,1.745,0,0,0,.521-.06m-3.063-2.348v-.994q-1.011-.09-1.47-.09a3.539,3.539,0,0,0-1.96.421,1.527,1.527,0,0,0-.613,1.355q0,1.476,1.807,1.476a2.214,2.214,0,0,0,1.593-.617,2.06,2.06,0,0,0,.643-1.551" transform="translate(-1258.467 214.11)"/><path class="e" d="M1307.3-177.04l.214,1.144a3.416,3.416,0,0,1-1.623.331,1.782,1.782,0,0,1-1.225-.406,1.36,1.36,0,0,1-.459-1.069,6.06,6.06,0,0,1-1.685,1.069,4.476,4.476,0,0,1-1.746.406,3.323,3.323,0,0,1-2.358-.662,3.759,3.759,0,0,1-.7-2.589v-6.895h2.052v6.684a2.237,2.237,0,0,0,.26,1.294,1.256,1.256,0,0,0,1.026.331,4.481,4.481,0,0,0,1.762-.436,3.379,3.379,0,0,0,1.393-.978v-6.895h2.021v8.19q0,.541.521.541a2.068,2.068,0,0,0,.551-.06" transform="translate(-1275.594 213.833)"/><path class="e" d="M1336.927-183.268l.276,1.144a4.127,4.127,0,0,1-1.653.331,1.819,1.819,0,0,1-1.241-.391,1.37,1.37,0,0,1-.444-1.084q-.675,1.475-3.369,1.475a3.618,3.618,0,0,1-2.879-1.234,5.752,5.752,0,0,1-1.133-3.884,5.669,5.669,0,0,1,1.224-3.884,4.133,4.133,0,0,1,3.278-1.325,9.316,9.316,0,0,1,2.879.391V-196h2.021v12.254q0,.542.521.542a1.94,1.94,0,0,0,.521-.06m-3.063-2.86v-3.944a8.707,8.707,0,0,0-2.389-.392,2.667,2.667,0,0,0-2.174.784,4.216,4.216,0,0,0-.643,2.649,4.765,4.765,0,0,0,.582,2.74,2.161,2.161,0,0,0,1.9.783,2.607,2.607,0,0,0,2.113-.873,2.611,2.611,0,0,0,.612-1.746" transform="translate(-1293.005 220.061)"/><path class="e" d="M1360.263-195.881a1.265,1.265,0,0,1-.368.919,1.232,1.232,0,0,1-.919.376,1.3,1.3,0,0,1-.919-.376,1.152,1.152,0,0,1-.4-.859,1.263,1.263,0,0,1,.4-.933,1.273,1.273,0,0,1,.919-.391,1.233,1.233,0,0,1,.919.376,1.229,1.229,0,0,1,.368.888m.735,11.923.276,1.144a3.572,3.572,0,0,1-1.684.331,1.723,1.723,0,0,1-1.21-.406,1.38,1.38,0,0,1-.444-1.069v-8.671h2.052v8.19q0,.541.49.541a1.932,1.932,0,0,0,.521-.06" transform="translate(-1311.869 220.752)"/><path class="e" d="M1390.541-182.854l.337-2.047a8.613,8.613,0,0,0,3.736.873,4.2,4.2,0,0,0,2.083-.451,1.664,1.664,0,0,0,.888-1.535,1.646,1.646,0,0,0-.613-1.265,11.409,11.409,0,0,0-2.359-1.385,12.974,12.974,0,0,1-2.817-1.686,3.034,3.034,0,0,1-1.1-2.319,3.446,3.446,0,0,1,1.47-3.071,5.98,5.98,0,0,1,3.461-.874,8.134,8.134,0,0,1,3.522.783l-.337,1.957a8.115,8.115,0,0,0-3.246-.843q-2.665,0-2.665,1.776a1.362,1.362,0,0,0,.566,1.069,12.189,12.189,0,0,0,2.19,1.25,12.683,12.683,0,0,1,2.91,1.716,3.2,3.2,0,0,1,1.195,2.469,3.891,3.891,0,0,1-1.685,3.4,5.949,5.949,0,0,1-3.462.933,10.071,10.071,0,0,1-4.073-.753" transform="translate(-1331.764 220.43)"/><path class="e" d="M1422.763-182.582l.306,1.506a6.911,6.911,0,0,1-2.266.391,2,2,0,0,1-1.623-.587,3.093,3.093,0,0,1-.49-1.971v-5.992h-1.624l.337-1.6h1.287v-2.679l2.022-.663v3.342h2.113v1.6h-2.113v5.75a1.472,1.472,0,0,0,.2.919,1.136,1.136,0,0,0,.842.226,2.26,2.26,0,0,0,1.011-.241" transform="translate(-1347.814 218.953)"/><path class="e" d="M1445.316-177.317l.245,1.144a3.781,3.781,0,0,1-1.623.331,1.827,1.827,0,0,1-1.225-.391,1.313,1.313,0,0,1-.459-1.054,3.139,3.139,0,0,1-2.94,1.445q-3.248,0-3.247-2.921a2.971,2.971,0,0,1,1.562-2.8,6.076,6.076,0,0,1,2.971-.633,14.147,14.147,0,0,1,1.654.12v-.933a1.27,1.27,0,0,0-.536-1.174,3.928,3.928,0,0,0-1.914-.331,8.618,8.618,0,0,0-3,.542l.338-1.656a9,9,0,0,1,3.247-.542,4.186,4.186,0,0,1,3.031.873,3.867,3.867,0,0,1,.858,2.83v4.667q0,.542.521.542a1.744,1.744,0,0,0,.521-.06m-3.063-2.348v-.994q-1.011-.09-1.47-.09a3.54,3.54,0,0,0-1.96.421,1.527,1.527,0,0,0-.613,1.355q0,1.476,1.807,1.476a2.214,2.214,0,0,0,1.593-.617,2.059,2.059,0,0,0,.643-1.551" transform="translate(-1359.31 214.11)"/><path class="e" d="M1474.113-177.316l.245,1.144a3.5,3.5,0,0,1-1.654.331,1.829,1.829,0,0,1-1.225-.391,1.351,1.351,0,0,1-.459-1.085v-5.42a2.08,2.08,0,0,0-.275-1.265,1.27,1.27,0,0,0-1.011-.331,4.4,4.4,0,0,0-1.684.422,5.556,5.556,0,0,0-1.624,1.023v6.894h-2.052v-10h2.052v1.325a6.135,6.135,0,0,1,1.746-1.069,4.912,4.912,0,0,1,1.869-.437,3.21,3.21,0,0,1,2.328.662,3.764,3.764,0,0,1,.7,2.589v5.119q0,.541.49.541a2.065,2.065,0,0,0,.551-.06" transform="translate(-1376.438 214.11)"/><path class="e" d="M1504.057-183.268l.275,1.144a4.125,4.125,0,0,1-1.654.331,1.819,1.819,0,0,1-1.241-.391,1.371,1.371,0,0,1-.444-1.084q-.674,1.475-3.369,1.475a3.619,3.619,0,0,1-2.879-1.234,5.753,5.753,0,0,1-1.133-3.884,5.666,5.666,0,0,1,1.225-3.884,4.132,4.132,0,0,1,3.277-1.325,9.315,9.315,0,0,1,2.879.391V-196h2.022v12.254q0,.542.52.542a1.946,1.946,0,0,0,.521-.06m-3.063-2.86v-3.944a8.708,8.708,0,0,0-2.389-.392,2.667,2.667,0,0,0-2.174.784,4.219,4.219,0,0,0-.643,2.649,4.769,4.769,0,0,0,.582,2.74,2.161,2.161,0,0,0,1.9.783,2.607,2.607,0,0,0,2.113-.873,2.609,2.609,0,0,0,.612-1.746" transform="translate(-1394.13 220.061)"/><path class="e" d="M1533.341-177.317l.245,1.144a3.782,3.782,0,0,1-1.623.331,1.828,1.828,0,0,1-1.226-.391,1.313,1.313,0,0,1-.459-1.054,3.138,3.138,0,0,1-2.941,1.445q-3.247,0-3.246-2.921a2.971,2.971,0,0,1,1.562-2.8,6.08,6.08,0,0,1,2.971-.633,14.153,14.153,0,0,1,1.654.12v-.933a1.269,1.269,0,0,0-.536-1.174,3.927,3.927,0,0,0-1.914-.331,8.617,8.617,0,0,0-3,.542l.338-1.656a9,9,0,0,1,3.246-.542,4.187,4.187,0,0,1,3.032.873,3.865,3.865,0,0,1,.858,2.83v4.667c0,.361.174.542.521.542a1.75,1.75,0,0,0,.521-.06m-3.063-2.348v-.994c-.674-.06-1.163-.09-1.47-.09a3.536,3.536,0,0,0-1.96.421,1.527,1.527,0,0,0-.613,1.355q0,1.476,1.807,1.476a2.212,2.212,0,0,0,1.593-.617,2.058,2.058,0,0,0,.643-1.551" transform="translate(-1412.572 214.11)"/><path class="e" d="M1554.45-175.993H1552.4v-10h2.053v1.3a2.527,2.527,0,0,1,.811-1.069,1.787,1.787,0,0,1,1.088-.407,3.92,3.92,0,0,1,1.9.542l-.368,1.656a5.466,5.466,0,0,0-1.685-.3q-1.011,0-1.746,1.325Z" transform="translate(-1429.698 214.11)"/><path class="e" d="M1580.68-183.268l.276,1.144a4.129,4.129,0,0,1-1.654.331,1.819,1.819,0,0,1-1.241-.391,1.369,1.369,0,0,1-.444-1.084q-.675,1.475-3.369,1.475a3.619,3.619,0,0,1-2.88-1.234,5.755,5.755,0,0,1-1.133-3.884,5.665,5.665,0,0,1,1.225-3.884,4.131,4.131,0,0,1,3.277-1.325,9.32,9.32,0,0,1,2.879.391V-196h2.021v12.254q0,.542.521.542a1.941,1.941,0,0,0,.52-.06m-3.063-2.86v-3.944a8.716,8.716,0,0,0-2.389-.392,2.668,2.668,0,0,0-2.175.784,4.22,4.22,0,0,0-.643,2.649,4.765,4.765,0,0,0,.582,2.74,2.161,2.161,0,0,0,1.9.783,2.605,2.605,0,0,0,2.113-.873,2.61,2.61,0,0,0,.613-1.746" transform="translate(-1440.492 220.061)"/><path class="e" d="M1601.024-176.293l.46-1.746a6.677,6.677,0,0,0,1.332.422,6.356,6.356,0,0,0,1.333.18q2.45,0,2.45-1.445a.956.956,0,0,0-.429-.8,7.481,7.481,0,0,0-1.684-.768,8.138,8.138,0,0,1-2.236-1.114,2.24,2.24,0,0,1-.92-1.837,2.346,2.346,0,0,1,1.042-2.047,5.174,5.174,0,0,1,2.971-.722,7.3,7.3,0,0,1,2.879.512l-.337,1.626a5.935,5.935,0,0,0-2.481-.542q-2.051,0-2.052,1.054a.793.793,0,0,0,.383.662,7.546,7.546,0,0,0,1.516.692,9.138,9.138,0,0,1,2.389,1.175,2.611,2.611,0,0,1,.98,2.107,2.609,2.609,0,0,1-1.348,2.319,5.023,5.023,0,0,1-2.757.722,11.76,11.76,0,0,1-3.492-.452" transform="translate(-1459.121 214.11)"/><path class="e" d="M1253.6-254.511a1.148,1.148,0,0,0,.852-.366,1.187,1.187,0,0,0,.357-.853,1.138,1.138,0,0,0-.357-.838,1.172,1.172,0,0,0-.852-.351,1.171,1.171,0,0,0-.852.351,1.135,1.135,0,0,0-.356.838,1.184,1.184,0,0,0,.356.853,1.147,1.147,0,0,0,.852.366" transform="translate(-1248.174 256.919)"/><path class="e" d="M1245.865-254.511a1.15,1.15,0,0,0,.852-.366,1.186,1.186,0,0,0,.356-.853,1.137,1.137,0,0,0-.356-.838,1.173,1.173,0,0,0-.852-.351,1.225,1.225,0,0,0-.868.351,1.114,1.114,0,0,0-.372.838,1.161,1.161,0,0,0,.372.853,1.2,1.2,0,0,0,.868.366" transform="translate(-1243.475 256.919)"/><path class="e" d="M1253.969-235.271a3.141,3.141,0,0,0,1.209-2.714v-6.737h-1.983v6.828q0,1.342-1.456,1.341h-2.188v-8.17h-3.935a3.693,3.693,0,0,0-2.355.731,3.316,3.316,0,0,0-1.146,2.713v3.232a3.438,3.438,0,0,0,.806,2.408,3.785,3.785,0,0,0,2.913,1.036h.744l.96-1.28v1.28h4.046a3.977,3.977,0,0,0,2.385-.67m-6.432-1.281h-1.859a1.714,1.714,0,0,1-1.193-.335,1.5,1.5,0,0,1-.356-1.128v-3.323a1.263,1.263,0,0,1,1.425-1.432h1.983Z" transform="translate(-1241.957 249.538)"/><path class="e" d="M1261.4-211.608a1.172,1.172,0,0,0-.852.351,1.133,1.133,0,0,0-.356.839,1.148,1.148,0,0,0,.34.853,1.187,1.187,0,0,0,.868.335,1.175,1.175,0,0,0,.852-.351,1.136,1.136,0,0,0,.357-.838,1.137,1.137,0,0,0-.357-.839,1.175,1.175,0,0,0-.852-.351" transform="translate(-1252.893 229.503)"/><path class="e" d="M1269.2-211.608a1.208,1.208,0,0,0-.882.351,1.134,1.134,0,0,0-.357.839,1.122,1.122,0,0,0,.357.853,1.238,1.238,0,0,0,.882.335,1.124,1.124,0,0,0,.837-.351,1.161,1.161,0,0,0,.341-.838,1.135,1.135,0,0,0-.357-.839,1.137,1.137,0,0,0-.821-.351" transform="translate(-1257.592 229.503)"/><path class="e" d="M1282.193-244.722h-1.456v1.951h1.332a2.58,2.58,0,0,1,2.912,2.926v1.921q0,1.372-1.456,1.372H1279v1.951h4.369a3.592,3.592,0,0,0,2.727-.975,3.15,3.15,0,0,0,.836-2.256v-2.225a4.457,4.457,0,0,0-1.3-3.323,4.7,4.7,0,0,0-3.439-1.341" transform="translate(-1264.275 249.539)"/><path class="e" d="M1343.666-244.35a1.548,1.548,0,0,1-.356,1.158,1.774,1.774,0,0,1-1.224.335H1340.6v-8.17h-1.983v8.17h-3.439v-8.17h-1.983v8.17h-3.47v-8.17h-1.952v8.17h-6.253a27.82,27.82,0,0,1,3.284-3.048v-.244a4.865,4.865,0,0,0-1.3-3.537,4.921,4.921,0,0,0-3.687-1.463,5.12,5.12,0,0,0-3.315,1.1,4.677,4.677,0,0,0-1.642,3.841v.3a27.389,27.389,0,0,1,3.253,3.048h-6.036v-8.17h-3.935a3.6,3.6,0,0,0-2.479.823,3.332,3.332,0,0,0-1.023,2.622v3.232a3.344,3.344,0,0,0,.9,2.5,3.858,3.858,0,0,0,2.819.945h1.7v.609q0,2.957-4.152,2.957h-.31l1.333,1.769a6.323,6.323,0,0,0,3.78-1.25,4.911,4.911,0,0,0,1.363-3.842v-.244h6.036a3.111,3.111,0,0,0,1.736-.579,3.169,3.169,0,0,0,1.7.579h20.6a3.627,3.627,0,0,0,2.54-.823,3.13,3.13,0,0,0,.96-2.469v-10.944h-1.983Zm-33.6,1.493h-1.55a2.512,2.512,0,0,1-1.487-.3,1.492,1.492,0,0,1-.372-1.189v-3.232a1.652,1.652,0,0,1,.325-1.143,1.451,1.451,0,0,1,1.1-.35h1.983Zm9.784-1.037a24.456,24.456,0,0,0-3.005-2.987,2.384,2.384,0,0,1,.929-1.616,3.279,3.279,0,0,1,2.076-.7,3.21,3.21,0,0,1,1.766.518,2.491,2.491,0,0,1,1.177,1.8,21.586,21.586,0,0,0-2.943,2.987" transform="translate(-1279.788 255.844)"/><path class="e" d="M1414.033-239.81l2.014-1.1v-14.237h-2.014Z" transform="translate(-1345.979 255.845)"/><path class="e" d="M1446.56-254.464a1.2,1.2,0,0,0,.867-.366,1.128,1.128,0,0,0,.372-.822,1.113,1.113,0,0,0-.372-.839,1.226,1.226,0,0,0-.867-.351,1.136,1.136,0,0,0-.821.351,1.132,1.132,0,0,0-.356.839,1.132,1.132,0,0,0,.356.838,1.134,1.134,0,0,0,.821.35" transform="translate(-1364.948 256.872)"/><path class="e" d="M1439.447-237.893q0,1.343-1.425,1.342h-7.449a1.457,1.457,0,0,1-1.084-.351,1.6,1.6,0,0,1-.341-1.143v-4.33l-2.014,1.281v2.957a3.608,3.608,0,0,0,.837,2.53,3.572,3.572,0,0,0,2.758,1.006h7.138a3.707,3.707,0,0,0,2.6-.853,3.268,3.268,0,0,0,.961-2.531v-6.737h-1.983Z" transform="translate(-1353.906 249.538)"/><path class="e" d="M1438.776-254.511a1.149,1.149,0,0,0,.852-.366,1.186,1.186,0,0,0,.356-.853,1.137,1.137,0,0,0-.356-.838,1.172,1.172,0,0,0-.852-.351,1.226,1.226,0,0,0-.868.351,1.115,1.115,0,0,0-.371.838,1.162,1.162,0,0,0,.371.853,1.2,1.2,0,0,0,.868.366" transform="translate(-1360.2 256.919)"/><path class="e" d="M1488.467-254.511a1.149,1.149,0,0,0,.852-.366,1.186,1.186,0,0,0,.357-.853,1.137,1.137,0,0,0-.357-.838,1.173,1.173,0,0,0-.852-.351,1.224,1.224,0,0,0-.867.351,1.114,1.114,0,0,0-.372.838,1.161,1.161,0,0,0,.372.853,1.2,1.2,0,0,0,.867.366" transform="translate(-1390.266 256.919)"/><path class="e" d="M1541.97-239.81l2.014-1.1v-14.237h-2.014Z" transform="translate(-1423.39 255.845)"/><path class="e" d="M1572.95-244.351a1.546,1.546,0,0,1-.356,1.158,1.767,1.767,0,0,1-1.223.335h-.576V-247.7a3.276,3.276,0,0,0-.991-2.531,3.824,3.824,0,0,0-2.7-.914,4.209,4.209,0,0,0-2.386.64,3.1,3.1,0,0,0-1.3,2.805v4.847h-3.439v-8.17h-3.935a3.6,3.6,0,0,0-2.479.822,3.338,3.338,0,0,0-1.022,2.622v3.232a3.346,3.346,0,0,0,.9,2.5,3.86,3.86,0,0,0,2.819.945h1.7v.61q0,2.957-4.152,2.958h-.309l1.332,1.768a6.316,6.316,0,0,0,3.779-1.25,4.906,4.906,0,0,0,1.364-3.841v-.244h3.471a2.832,2.832,0,0,0,1.146,1.768,4,4,0,0,0,2.509.762,4.16,4.16,0,0,0,2.448-.656,2.788,2.788,0,0,0,1.146-1.875h.731a3.628,3.628,0,0,0,2.541-.823,3.133,3.133,0,0,0,.96-2.47v-10.944h-1.984Zm-14.983,1.493h-1.549a2.508,2.508,0,0,1-1.488-.3,1.491,1.491,0,0,1-.372-1.188v-3.232a1.654,1.654,0,0,1,.325-1.143,1.453,1.453,0,0,1,1.1-.35h1.983Zm10.875,1.067q0,1.494-1.735,1.494t-1.735-1.494v-5.944q0-1.494,1.735-1.494t1.735,1.494Z" transform="translate(-1429.788 255.844)"/><path class="e" d="M1614.788-255.142v15.334l2.014-1.1v-14.236Z" transform="translate(-1467.45 255.844)"/><path class="e" d="M1494.688-250.113a3.1,3.1,0,0,0-2.324-1.006,4.28,4.28,0,0,0-1.208.182l-4.709,1.646v-1.737H1484.5v8.169h-3.439v-8.169h-4a3.55,3.55,0,0,0-2.386.792,3.321,3.321,0,0,0-1.053,2.652v4.725h-1.636q-1.085,0-1.085-1.25v-11.035h-2.014v11.127a2.987,2.987,0,0,0,.806,2.134,2.978,2.978,0,0,0,2.293.975h8.042l.96-1.28v1.28h3.477v1.891l1.983-1.037v-.854h5.639a3.447,3.447,0,0,0,2.664-1.006,3.176,3.176,0,0,0,.806-2.225v-3.9a2.863,2.863,0,0,0-.867-2.073m-15.646,7.255h-3.408v-4.725q0-1.493,1.426-1.493h1.983Zm14.53-1.311q0,1.311-1.425,1.311h-5.7v-3.353a1.432,1.432,0,0,1,.2-.884,2.382,2.382,0,0,1,.945-.519l3.811-1.341a2.894,2.894,0,0,1,1.023-.213,1.041,1.041,0,0,1,.837.366,1.46,1.46,0,0,1,.31.975Z" transform="translate(-1379.168 255.844)"/></g></g></svg>