<svg width="48" height="48" viewBox="0 0 48 48" fill="none" xmlns="http://www.w3.org/2000/svg">
<path d="M0 24C0 10.7452 10.7452 0 24 0C37.2548 0 48 10.7452 48 24C48 37.2548 37.2548 48 24 48C10.7452 48 0 37.2548 0 24Z" fill="#079455"/>
<path d="M19.3335 21.9583C18.8502 21.9583 18.4585 22.3501 18.4585 22.8333C18.4585 23.3166 18.8502 23.7083 19.3335 23.7083H22.8335C23.3167 23.7083 23.7085 23.3166 23.7085 22.8333C23.7085 22.3501 23.3167 21.9583 22.8335 21.9583H19.3335Z" fill="white"/>
<path d="M19.3335 17.2916C18.8502 17.2916 18.4585 17.6834 18.4585 18.1666C18.4585 18.6499 18.8502 19.0416 19.3335 19.0416L27.5002 19.0416C27.9834 19.0416 28.3752 18.6499 28.3752 18.1666C28.3752 17.6834 27.9834 17.2916 27.5002 17.2916H19.3335Z" fill="white"/>
<path fill-rule="evenodd" clip-rule="evenodd" d="M23.9375 11.4583H24.9523C26.8118 11.4582 28.2761 11.4582 29.4379 11.5793C30.6241 11.703 31.5995 11.9609 32.4339 12.5488C32.8793 12.8626 33.2765 13.236 33.6126 13.6586C34.2483 14.4579 34.5288 15.3977 34.6622 16.5319C34.7919 17.6337 34.7918 19.0191 34.7918 20.762V23.8196C34.7918 25.5211 34.7918 26.8415 34.7215 27.9071C34.6503 28.9872 34.5042 29.8662 34.1832 30.6762C33.2054 33.1436 31.1464 35.07 28.5619 35.9773C26.9532 36.542 24.9793 36.5419 21.5197 36.5416L21.0965 36.5416C19.1889 36.542 18 36.5423 17.0192 36.198C15.4453 35.6455 14.1835 34.4693 13.5827 32.9531C13.3789 32.4389 13.2914 31.893 13.2495 31.2573C13.2085 30.636 13.2085 29.8712 13.2085 28.9095V21.5972C13.2085 19.4562 13.2085 17.7549 13.3988 16.4222C13.5957 15.0444 14.0112 13.9334 14.9361 13.0629C15.8535 12.1995 17.0117 11.818 18.4497 11.636C19.8548 11.4582 21.6532 11.4582 23.9375 11.4583ZM18.6694 13.3722C17.4069 13.5319 16.6703 13.8339 16.1355 14.3373C15.6081 14.8336 15.2975 15.506 15.1312 16.6697C14.9606 17.8643 14.9585 19.4405 14.9585 21.6666V28.8787C14.9585 29.878 14.9589 30.5851 14.9957 31.1421C15.0319 31.6913 15.1007 32.0337 15.2096 32.3084C15.6139 33.3286 16.4778 34.1532 17.5989 34.5467C18.2608 34.7791 19.1227 34.7916 21.2956 34.7916C21.6696 34.7916 22.0226 34.7915 22.3565 34.7908C23.9714 34.7343 25.2631 33.4074 25.2631 31.7788C25.2631 31.6071 25.2556 31.4226 25.246 31.2154L25.2424 31.1386C25.2339 30.9579 25.2246 30.7611 25.2206 30.565C25.2114 30.1216 25.2254 29.6041 25.3592 29.1046C25.6199 28.1316 26.3799 27.3717 27.3529 27.111C27.8524 26.9771 28.3698 26.9631 28.8133 26.9723C29.0094 26.9764 29.2061 26.9856 29.3868 26.9941L29.4636 26.9977C29.6708 27.0073 29.8554 27.0149 30.027 27.0149C31.6916 27.0149 33.0409 25.6655 33.0409 24.001C33.0409 23.9876 33.0412 23.9742 33.0418 23.9609C33.0418 23.9037 33.0418 23.846 33.0418 23.7878V20.8181C33.0418 19.0065 33.0404 17.7241 32.9242 16.7364C32.8104 15.7693 32.5963 15.1921 32.243 14.748C32.0124 14.458 31.7376 14.1989 31.426 13.9794C30.9392 13.6364 30.3029 13.429 29.2564 13.3199C28.196 13.2094 26.8229 13.2083 24.9017 13.2083H24.0002C21.6395 13.2083 19.9519 13.2099 18.6694 13.3722ZM32.9787 27.7406C32.1671 28.382 31.1418 28.7649 30.027 28.7649C29.8103 28.7649 29.5891 28.7554 29.3825 28.7458L29.3034 28.7421C29.1206 28.7336 28.9485 28.7255 28.7769 28.7219C28.3795 28.7137 28.0615 28.7328 27.8058 28.8013C27.4367 28.9002 27.1485 29.1885 27.0496 29.5575C26.9811 29.8132 26.9619 30.1313 26.9702 30.5287C26.9738 30.7002 26.9818 30.8723 26.9904 31.055L26.9941 31.1343C27.0037 31.3408 27.0131 31.562 27.0131 31.7788C27.0131 32.8784 26.6405 33.8911 26.0147 34.6974C26.8234 34.631 27.4351 34.5182 27.9823 34.3261C30.1139 33.5778 31.775 32.0029 32.5563 30.0315C32.7824 29.461 32.9098 28.7855 32.9753 27.7919C32.9765 27.7749 32.9776 27.7578 32.9787 27.7406Z" fill="white"/>
</svg>
