<svg width="48" height="48" viewBox="0 0 48 48" fill="none" xmlns="http://www.w3.org/2000/svg">
<path d="M0 24C0 10.7452 10.7452 0 24 0C37.2548 0 48 10.7452 48 24C48 37.2548 37.2548 48 24 48C10.7452 48 0 37.2548 0 24Z" fill="#079455"/>
<path d="M20.4252 12.8735C20.4491 13.3561 20.0772 13.7668 19.5945 13.7907C17.1692 13.9109 15.943 14.27 15.1065 15.1066C14.2699 15.9431 13.9108 17.1693 13.7906 19.5946C13.7667 20.0773 13.356 20.4492 12.8734 20.4253C12.3907 20.4013 12.0188 19.9907 12.0427 19.508C12.1653 17.0341 12.5326 15.2055 13.869 13.8691C15.2054 12.5327 17.034 12.1654 19.5079 12.0428C19.9906 12.0189 20.4012 12.3908 20.4252 12.8735Z" fill="white"/>
<path d="M27.5748 12.8735C27.5988 12.3908 28.0094 12.0189 28.4921 12.0428C30.966 12.1654 32.7946 12.5327 34.131 13.8691C35.4674 15.2055 35.8347 17.0341 35.9573 19.508C35.9812 19.9907 35.6093 20.4013 35.1266 20.4253C34.644 20.4492 34.2333 20.0773 34.2094 19.5946C34.0892 17.1693 33.7301 15.9431 32.8935 15.1066C32.057 14.27 30.8308 13.9109 28.4055 13.7907C27.9228 13.7668 27.5509 13.3561 27.5748 12.8735Z" fill="white"/>
<path d="M12.8734 27.5749C13.356 27.551 13.7667 27.9229 13.7906 28.4056C13.9108 30.8309 14.2699 32.0571 15.1065 32.8936C15.943 33.7302 17.1691 34.0893 19.5945 34.2095C20.0772 34.2334 20.4491 34.6441 20.4252 35.1267C20.4012 35.6094 19.9906 35.9813 19.5079 35.9574C17.034 35.8348 15.2054 35.4675 13.869 34.1311C12.5326 32.7947 12.1653 30.9661 12.0427 28.4922C12.0188 28.0095 12.3907 27.5989 12.8734 27.5749Z" fill="white"/>
<path d="M35.1266 27.5749C35.6093 27.5989 35.9812 28.0095 35.9573 28.4922C35.8347 30.9661 35.4674 32.7947 34.131 34.1311C32.7946 35.4675 30.966 35.8348 28.4921 35.9574C28.0094 35.9813 27.5988 35.6094 27.5748 35.1267C27.5509 34.6441 27.9228 34.2334 28.4055 34.2095C30.8308 34.0893 32.057 33.7302 32.8935 32.8936C33.7301 32.0571 34.0892 30.8309 34.2094 28.4056C34.2333 27.9229 34.644 27.551 35.1266 27.5749Z" fill="white"/>
<path fill-rule="evenodd" clip-rule="evenodd" d="M12.0415 24.0001C12.0415 23.5168 12.4333 23.1251 12.9165 23.1251H16.173C16.6083 19.1876 19.9465 16.1251 24 16.1251C24.4832 16.1251 24.875 16.5168 24.875 17.0001C24.875 18.4498 26.0502 19.6251 27.5 19.6251C28.0921 19.6251 28.6361 19.4301 29.0748 19.1005C29.2604 18.961 29.4937 18.9011 29.7235 18.9337C29.9533 18.9663 30.1607 19.0889 30.3 19.2745C31.1238 20.3711 31.6681 21.6906 31.8269 23.1251H35.0832C35.5664 23.1251 35.9582 23.5168 35.9582 24.0001C35.9582 24.4833 35.5664 24.8751 35.0832 24.8751H12.9165C12.4333 24.8751 12.0415 24.4833 12.0415 24.0001ZM17.937 23.1251H30.063C29.9527 22.3525 29.6982 21.627 29.3277 20.9759C28.7712 21.2321 28.1517 21.3751 27.5 21.3751C25.4007 21.3751 23.6467 19.8965 23.2227 17.9239C20.4942 18.2695 18.3254 20.4101 17.937 23.1251Z" fill="white"/>
<path d="M18.6939 27.0619C18.4519 26.6436 17.9166 26.5007 17.4983 26.7427C17.08 26.9847 16.9371 27.5199 17.179 27.9382C18.5394 30.2898 21.084 31.8751 24 31.8751C26.9159 31.8751 29.4606 30.2898 30.8209 27.9382C31.0629 27.5199 30.9199 26.9847 30.5016 26.7427C30.0833 26.5007 29.5481 26.6436 29.3061 27.0619C28.2457 28.895 26.266 30.1251 24 30.1251C21.734 30.1251 19.7542 28.895 18.6939 27.0619Z" fill="white"/>
</svg>
