<svg width="48" height="48" viewBox="0 0 48 48" fill="none" xmlns="http://www.w3.org/2000/svg">
<path d="M0 24C0 10.7452 10.7452 0 24 0C37.2548 0 48 10.7452 48 24C48 37.2548 37.2548 48 24 48C10.7452 48 0 37.2548 0 24Z" fill="#079455"/>
<path fill-rule="evenodd" clip-rule="evenodd" d="M17.8748 12.3333C17.8748 11.85 17.4831 11.4583 16.9998 11.4583C16.5166 11.4583 16.1248 11.85 16.1248 12.3333V13.0738C15.186 13.3399 14.3941 13.7724 13.735 14.485C12.8274 15.4662 12.424 16.7058 12.2308 18.2593C12.0415 19.7816 12.0415 21.7325 12.0415 24.2216V24.9449C12.0415 27.434 12.0415 29.3849 12.2308 30.9072C12.424 32.4607 12.8274 33.7003 13.735 34.6815C14.6515 35.6723 15.8247 36.1217 17.293 36.3351C18.714 36.5416 20.5296 36.5416 22.8206 36.5416H22.8915C23.3748 36.5416 23.7665 36.1498 23.7665 35.6666C23.7665 35.1833 23.3748 34.7916 22.8915 34.7916C20.5137 34.7916 18.8254 34.7894 17.5447 34.6033C16.2967 34.4219 15.5639 34.0816 15.0196 33.4932C14.4664 32.8951 14.1394 32.0742 13.9674 30.6912C13.7931 29.2895 13.7915 27.4475 13.7915 24.8828V24.2837C13.7915 22.6592 13.7921 21.3246 13.8369 20.2083H34.1627C34.2048 21.2578 34.208 22.5018 34.2082 24C34.2082 24.4833 34.6 24.875 35.0833 24.8749C35.5665 24.8749 35.9582 24.4831 35.9582 23.9998C35.9579 21.5729 35.9527 19.6653 35.7577 18.1718C35.5603 16.6592 35.1552 15.4477 34.2647 14.485C33.6056 13.7724 32.8137 13.3399 31.8748 13.0738V12.3333C31.8748 11.85 31.4831 11.4583 30.9998 11.4583C30.5166 11.4583 30.1248 11.85 30.1248 12.3333V12.7601C28.7994 12.6249 27.1685 12.6249 25.1791 12.6249H22.8206C20.8312 12.6249 19.2002 12.6249 17.8748 12.7601V12.3333ZM34.0301 18.4583H13.9696C14.1421 17.0855 14.4687 16.269 15.0196 15.6733C15.3222 15.3462 15.683 15.0958 16.1582 14.9067C16.2626 15.2732 16.5999 15.5416 16.9998 15.5416C17.4831 15.5416 17.8748 15.1498 17.8748 14.6666V14.5203C19.1127 14.3767 20.7126 14.3749 22.8915 14.3749H25.1082C27.2871 14.3749 28.887 14.3767 30.1248 14.5203V14.6666C30.1248 15.1498 30.5166 15.5416 30.9998 15.5416C31.3998 15.5416 31.7371 15.2732 31.8415 14.9067C32.3167 15.0958 32.6775 15.3462 32.98 15.6733C33.5229 16.2602 33.848 17.0616 34.0224 18.3983L34.0301 18.4583Z" fill="white"/>
<path d="M30.7082 26.3333C30.7082 25.85 30.3164 25.4583 29.8332 25.4583C29.3499 25.4583 28.9582 25.85 28.9582 26.3333V30.1249H25.1665C24.6833 30.1249 24.2915 30.5167 24.2915 30.9999C24.2915 31.4832 24.6833 31.8749 25.1665 31.8749H28.9582V35.6666C28.9582 36.1498 29.3499 36.5416 29.8332 36.5416C30.3164 36.5416 30.7082 36.1498 30.7082 35.6666V31.8749H34.4998C34.9831 31.8749 35.3748 31.4832 35.3748 30.9999C35.3748 30.5167 34.9831 30.1249 34.4998 30.1249H30.7082V26.3333Z" fill="white"/>
</svg>
