<svg width="48" height="48" viewBox="0 0 48 48" fill="none" xmlns="http://www.w3.org/2000/svg">
<path d="M0 24C0 10.7452 10.7452 0 24 0C37.2548 0 48 10.7452 48 24C48 37.2548 37.2548 48 24 48C10.7452 48 0 37.2548 0 24Z" fill="#F3FCF6"/>
<path fill-rule="evenodd" clip-rule="evenodd" d="M25.507 34.75H22.7331C19.3141 34.75 17.5981 34.75 16.2701 33.813C15.8901 33.544 15.5521 33.228 15.2641 32.872C14.2481 31.591 14.248 29.967 14.248 26.73V24.18C14.248 21.129 14.248 19.598 14.769 18.275C15.606 16.17 17.363 14.515 19.592 13.732C20.972 13.25 22.594 13.25 25.826 13.25C27.709 13.25 28.6551 13.25 29.4931 13.542C30.8561 14.026 31.93 15.038 32.442 16.322C32.763 17.138 32.763 18.034 32.763 19.8199V21.5C32.763 21.914 32.427 22.25 32.013 22.25C31.599 22.25 31.263 21.914 31.263 21.5V19.82C31.263 18.2245 31.263 17.4219 31.0471 16.875C30.6961 15.995 29.9471 15.295 28.9951 14.957C28.4001 14.75 27.539 14.75 25.825 14.75C25.5305 14.75 25.2501 14.75 24.9828 14.7504C23.5689 14.7645 22.4232 15.916 22.4232 17.3302C22.4232 17.492 22.4313 17.6663 22.4398 17.8506L22.4415 17.8885C22.4664 18.4319 22.4946 19.0464 22.3412 19.6232C22.1172 20.4622 21.4592 21.1192 20.6252 21.3362C20.0482 21.4882 19.4262 21.4612 18.8782 21.4372L18.8473 21.4359C18.6667 21.4284 18.4952 21.4212 18.3362 21.4212C16.9102 21.4212 15.7492 22.5782 15.7492 24.0012C15.7492 24.028 15.7478 24.0544 15.7451 24.0805C15.7451 24.1132 15.7451 24.1462 15.7451 24.1793V26.73C15.7451 29.6187 15.7451 31.069 16.432 31.934C16.629 32.177 16.866 32.399 17.134 32.588C18.072 33.25 19.6291 33.25 22.7311 33.25H25.507C25.921 33.25 26.257 33.586 26.257 34C26.257 34.414 25.921 34.75 25.507 34.75ZM15.7985 20.8029C16.496 20.2499 17.3781 19.9192 18.3362 19.9192C18.5362 19.9192 18.7432 19.9282 18.9432 19.9372L18.9476 19.9374C19.4103 19.9574 19.8873 19.9779 20.2452 19.8842C20.5592 19.8022 20.8062 19.5542 20.8912 19.2362C20.985 18.8828 20.9633 18.4099 20.9423 17.9536L20.9422 17.9512C20.9322 17.7472 20.9232 17.5362 20.9232 17.3302C20.9232 16.3891 21.244 15.5214 21.782 14.8304C21.0956 14.887 20.5567 14.9835 20.086 15.148C18.268 15.786 16.837 17.127 16.161 18.827C15.9549 19.3497 15.851 19.9661 15.7985 20.8029Z" fill="#067647"/>
<path d="M23.998 29.75H18.998C18.584 29.75 18.248 29.414 18.248 29C18.248 28.586 18.584 28.25 18.998 28.25H23.998C24.412 28.25 24.748 28.586 24.748 29C24.748 29.414 24.412 29.75 23.998 29.75Z" fill="#067647"/>
<path d="M21.998 25.75H24.998C25.412 25.75 25.748 25.414 25.748 25C25.748 24.586 25.412 24.25 24.998 24.25H21.998C21.584 24.25 21.248 24.586 21.248 25C21.248 25.414 21.584 25.75 21.998 25.75Z" fill="#067647"/>
<path fill-rule="evenodd" clip-rule="evenodd" d="M30.0056 34.749C29.5916 34.749 29.2556 34.413 29.2556 33.999V31.624C28.3546 31.453 26.5316 31.099 26.2716 29.629C26.083 28.5529 26.9018 27.8595 27.6259 27.2462L27.6296 27.243C27.7536 27.139 27.8806 27.031 28.0086 26.918L28.0118 26.9153C28.0118 26.9153 28.015 26.9127 28.0166 26.911C28.0586 26.875 28.0636 26.788 28.0276 26.717L27.6386 25.931C27.2876 25.237 27.4466 24.401 28.0186 23.9451C28.5976 23.4691 29.2026 23.3241 29.9326 23.2521C29.9566 23.2501 29.9816 23.248 30.0056 23.248C30.8406 23.248 31.3966 23.444 31.9896 23.946C32.5616 24.43 32.7146 25.257 32.3616 25.956L31.9616 26.761C31.9296 26.825 31.9316 26.885 31.9466 26.899C32.0846 27.024 32.2246 27.136 32.3726 27.254C32.9516 27.717 33.6726 28.294 33.7496 29.447C33.8507 30.976 31.8106 31.38 30.7566 31.572V33.997C30.7566 34.411 30.4206 34.747 30.0066 34.747L30.0056 34.749ZM29.5056 30.144C29.6776 30.15 30.2876 30.1231 30.4306 30.1081C31.7926 29.8611 32.1586 29.641 32.2506 29.521C32.2116 29.066 31.9686 28.8531 31.4356 28.4271C31.2766 28.3001 31.1116 28.168 30.9426 28.015C30.4146 27.542 30.2836 26.769 30.6186 26.095L31.0206 25.286C31.0586 25.21 31.0576 25.123 31.0206 25.092C30.7116 24.83 30.4966 24.753 30.0426 24.75C29.4276 24.814 29.1886 24.9261 28.9676 25.1081C28.9646 25.1101 28.9616 25.113 28.9586 25.115C28.9516 25.135 28.9476 25.197 28.9806 25.261L29.3696 26.047C29.7156 26.731 29.5656 27.554 29.0016 28.043C28.8666 28.163 28.7306 28.2781 28.5986 28.3891L28.5952 28.3919C28.1593 28.761 27.7098 29.1416 27.7497 29.369C27.7806 29.539 28.0506 29.864 29.5056 30.144Z" fill="#067647"/>
</svg>
