<svg width="48" height="48" viewBox="0 0 48 48" fill="none" xmlns="http://www.w3.org/2000/svg">
<path d="M0 24C0 10.7452 10.7452 0 24 0C37.2548 0 48 10.7452 48 24C48 37.2548 37.2548 48 24 48C10.7452 48 0 37.2548 0 24Z" fill="#F3FCF6"/>
<path fill-rule="evenodd" clip-rule="evenodd" d="M21.6814 34.749C19.7995 34.749 18.8545 34.749 18.0155 34.454C16.6545 33.976 15.5815 32.963 15.0695 31.673C14.7485 30.864 14.7485 29.967 14.7485 28.181V23.999C14.7485 23.585 15.0845 23.249 15.4985 23.249C15.9125 23.249 16.2485 23.585 16.2485 23.999V28.181C16.2485 29.777 16.2485 30.578 16.4635 31.121C16.8145 32.007 17.5615 32.706 18.5115 33.04C19.1095 33.25 19.9685 33.25 21.6805 33.25C21.9548 33.25 22.2169 33.25 22.4675 33.2497C22.4784 33.2492 22.4894 33.249 22.5005 33.249C23.9245 33.249 25.0835 32.09 25.0835 30.666C25.0835 30.5059 25.0755 30.3334 25.0671 30.151L25.0652 30.1111C25.0403 29.5665 25.012 28.9499 25.1655 28.374C25.3885 27.542 26.0435 26.887 26.8755 26.665C27.4525 26.51 28.0715 26.539 28.6175 26.565L28.6479 26.5664C28.8317 26.5749 29.0064 26.583 29.1675 26.583C30.5575 26.583 31.695 25.4787 31.7485 24.1015L31.7485 21.273C31.7485 18.382 31.7485 16.931 31.0635 16.07C30.8645 15.82 30.6295 15.599 30.3625 15.411C29.4255 14.75 27.8696 14.75 24.7706 14.75H24.4975C24.0835 14.75 23.7475 14.414 23.7475 14C23.7475 13.586 24.0835 13.25 24.4975 13.25H24.7705C28.1855 13.25 29.9005 13.25 31.2265 14.185C31.6095 14.455 31.9495 14.775 32.2365 15.136C33.2475 16.407 33.2475 18.033 33.2475 21.273L33.2475 23.933C33.2495 23.9551 33.2505 23.9774 33.2505 24C33.2505 24.0526 33.2495 24.105 33.2475 24.1571C33.2468 26.9883 33.2279 28.4556 32.7255 29.722C31.8905 31.828 30.1345 33.484 27.9075 34.266C26.6597 34.704 25.2145 34.7456 22.5582 34.7496C22.5449 34.7498 22.5316 34.7499 22.5182 34.75C22.512 34.75 22.5057 34.75 22.4995 34.75C22.238 34.7503 21.9653 34.75 21.6796 34.75L21.6814 34.749ZM27.4125 32.851C26.9435 33.0155 26.407 33.1121 25.7242 33.169C26.2619 32.4775 26.5825 31.6091 26.5825 30.667C26.5825 30.4764 26.5738 30.2815 26.5654 30.0911L26.5635 30.048L26.5633 30.0447C26.5424 29.5877 26.5207 29.1152 26.6145 28.763C26.6995 28.448 26.9475 28.199 27.2635 28.115C27.6116 28.0211 28.079 28.0425 28.5322 28.0633L28.5475 28.064L28.5877 28.0658C28.7791 28.0743 28.9759 28.083 29.1675 28.083C30.1208 28.083 30.999 27.7546 31.6946 27.2049C31.642 28.038 31.538 28.6513 31.3325 29.17C30.6585 30.871 29.2295 32.213 27.4125 32.851Z" fill="#067647"/>
<path d="M17.5898 19.6407C17.3976 19.396 17.1954 19.1388 17.0383 18.9773C16.7496 18.6802 16.2748 18.6735 15.9777 18.9622C15.6807 19.2509 15.674 19.7257 15.9627 20.0227C16.0514 20.114 16.197 20.2958 16.4102 20.5672L16.4572 20.6272C16.6473 20.8693 16.8703 21.1534 17.1 21.4245C17.3462 21.715 17.6218 22.0168 17.8973 22.2515C18.0353 22.369 18.1909 22.485 18.3583 22.5746C18.5198 22.661 18.7422 22.75 19.0005 22.75C19.2588 22.75 19.4812 22.661 19.6427 22.5746C19.8101 22.485 19.9657 22.369 20.1037 22.2515C20.3792 22.0168 20.6548 21.715 20.901 21.4245C21.1307 21.1534 21.3537 20.8693 21.5437 20.6272L21.5908 20.5672C21.804 20.2958 21.9496 20.114 22.0383 20.0227C22.327 19.7257 22.3203 19.2509 22.0232 18.9622C21.7262 18.6735 21.2514 18.6802 20.9627 18.9773C20.8056 19.1388 20.6034 19.396 20.4112 19.6407L20.3664 19.6976C20.1735 19.9434 19.9672 20.2061 19.7565 20.4548L19.7505 20.4619V14C19.7505 13.5858 19.4147 13.25 19.0005 13.25C18.5863 13.25 18.2505 13.5858 18.2505 14V20.4619L18.2444 20.4548C18.0338 20.2062 17.8275 19.9434 17.6346 19.6977L17.5898 19.6407Z" fill="#067647"/>
</svg>
