<svg width="48" height="48" viewBox="0 0 48 48" fill="none" xmlns="http://www.w3.org/2000/svg">
<path d="M0 24C0 10.7452 10.7452 0 24 0C37.2548 0 48 10.7452 48 24C48 37.2548 37.2548 48 24 48C10.7452 48 0 37.2548 0 24Z" fill="#F3FCF6"/>
<path fill-rule="evenodd" clip-rule="evenodd" d="M18.75 14C18.75 13.5858 18.4142 13.25 18 13.25C17.5858 13.25 17.25 13.5858 17.25 14V14.6348C16.4452 14.8629 15.7665 15.2336 15.2015 15.8444C14.4236 16.6853 14.0778 17.7479 13.9122 19.0795C13.75 20.3843 13.75 22.0565 13.75 24.19V24.81C13.75 26.9435 13.75 28.6157 13.9122 29.9205C14.0778 31.2521 14.4236 32.3147 15.2015 33.1556C15.9871 34.0049 16.9928 34.3901 18.2513 34.573C19.4693 34.75 21.0255 34.75 22.9892 34.75H23.05C23.4642 34.75 23.8 34.4142 23.8 34C23.8 33.5858 23.4642 33.25 23.05 33.25C21.0119 33.25 19.5648 33.2481 18.467 33.0886C17.3973 32.9331 16.7692 32.6414 16.3027 32.1371C15.8285 31.6244 15.5482 30.9209 15.4008 29.7354C15.2514 28.5339 15.25 26.9551 15.25 24.7568V24.2432C15.25 22.8508 15.2505 21.7069 15.2889 20.75H32.7111C32.7471 21.6496 32.7499 22.7159 32.75 24.0001C32.75 24.4143 33.0859 24.75 33.5001 24.75C33.9143 24.75 34.25 24.4141 34.25 23.9999C34.2498 21.9197 34.2453 20.2847 34.0782 19.0045C33.9089 17.708 33.5617 16.6695 32.7985 15.8444C32.2335 15.2336 31.5548 14.8629 30.75 14.6348V14C30.75 13.5858 30.4142 13.25 30 13.25C29.5858 13.25 29.25 13.5858 29.25 14V14.3659C28.1139 14.25 26.716 14.25 25.0108 14.25H22.9892C21.284 14.25 19.8861 14.25 18.75 14.3659V14ZM32.5974 19.25H15.4026C15.5505 18.0734 15.8304 17.3735 16.3027 16.8629C16.562 16.5826 16.8713 16.3679 17.2786 16.2058C17.3681 16.52 17.6572 16.75 18 16.75C18.4142 16.75 18.75 16.4142 18.75 16V15.8746C19.811 15.7516 21.1824 15.75 23.05 15.75H24.95C26.8176 15.75 28.189 15.7516 29.25 15.8746V16C29.25 16.4142 29.5858 16.75 30 16.75C30.3428 16.75 30.6319 16.52 30.7214 16.2058C31.1287 16.3679 31.438 16.5826 31.6973 16.8629C32.1626 17.366 32.4413 18.0529 32.5908 19.1986L32.5974 19.25Z" fill="#067647"/>
<path d="M29.75 26C29.75 25.5858 29.4142 25.25 29 25.25C28.5858 25.25 28.25 25.5858 28.25 26V29.25H25C24.5858 29.25 24.25 29.5858 24.25 30C24.25 30.4142 24.5858 30.75 25 30.75H28.25V34C28.25 34.4142 28.5858 34.75 29 34.75C29.4142 34.75 29.75 34.4142 29.75 34V30.75H33C33.4142 30.75 33.75 30.4142 33.75 30C33.75 29.5858 33.4142 29.25 33 29.25H29.75V26Z" fill="#067647"/>
</svg>
