<svg width="22" height="18" viewBox="0 0 22 18" fill="none" xmlns="http://www.w3.org/2000/svg">
<g id="elements">
<g id="Icon">
<path d="M7 7.25C6.58579 7.25 6.25 7.58579 6.25 8C6.25 8.41421 6.58579 8.75 7 8.75H8C8.41421 8.75 8.75 8.41421 8.75 8C8.75 7.58579 8.41421 7.25 8 7.25H7Z" fill="#161616"/>
<path fill-rule="evenodd" clip-rule="evenodd" d="M4.22686 1.15224C4.55019 0.863006 4.95252 0.75 5.318 0.75L10.1119 0.75C10.7853 0.75 11.5195 0.885319 12.1635 1.30295C13.4468 2.13517 15.3365 3.78054 16.9361 6.2857C16.9735 6.34435 17.0305 6.39043 17.0992 6.41534C18.018 6.74842 19.029 7.2057 19.6657 7.50532C20.2549 7.78256 20.7427 8.2753 20.9776 8.91873C21.4591 10.237 21.7175 11.6835 21.75 13.9889C21.7599 14.6901 21.1909 15.25 20.5029 15.25H19.6465C19.32 16.4043 18.2588 17.25 17 17.25C15.7412 17.25 14.68 16.4043 14.3535 15.25L7.64648 15.25C7.32002 16.4043 6.25878 17.25 5 17.25C3.74122 17.25 2.67998 16.4043 2.35352 15.25H1.48005C0.799912 15.25 0.200994 14.6893 0.253174 13.9493C0.309088 13.1564 0.504698 11.5131 1.2317 10.0994C1.24925 8.51188 1.48667 6.78102 1.94805 5.22206C2.42248 3.619 3.16082 2.10589 4.22686 1.15224ZM5.318 2.25L6.14923 2.25C6.04856 2.46111 5.9519 2.68579 5.86249 2.91827C5.52726 3.78986 5.25 4.88302 5.25 6C5.25 6.21512 5.34237 6.41989 5.50365 6.56226C5.66492 6.70463 5.87956 6.77089 6.09303 6.74421C9.97387 6.2591 13.3611 6.74427 16.2628 7.71151C16.3066 7.72611 16.3508 7.73644 16.3949 7.74274C16.4575 7.77391 16.5219 7.80157 16.588 7.82553C17.4406 8.13463 18.4018 8.56832 19.0271 8.86256C19.29 8.98629 19.4809 9.19285 19.5686 9.43326C19.9597 10.504 20.1994 11.7162 20.2454 13.75H19.6465C19.32 12.5957 18.2588 11.75 17 11.75C15.7412 11.75 14.68 12.5957 14.3535 13.75L7.64648 13.75C7.32002 12.5957 6.25878 11.75 5 11.75C3.74122 11.75 2.67998 12.5957 2.35352 13.75H1.77542C1.85647 12.9345 2.07376 11.6685 2.63673 10.6522C2.95059 10.0855 3.34951 9.63756 3.85303 9.36905C4.21853 9.17415 4.35682 8.71986 4.16192 8.35437C3.96701 7.98887 3.51272 7.85058 3.14723 8.04548C3.04841 8.09818 2.9531 8.15449 2.86119 8.21405C2.96942 7.33942 3.14474 6.46422 3.38638 5.64774C3.82737 4.15767 4.46216 2.95436 5.22695 2.2702C5.22743 2.26977 5.23247 2.26526 5.24684 2.26029C5.26205 2.25503 5.28598 2.25 5.318 2.25ZM6.81225 5.15827C9.69465 4.89782 12.3195 5.14121 14.6839 5.70316C13.4721 4.16708 12.2199 3.12731 11.3474 2.56148C11.0195 2.34888 10.5973 2.25 10.1119 2.25L7.86149 2.25C7.69814 2.49573 7.4731 2.90921 7.26251 3.45673C7.06464 3.97119 6.89803 4.55718 6.81225 5.15827ZM5 13.25C5.6525 13.25 6.18823 13.75 6.24502 14.3877C6.23952 14.4243 6.23667 14.4618 6.23667 14.5C6.23667 14.5382 6.23952 14.5757 6.24502 14.6123C6.18823 15.25 5.6525 15.75 5 15.75C4.30964 15.75 3.75 15.1904 3.75 14.5C3.75 13.8096 4.30964 13.25 5 13.25ZM15.75 14.5C15.75 13.8096 16.3096 13.25 17 13.25C17.6904 13.25 18.25 13.8096 18.25 14.5C18.25 15.1904 17.6904 15.75 17 15.75C16.3096 15.75 15.75 15.1904 15.75 14.5Z" fill="#161616"/>
</g>
</g>
</svg>
