<svg width="57" height="56" viewBox="0 0 57 56" fill="none" xmlns="http://www.w3.org/2000/svg">
<path d="M0.666504 28C0.666504 12.536 13.2025 0 28.6665 0C44.1305 0 56.6665 12.536 56.6665 28C56.6665 43.464 44.1305 56 28.6665 56C13.2025 56 0.666504 43.464 0.666504 28Z" fill="#079455"/>
<path fill-rule="evenodd" clip-rule="evenodd" d="M21.4374 19.0002C20.2031 19.0933 19.6211 19.3092 19.2227 19.7079C18.8997 20.0313 18.6891 20.4853 18.574 21.3424C18.4555 22.2246 18.4536 23.3938 18.4536 25.0699L18.4536 32.6603C18.4536 34.3365 18.4555 35.5057 18.574 36.3879C18.6891 37.245 18.8997 37.699 19.2227 38.0223C19.5457 38.3455 19.9989 38.5562 20.8549 38.6714C21.736 38.79 22.9039 38.7918 24.5786 38.7918H28.0832C28.5664 38.7918 28.9582 39.1836 28.9582 39.6668C28.9582 40.1501 28.5664 40.5418 28.0832 40.5418H24.5145C22.9191 40.5419 21.633 40.5419 20.6215 40.4058C19.5712 40.2644 18.6869 39.962 17.9847 39.2592C17.2826 38.5564 16.9807 37.6717 16.8395 36.6208C16.7036 35.6085 16.7036 34.3214 16.7036 32.7243V25.006C16.7036 23.4089 16.7036 22.1217 16.8395 21.1094C16.9807 20.0585 17.2826 19.1738 17.9847 18.4711C18.8827 17.5722 20.0925 17.3191 21.6016 17.2348C22.0456 16.1907 23.0808 15.4585 24.2869 15.4585L30.7036 15.4585C31.9098 15.4585 32.945 16.1907 33.3889 17.2348C34.8981 17.3191 36.1078 17.5722 37.0058 18.4711C37.7079 19.1738 38.0099 20.0585 38.151 21.1094C38.287 22.1217 38.287 23.4089 38.2869 25.006V28.0002C38.2869 28.4834 37.8952 28.8752 37.4119 28.8752C36.9287 28.8752 36.5369 28.4834 36.5369 28.0002V25.0699C36.5369 23.3938 36.5351 22.2246 36.4166 21.3424C36.3015 20.4853 36.0908 20.0313 35.7678 19.7079C35.3694 19.3092 34.7875 19.0933 33.5532 19.0002C33.267 20.3107 32.0999 21.2918 30.7036 21.2918L24.2869 21.2918C22.8907 21.2918 21.7235 20.3107 21.4374 19.0002ZM23.1203 18.3752C23.1203 17.7308 23.6426 17.2085 24.2869 17.2085L30.7036 17.2085C31.3479 17.2085 31.8703 17.7308 31.8703 18.3752C31.8703 19.0195 31.3479 19.5418 30.7036 19.5418L24.2869 19.5418C23.6426 19.5418 23.1203 19.0195 23.1203 18.3752Z" fill="white"/>
<path d="M22.8332 25.9585C22.3499 25.9585 21.9582 26.3502 21.9582 26.8335C21.9582 27.3167 22.3499 27.7085 22.8332 27.7085L32.1665 27.7085C32.6498 27.7085 33.0415 27.3167 33.0415 26.8335C33.0415 26.3502 32.6498 25.9585 32.1665 25.9585L22.8332 25.9585Z" fill="white"/>
<path d="M22.8332 31.7918C22.3499 31.7918 21.9582 32.1836 21.9582 32.6668C21.9582 33.1501 22.3499 33.5418 22.8332 33.5418H27.4998C27.9831 33.5418 28.3748 33.1501 28.3748 32.6668C28.3748 32.1836 27.9831 31.7918 27.4998 31.7918L22.8332 31.7918Z" fill="white"/>
<path d="M36.5415 31.5002C36.5415 31.0169 36.1498 30.6252 35.6665 30.6252C35.1833 30.6252 34.7915 31.0169 34.7915 31.5002V34.7085H31.5832C31.0999 34.7085 30.7082 35.1002 30.7082 35.5835C30.7082 36.0667 31.0999 36.4585 31.5832 36.4585H34.7915L34.7915 39.6668C34.7915 40.1501 35.1833 40.5418 35.6665 40.5418C36.1498 40.5418 36.5415 40.1501 36.5415 39.6668L36.5415 36.4585L39.7498 36.4585C40.2331 36.4585 40.6248 36.0667 40.6248 35.5835C40.6248 35.1002 40.2331 34.7085 39.7498 34.7085L36.5415 34.7085V31.5002Z" fill="white"/>
</svg>
