<svg width="57" height="56" viewBox="0 0 57 56" fill="none" xmlns="http://www.w3.org/2000/svg">
<path d="M0.333008 28C0.333008 12.536 12.869 0 28.333 0C43.797 0 56.333 12.536 56.333 28C56.333 43.464 43.797 56 28.333 56C12.869 56 0.333008 43.464 0.333008 28Z" fill="#079455"/>
<path fill-rule="evenodd" clip-rule="evenodd" d="M29.5076 36.1004C29.9568 36.3687 30.3371 36.4609 30.6475 36.4609H30.6486C31.0301 36.4609 31.3066 36.3209 31.4735 36.1995C31.778 35.979 32.2481 35.4377 31.9868 34.2897L31.7068 33.0694L31.708 33.0647L32.6845 32.0742C33.2153 31.548 33.4113 30.9133 33.2235 30.3335C33.0368 29.7583 32.5118 29.3617 31.7815 29.2474L30.5261 29.0339L30.5238 29.0327L29.8238 27.6245C29.4866 26.9374 28.943 26.5418 28.334 26.5418H28.3316C27.7226 26.5418 27.1778 26.9361 26.8383 27.6221L26.1371 29.0339L26.1348 29.035L24.8853 29.2474C24.1573 29.3617 23.6323 29.7572 23.4445 30.3312C23.2555 30.9099 23.4491 31.5445 23.973 32.0672L24.9565 33.0647C24.9576 33.067 24.9588 33.0717 24.9588 33.0717L24.6788 34.2897C24.4058 35.475 24.9483 36.0186 25.1945 36.1971C25.4395 36.3745 26.1208 36.7222 27.1521 36.1027L28.3316 35.4038L29.5076 36.1004ZM30.238 34.4985L29.1915 33.8778L29.1903 33.8813C28.6921 33.5733 27.9758 33.5734 27.4741 33.8802L26.4253 34.5009L26.6726 33.424L26.675 33.4111C26.7905 32.8756 26.612 32.2562 26.2305 31.8666L25.3251 30.9484L26.4661 30.7547C26.9596 30.6742 27.4613 30.3008 27.6853 29.8481L28.3293 28.5521L28.9721 29.8459C29.1985 30.302 29.7025 30.6753 30.1901 30.7523L31.337 30.9471L30.4293 31.8666C30.049 32.2562 29.8716 32.8769 29.9906 33.4217L30.238 34.4985Z" fill="white"/>
<path fill-rule="evenodd" clip-rule="evenodd" d="M22.2078 16.3335C22.2078 15.8502 21.8161 15.4585 21.3328 15.4585C20.8496 15.4585 20.4578 15.8502 20.4578 16.3335V17.0741C19.519 17.3402 18.7271 17.7727 18.068 18.4853C17.1604 19.4664 16.757 20.7061 16.5638 22.2596C16.3745 23.7819 16.3745 25.7327 16.3745 28.2219V28.9451C16.3745 31.4343 16.3745 33.3851 16.5638 34.9074C16.757 36.4609 17.1604 37.7006 18.068 38.6817C18.9845 39.6726 20.1577 40.1219 21.626 40.3353C23.047 40.5419 24.8626 40.5419 27.1536 40.5418H29.5121C31.803 40.5419 33.6186 40.5419 35.0397 40.3353C36.508 40.1219 37.6812 39.6726 38.5977 38.6817C39.5053 37.7006 39.9087 36.4609 40.1019 34.9074C40.2912 33.3851 40.2912 31.4343 40.2912 28.9451V28.2219C40.2912 25.7327 40.2912 23.7819 40.1019 22.2596C39.9087 20.7061 39.5053 19.4664 38.5977 18.4853C37.9386 17.7727 37.1467 17.3402 36.2078 17.0741V16.3335C36.2078 15.8502 35.8161 15.4585 35.3328 15.4585C34.8496 15.4585 34.4578 15.8502 34.4578 16.3335V16.7604C33.1324 16.6251 31.5015 16.6251 29.5121 16.6252H27.1536C25.1642 16.6251 23.5332 16.6251 22.2078 16.7604V16.3335ZM19.3527 19.6736C19.6552 19.3465 20.016 19.0961 20.4912 18.907C20.5956 19.2735 20.9329 19.5418 21.3328 19.5418C21.8161 19.5418 22.2078 19.1501 22.2078 18.6668V18.5205C23.4457 18.377 25.0456 18.3752 27.2245 18.3752H29.4412C31.6201 18.3752 33.22 18.377 34.4578 18.5205V18.6668C34.4578 19.1501 34.8496 19.5418 35.3328 19.5418C35.7328 19.5418 36.0701 19.2735 36.1745 18.907C36.6497 19.0961 37.0105 19.3465 37.313 19.6736C37.864 20.2692 38.1906 21.0857 38.3631 22.4585H18.3026C18.4751 21.0857 18.8017 20.2692 19.3527 19.6736ZM18.1699 24.2085H38.4958C38.5405 25.3249 38.5412 26.6594 38.5412 28.2839V28.883C38.5412 31.4477 38.5396 33.2897 38.3653 34.6914C38.1933 36.0745 37.8663 36.8953 37.313 37.4934C36.7688 38.0818 36.036 38.4221 34.788 38.6035C33.5073 38.7897 31.819 38.7918 29.4412 38.7918H27.2245C24.8467 38.7918 23.1584 38.7897 21.8777 38.6035C20.6297 38.4221 19.8969 38.0818 19.3527 37.4934C18.7994 36.8953 18.4724 36.0745 18.3004 34.6914C18.1261 33.2897 18.1245 31.4477 18.1245 28.883V28.2839C18.1245 26.6594 18.1252 25.3249 18.1699 24.2085Z" fill="white"/>
</svg>
