<svg width="56" height="56" viewBox="0 0 56 56" fill="none" xmlns="http://www.w3.org/2000/svg">
<path d="M0 28C0 12.536 12.536 0 28 0C43.464 0 56 12.536 56 28C56 43.464 43.464 56 28 56C12.536 56 0 43.464 0 28Z" fill="#079455"/>
<path d="M17.4997 29.458C17.0165 29.458 16.6247 29.8498 16.6247 30.333C16.6247 30.8163 17.0165 31.208 17.4997 31.208H20.2937C20.5058 31.208 20.7138 31.2558 20.9012 31.3465L23.2835 32.4991C23.71 32.7055 24.1789 32.8123 24.6532 32.8123H25.8696C26.3672 32.8123 26.7761 33.0785 26.9815 33.4501L24.7249 34.074C24.397 34.1647 24.046 34.1326 23.7433 33.9862L21.1966 32.754C20.7616 32.5435 20.2384 32.7255 20.0279 33.1605C19.8174 33.5956 19.9994 34.1188 20.4344 34.3293L22.9811 35.5615C23.6679 35.8938 24.4557 35.9641 25.1913 35.7607L28.1557 34.9411C28.5641 34.8282 28.8747 34.455 28.8747 33.9987C28.8747 33.9645 28.8742 33.9306 28.873 33.8967L33.615 32.4398L33.6183 32.4388C34.1986 32.258 34.839 32.4666 35.2203 32.9946C35.3557 33.1821 35.2856 33.4398 35.1207 33.535L26.3525 38.5941C26.0013 38.7967 25.5913 38.8446 25.2097 38.7314L17.7487 36.5174C17.2854 36.38 16.7984 36.6441 16.6609 37.1074C16.5234 37.5707 16.7875 38.0577 17.2508 38.1951L24.7118 40.4091C25.557 40.6599 26.4629 40.5507 27.2271 40.1098L35.9952 35.0508C37.0839 34.4226 37.3641 32.9742 36.6391 31.9701C35.8307 30.8507 34.4184 30.3574 33.0995 30.7675L33.0977 30.768L28.2828 32.2473C27.7305 31.5236 26.8465 31.0623 25.8696 31.0623H24.6532C24.4411 31.0623 24.233 31.0145 24.0457 30.9238L21.6634 29.7712C21.2368 29.5648 20.768 29.458 20.2937 29.458H17.4997Z" fill="white"/>
<path d="M30.3328 17.208C26.3058 17.208 23.0412 20.4726 23.0412 24.4997C23.0412 25.6196 23.2931 26.6783 23.7424 27.6242C23.9498 28.0607 23.764 28.5827 23.3275 28.79C22.891 28.9974 22.3691 28.8116 22.1617 28.3751C21.6032 27.1995 21.2912 25.8848 21.2912 24.4997C21.2912 19.5061 25.3393 15.458 30.3328 15.458C35.3264 15.458 39.3745 19.5061 39.3745 24.4997C39.3745 26.4195 38.7752 28.202 37.7534 29.6669C37.4769 30.0633 36.9315 30.1605 36.5351 29.884C36.1388 29.6075 36.0416 29.0621 36.318 28.6658C37.1416 27.485 37.6245 26.0501 37.6245 24.4997C37.6245 20.4726 34.3599 17.208 30.3328 17.208Z" fill="white"/>
<path d="M30.3328 18.958C30.8161 18.958 31.2078 19.3498 31.2078 19.833V20.2233C32.128 20.434 32.94 20.9767 33.3249 21.7933C33.5309 22.2305 33.3436 22.7518 32.9064 22.9579C32.4693 23.1639 31.9479 22.9765 31.7419 22.5394C31.6051 22.2491 31.1126 21.8747 30.3328 21.8747C29.8595 21.8747 29.4647 22.0197 29.2079 22.2122C28.9514 22.4046 28.8745 22.6036 28.8745 22.7497C28.8745 22.8958 28.9514 23.0947 29.2079 23.2871C29.4647 23.4797 29.8595 23.6247 30.3328 23.6247C31.1482 23.6247 31.92 23.8714 32.5078 24.3122C33.0958 24.7532 33.5412 25.4293 33.5412 26.2497C33.5412 27.0701 33.0958 27.7461 32.5078 28.1871C32.1362 28.4658 31.691 28.6669 31.2078 28.7772V29.1663C31.2078 29.6496 30.8161 30.0413 30.3328 30.0413C29.8496 30.0413 29.4578 29.6496 29.4578 29.1663V28.7761C28.5377 28.5653 27.7256 28.0227 27.3408 27.206C27.1348 26.7689 27.3221 26.2475 27.7593 26.0415C28.1964 25.8355 28.7178 26.0229 28.9238 26.46C29.0606 26.7502 29.5531 27.1247 30.3328 27.1247C30.8062 27.1247 31.201 26.9797 31.4578 26.7871C31.7143 26.5947 31.7912 26.3958 31.7912 26.2497C31.7912 26.1036 31.7143 25.9046 31.4578 25.7122C31.201 25.5197 30.8062 25.3747 30.3328 25.3747C29.5175 25.3747 28.7457 25.1279 28.1579 24.6871C27.5699 24.2461 27.1245 23.5701 27.1245 22.7497C27.1245 21.9293 27.5699 21.2532 28.1579 20.8122C28.5295 20.5336 28.9746 20.3324 29.4578 20.2222V19.833C29.4578 19.3498 29.8496 18.958 30.3328 18.958Z" fill="white"/>
</svg>
